<svg xmlns="http://www.w3.org/2000/svg" width="69.538" height="123.63" viewBox="0 0 69.538 123.63">
  <path id="Path_1045" data-name="Path 1045" d="M53.9,101.345,51.893,93.1a1.811,1.811,0,1,0-3.52.859l2.008,8.243a7.147,7.147,0,0,1-3.365,7.837c-18.561,10.7-36.606,10.7-55.166,0a7.146,7.146,0,0,1-3.367-7.837L-6.4,81.185A18.291,18.291,0,0,1,6.682,67.84L17.863,87.209a1.813,1.813,0,0,0,3.137,0L32.183,67.84A18.293,18.293,0,0,1,45.261,81.185l1.065,4.368a1.811,1.811,0,1,0,3.519-.858L48.78,80.326a21.959,21.959,0,0,0-21.109-16.8V59.475h6.007A13.013,13.013,0,0,0,46.65,47.734c.444-4.368.619-13.618.593-17.569A24.093,24.093,0,0,0,36.527,10.334l2.487-6.49A1.811,1.811,0,0,0,37.97,1.5,50.579,50.579,0,0,0,.9,1.493,1.81,1.81,0,0,0-.15,3.828l2.474,6.516a24.1,24.1,0,0,0-10.7,19.821c-.027,3.951.149,13.2.594,17.569A13.011,13.011,0,0,0,5.186,59.475h6.008v4.051a21.958,21.958,0,0,0-21.109,16.8l-5.121,21.019A10.786,10.786,0,0,0-9.96,113.176c19.5,11.245,39.28,11.245,58.785,0A10.786,10.786,0,0,0,53.9,101.345ZM34.972,4.267l-2.3,6.009-2.021,5.274a34.48,34.48,0,0,0-22.471.012L3.89,4.265a46.8,46.8,0,0,1,31.082,0Zm-39.154,43.1c-.4-3.943-.6-12.663-.574-17.178A20.577,20.577,0,0,1,3.6,13.7c1.963,4.692,1.555,5.389,3.022,5.82a1.788,1.788,0,0,0,.495.152,1.8,1.8,0,0,0,.642-.119,31.387,31.387,0,0,1,23.3-.011A1.81,1.81,0,0,0,33.4,18.5l1.847-4.818a20.575,20.575,0,0,1,8.377,16.507c.03,4.516-.173,13.236-.574,17.179a9.4,9.4,0,0,1-9.367,8.485H29.185a17.693,17.693,0,0,0,7.956-14.757V27.372a3.627,3.627,0,0,0-.393-.95,3.613,3.613,0,0,0-.73-.726A32.346,32.346,0,0,1,26.648,19.3a1.815,1.815,0,0,0-2.4-.178A37.87,37.87,0,0,1,3.518,25.561c-.248,0-.42.177-.634.271s-.471.1-.632.268-.175.423-.266.642-.261.383-.261.631v5.145a1.812,1.812,0,1,0,3.623,0V29a42.549,42.549,0,0,0,19.817-6.117A36.331,36.331,0,0,0,33.517,28.5V41.1a14.085,14.085,0,0,1-28.17,0,1.812,1.812,0,1,0-3.623,0A17.69,17.69,0,0,0,9.681,55.852H5.186a9.4,9.4,0,0,1-9.367-8.485ZM11.471,67.147H13a1.811,1.811,0,0,0,1.812-1.811v-6.4a15.9,15.9,0,0,0,9.232,0v6.4a1.812,1.812,0,0,0,1.812,1.811h1.532c.327,0,.638.064.96.082L19.432,82.681l-8.92-15.452c.322-.017.634-.082.96-.082Zm0,0" transform="translate(15.337 2.02)" fill="#00295d"/>
</svg>
