<svg xmlns="http://www.w3.org/2000/svg" width="146.561" height="142.869" viewBox="0 0 146.561 142.869">
  <g id="_2" data-name="2" transform="translate(-8.286)">
    <g id="Group_218" data-name="Group 218" transform="translate(29.973)">
      <g id="Path_1058" data-name="Path 1058" transform="matrix(0.974, -0.225, 0.225, 0.974, 0, 14.32)" fill="#fff">
        <path d="M 31.83007431030273 49.20501327514648 C 27.75260353088379 49.20501327514648 23.80083465576172 48.56394577026367 20.08453369140625 47.29962539672852 C 16.51601409912109 46.08557510375977 13.31699371337891 44.35224533081055 10.57632350921631 42.14779663085938 C 7.867743968963623 39.96914291381836 5.746503829956055 37.44225311279297 4.271543979644775 34.63732528686523 C 2.764253854751587 31.77092552185059 2.000003814697266 28.73117446899414 2.000003814697266 25.60251426696777 C 2.000003814697266 22.16103553771973 2.921333789825439 18.84553527832031 4.73841381072998 15.74811458587646 C 6.529613971710205 12.69480514526367 9.094893455505371 10.00284481048584 12.36300373077393 7.74701452255249 C 14.69083404541016 6.139774799346924 17.47213363647461 4.77416467666626 20.40644454956055 3.797664642333984 C 23.93965339660645 2.621614694595337 27.88984298706055 2.000004768371582 31.83009338378906 2.000004768371582 C 35.90756225585938 2.000004768371582 39.85933303833008 2.641064643859863 43.57563400268555 3.905394792556763 C 47.1441535949707 5.119434833526611 50.34317398071289 6.85276460647583 53.08384323120117 9.057214736938477 C 55.79242324829102 11.23586463928223 57.91366195678711 13.76275444030762 59.38863372802734 16.56768417358398 C 60.89591217041016 19.43408393859863 61.66017532348633 22.47383499145508 61.66017532348633 25.60249519348145 C 61.66016387939453 38.6169548034668 48.27843475341797 49.20500564575195 31.83007431030273 49.20501327514648 Z" stroke="none"/>
        <path d="M 31.8300952911377 4 C 28.10189437866211 4 24.37012100219727 4.586212158203125 21.03797912597656 5.695327758789063 C 18.280517578125 6.61297607421875 15.67377853393555 7.891506195068359 13.49914169311523 9.392986297607422 C 10.47302627563477 11.48177719116211 8.105884552001953 13.96043395996094 6.463470458984375 16.76011657714844 C 4.828838348388672 19.54656410217285 4 22.52157592773438 4 25.60251617431641 C 4 31.20564651489258 6.780685424804688 36.52807998657227 11.82984924316406 40.58936309814453 C 14.38796615600586 42.64698791503906 17.38196563720703 44.26759719848633 20.72869491577148 45.40618896484375 C 24.23712921142578 46.59980010986328 27.9721794128418 47.20500946044922 31.8300724029541 47.20500946044922 C 35.68796539306641 47.20500946044922 39.42301177978516 46.59980010986328 42.93144989013672 45.40618896484375 C 46.27817535400391 44.26758575439453 49.27217864990234 42.64697647094727 51.83030700683594 40.58935165405273 C 56.87945938110352 36.52805709838867 59.6601676940918 31.20562171936035 59.6601676940918 25.60249328613281 C 59.6601676940918 19.99935150146484 56.87948226928711 14.67691802978516 51.83031845092773 10.61563491821289 C 49.27220153808594 8.558010101318359 46.27820205688477 6.937397003173828 42.93147277832031 5.798809051513672 C 39.42303466796875 4.605197906494141 35.68800354003906 4 31.8300952911377 4 M 31.8300952911377 0 C 49.40936660766602 -1.1444091796875e-05 63.66017913818359 11.46261215209961 63.6601676940918 25.60249328613281 C 63.66015625 39.74236297607422 49.40934371948242 51.20499801635742 31.8300724029541 51.20500946044922 C 14.25080108642578 51.20500946044922 -1.1444091796875e-05 39.74238586425781 0 25.60251617431641 C 0 17.84148025512695 4.29327392578125 10.88699722290039 11.22687149047852 6.101058959960938 C 13.67593002319336 4.410102844238281 16.59392929077148 2.958576202392578 19.77491760253906 1.899974822998047 C 23.41583633422852 0.688079833984375 27.5230598449707 0 31.8300952911377 0 Z" stroke="none" fill="#00295d"/>
      </g>
      <path id="Path_1059" data-name="Path 1059" d="M13140.365-11431.683c4.326,2.7,25.412,6.848,36.768-9.012" transform="translate(-13122.101 11464.973)" fill="none" stroke="#00295d" stroke-linecap="round" stroke-width="4"/>
      <path id="Path_1060" data-name="Path 1060" d="M13493.634-12103.665s3.058-1.65,2.719,1.99,6.787.261,6.787-2.446,1.193-3.772-1.171-3.287-2.408-1.149-2.223-2.288-.7-1.773-.462-3.12C13499.94-12116.508,13493.634-12103.665,13493.634-12103.665Z" transform="translate(-13483.089 12123.559)" fill="#fff"/>
    </g>
    <g id="Group_219" data-name="Group 219" transform="matrix(0.966, -0.259, 0.259, 0.966, 70.892, 59.51)">
      <g id="Path_1058-2" data-name="Path 1058" transform="matrix(0.974, -0.225, 0.225, 0.974, 0, 14.32)" fill="#fff">
        <path d="M 31.83007621765137 49.20499420166016 C 27.75260543823242 49.20499420166016 23.80083465576172 48.56393432617188 20.08452606201172 47.29960632324219 C 16.51601600646973 46.08556365966797 13.31698513031006 44.35224533081055 10.57632541656494 42.14778518676758 C 7.867735385894775 39.96914672851563 5.746495246887207 37.44225692749023 4.271535396575928 34.63732528686523 C 2.764255285263062 31.77093505859375 2.00000524520874 28.73118591308594 2.00000524520874 25.60252571105957 C 2.00000524520874 22.16104507446289 2.921335220336914 18.84554481506348 4.738415241241455 15.74812507629395 C 6.52961540222168 12.69481563568115 9.094904899597168 10.00285530090332 12.36301517486572 7.747035026550293 C 14.69081497192383 6.139795303344727 17.47211456298828 4.774185180664063 20.40646553039551 3.797665119171143 C 23.93967437744141 2.621615171432495 27.8898754119873 2.00000524520874 31.83011436462402 2.00000524520874 C 35.90758514404297 2.00000524520874 39.85935592651367 2.641065120697021 43.57565689086914 3.905385255813599 C 47.1441764831543 5.11943531036377 50.34319686889648 6.852755069732666 53.08386611938477 9.057205200195313 C 55.79245376586914 11.23585510253906 57.9136848449707 13.76273536682129 59.38865661621094 16.56767463684082 C 60.89593505859375 19.4340648651123 61.66018676757813 22.47381591796875 61.66018676757813 25.60247611999512 C 61.66017532348633 38.61692428588867 48.27844619750977 49.20497512817383 31.83007621765137 49.20499420166016 Z" stroke="none"/>
        <path d="M 31.83011817932129 4 C 28.1019172668457 4 24.37013244628906 4.586212158203125 21.03799057006836 5.695331573486328 C 18.2805290222168 6.61297607421875 15.67378997802734 7.891506195068359 13.49915313720703 9.392990112304688 C 10.47303771972656 11.48177719116211 8.10589599609375 13.9604377746582 6.463481903076172 16.7601203918457 C 4.828838348388672 19.54656600952148 4 22.52157783508301 4 25.60251808166504 C 4 31.20564842224121 6.780685424804688 36.52808380126953 11.82983779907227 40.58935546875 C 14.38796615600586 42.64697647094727 17.38196563720703 44.2675895690918 20.72869491577148 45.40617752075195 C 24.23712921142578 46.59978866577148 27.97216415405273 47.20499038696289 31.8300724029541 47.20499038696289 C 35.68796539306641 47.20499038696289 39.42301177978516 46.59977722167969 42.93144989013672 45.40616607666016 C 46.27817535400391 44.2675666809082 49.27219009399414 42.64694213867188 51.83031845092773 40.58931732177734 C 56.87948226928711 36.52802276611328 59.66019058227539 31.20560073852539 59.66019058227539 25.60247230529785 C 59.66019058227539 19.99934196472168 56.87950897216797 14.67690658569336 51.83035278320313 10.61562347412109 C 49.27222442626953 8.558013916015625 46.27822494506836 6.937400817871094 42.93149566650391 5.798801422119141 C 39.42305755615234 4.605201721191406 35.68802642822266 4 31.83011817932129 4 M 31.83011817932129 0 C 49.40938949584961 -2.288818359375e-05 63.66020202636719 11.46260070800781 63.66019058227539 25.60247230529785 C 63.66017913818359 39.74233245849609 49.40934371948242 51.20497894287109 31.8300724029541 51.20499038696289 C 14.25080108642578 51.20500183105469 -1.1444091796875e-05 39.74238967895508 0 25.60251808166504 C 0 17.84148406982422 4.293285369873047 10.88700103759766 11.22688293457031 6.101058959960938 C 13.67594146728516 4.410106658935547 16.59394073486328 2.958576202392578 19.77492904663086 1.899978637695313 C 23.41584777832031 0.6880836486816406 27.5230827331543 0 31.83011817932129 0 Z" stroke="none" fill="#00295d"/>
      </g>
      <path id="Path_1059-2" data-name="Path 1059" d="M0,9.011C4.325,11.715,25.411,15.86,36.766,0" transform="translate(18.265 24.278)" fill="none" stroke="#00295d" stroke-linecap="round" stroke-width="4"/>
      <path id="Path_1060-2" data-name="Path 1060" d="M0,9.819s3.058-1.65,2.718,1.99,6.788.26,6.788-2.447S10.7,5.589,8.335,6.075,5.927,4.926,6.112,3.787s-.7-1.773-.461-3.121C6.307-3.025,0,9.819,0,9.819Z" transform="translate(51.363 1.166) rotate(59)" fill="#fff"/>
    </g>
    <g id="Group_220" data-name="Group 220" transform="matrix(0.719, 0.695, -0.695, 0.719, 44.606, 55.89)">
      <g id="Path_1058-3" data-name="Path 1058" transform="matrix(0.974, -0.225, 0.225, 0.974, 0, 14.32)" fill="#fff">
        <path d="M 31.83011817932129 49.20499038696289 L 31.83013916015625 49.20499038696289 C 15.38174915313721 49.2049674987793 2.000009059906006 38.61692047119141 1.999999046325684 25.60246849060059 C 1.999999046325684 22.16098976135254 2.921319007873535 18.84548950195313 4.738399028778076 15.74807929992676 C 6.529589176177979 12.69476890563965 9.094879150390625 10.0028190612793 12.36298942565918 7.74699878692627 C 14.6907787322998 6.139769077301025 17.47207832336426 4.774148941040039 20.40642929077148 3.797638893127441 C 23.93961906433105 2.621598958969116 27.88981819152832 1.999999046325684 31.83008003234863 1.999999046325684 C 48.27845001220703 2.000019073486328 61.66019058227539 12.58806896209717 61.66019821166992 25.60251808166504 C 61.66019821166992 28.73091888427734 60.89588928222656 31.7705192565918 59.38848876953125 34.63689804077148 C 57.91341781616211 37.44179916381836 55.79206085205078 39.96871948242188 53.08333969116211 42.1474494934082 C 50.34254837036133 44.35197830200195 47.14348983764648 46.08538055419922 43.57501983642578 47.29948806762695 C 39.85876846313477 48.56388854980469 35.90721893310547 49.20499038696289 31.83013916015625 49.20499038696289 L 31.83011817932129 49.20499038696289 Z" stroke="none"/>
        <path d="M 31.83007621765137 -7.62939453125e-06 L 31.83007621765137 3.999992370605469 C 28.10188674926758 3.999992370605469 24.37010955810547 4.586204528808594 21.03795623779297 5.6953125 C 18.28047561645508 6.612968444824219 15.67373275756836 7.891487121582031 13.49912261962891 9.392959594726563 C 10.47300338745117 11.48174667358398 8.105876922607422 13.96039199829102 6.463462829589844 16.76007461547852 C 4.828826904296875 19.54651069641113 3.999992370605469 22.52152252197266 3.999992370605469 25.60246276855469 C 3.999992370605469 31.20559310913086 6.78070068359375 36.52803039550781 11.82987594604492 40.58930969238281 C 14.38800430297852 42.64694595336914 17.38201522827148 44.26755905151367 20.728759765625 45.40615844726563 C 24.23720550537109 46.59976959228516 27.97226333618164 47.20498275756836 31.83018112182617 47.20498275756836 C 35.68767547607422 47.20498275756836 39.42247772216797 46.59974670410156 42.93083953857422 45.40607452392578 C 46.27754592895508 44.26741790771484 49.27159118652344 42.64672088623047 51.82984161376953 40.58901596069336 C 56.87932205200195 36.52750015258789 59.66019439697266 31.20519256591797 59.66019439697266 25.6025218963623 C 59.66019439697266 19.99939346313477 56.87948608398438 14.67695617675781 51.830322265625 10.61566543579102 C 49.27219390869141 8.558040618896484 46.27818298339844 6.937416076660156 42.93144989013672 5.798828125 C 39.42301940917969 4.605216979980469 35.68796920776367 3.999992370605469 31.83007621765137 3.999992370605469 L 31.83007621765137 -7.62939453125e-06 M 31.83007621765137 -7.62939453125e-06 C 49.40934753417969 1.52587890625e-05 63.66018295288086 11.46265029907227 63.66019439697266 25.6025218963623 C 63.66020584106445 39.74153137207031 49.40796661376953 51.20498275756836 31.83017730712891 51.20498275756836 C 31.82910346984863 51.20498275756836 31.83119583129883 51.20498275756836 31.83012199401855 51.20498275756836 C 14.25083923339844 51.20497131347656 3.814697265625e-06 39.74233245849609 -7.62939453125e-06 25.60246276855469 C -7.62939453125e-06 17.84142684936523 4.293262481689453 10.88695907592773 11.22685241699219 6.101028442382813 C 13.67591094970703 4.410076141357422 16.59391021728516 2.95855712890625 19.77489852905273 1.899959564208984 C 23.41581726074219 0.6880760192871094 27.52304077148438 -7.62939453125e-06 31.83007621765137 -7.62939453125e-06 Z" stroke="none" fill="#00295d"/>
      </g>
      <path id="Path_1059-3" data-name="Path 1059" d="M0,9.011C4.325,11.715,25.411,15.86,36.766,0" transform="translate(18.265 24.278)" fill="none" stroke="#00295d" stroke-linecap="round" stroke-width="4"/>
      <path id="Path_1060-3" data-name="Path 1060" d="M0,9.819s3.058-1.65,2.718,1.99,6.788.26,6.788-2.447S10.7,5.589,8.335,6.075,5.927,4.926,6.112,3.787s-.7-1.773-.461-3.121C6.307-3.025,0,9.819,0,9.819Z" transform="translate(26.241 46.723) rotate(73)" fill="#fff"/>
    </g>
  </g>
</svg>
