<svg xmlns="http://www.w3.org/2000/svg" width="102.398" height="102.399" viewBox="0 0 102.398 102.399">
  <path id="_3" data-name="3" d="M96.479,27.254a3.842,3.842,0,0,1-5.257-1.381,56.44,56.44,0,0,0-6.723-9.26l-.05-.057c-.28-.324-.643-.721-.76-.832-.049-.046-.1-.1-.146-.145-.112-.118-.509-.48-.833-.76l-.056-.05a55.884,55.884,0,0,0-9.989-7.081A3.843,3.843,0,0,1,76.449,1,63.516,63.516,0,0,1,87.763,9.026c.231.2.861.753,1.288,1.19s.989,1.056,1.19,1.288A64.147,64.147,0,0,1,97.86,22a3.842,3.842,0,0,1-1.381,5.257Zm-18.548,30.8a3.843,3.843,0,0,1-2.508,3.812c-.215.08-21.6,7.964-24.442,9.082a3.844,3.844,0,0,1-4.02-.76l-1.345-1.249c-.043-.041-.086-.082-.127-.124L31.884,54.957a34.459,34.459,0,0,1-2.47,3.282L13.372,77.148l-.025.029a5.789,5.789,0,0,0,.144,7.752,5.788,5.788,0,0,0,7.751.143l.029-.025L33.447,74.719A3.843,3.843,0,1,1,38.42,80.58L26.258,90.9A13.457,13.457,0,0,1,11.515,92.8L6.56,97.758a3.843,3.843,0,0,1-5.434-5.435l4.81-4.811A13.458,13.458,0,0,1,7.523,72.163l16.03-18.9a23.688,23.688,0,0,0,3.841-6.115c1.327-3.169,9.089-23.96,9.167-24.17a3.844,3.844,0,0,1,3.806-2.494c.581.032,14.35.877,25.281,10.677.181.157.552.484.835.773s.616.655.773.835c9.8,10.931,10.645,24.7,10.675,25.28Zm-8.049-2.337a37.077,37.077,0,0,0-8.37-17.834l-.05-.057c-.122-.14-.291-.328-.355-.392-.041-.04-.082-.08-.121-.122-.065-.064-.252-.233-.393-.355l-.056-.05a36.818,36.818,0,0,0-17.844-8.382c-1.789,4.779-5.357,14.293-7.225,19.11l15,15.282c4.708-1.768,14.515-5.393,19.41-7.2Zm8.524-33.9c-.173-.2-.637-.728-1.016-1.1s-.9-.841-1.1-1.015a53,53,0,0,0-6.145-4.737,3.843,3.843,0,1,0-4.239,6.412,45.189,45.189,0,0,1,5.275,4.068l.056.05c.247.213.555.493.643.585.047.05.092.095.143.142.094.091.374.4.587.646l.05.057a45.873,45.873,0,0,1,5.085,6.881,3.843,3.843,0,1,0,6.575-3.982,53.647,53.647,0,0,0-5.918-8.008Zm0,0" transform="translate(2 1.516)" fill="#00295d" stroke="#fff" stroke-width="4"/>
</svg>
