<svg xmlns="http://www.w3.org/2000/svg" width="133.831" height="110.465" viewBox="0 0 133.831 110.465">
  <path id="_4" data-name="4" d="M117.09,82.482H84.928V76.743H97.465a11.575,11.575,0,0,0,0-23.15H89.383L72.1,29.873l0,0a16.916,16.916,0,0,0-3.843-4.111,14.687,14.687,0,1,0-20.342,0,16.781,16.781,0,0,0-6.629,13.358V82.482H30.039a11.71,11.71,0,0,0-2.912.366,13.693,13.693,0,1,0-8.168,15.258,11.76,11.76,0,0,0,11.079,7.86H117.09a11.742,11.742,0,1,0,0-23.484ZM97.465,61.142a4.026,4.026,0,0,1,0,8.053H77.379V82.482H68.861V64.57a3.432,3.432,0,0,1,3.427-3.428ZM80,53.593H71.911l-9.72-13.615-6.145,4.386,8.725,12.219a10.943,10.943,0,0,0-3.431,7.246H48.833V39.123a9.248,9.248,0,0,1,16.8-5.334ZM58.083,8.049a7.137,7.137,0,1,1-7.137,7.138,7.145,7.145,0,0,1,7.137-7.138ZM13.69,91.613a6.142,6.142,0,1,1,6.142-6.141A6.148,6.148,0,0,1,13.69,91.613Zm46.285,6.8H30.039a4.193,4.193,0,0,1,0-8.386H59.975ZM48.833,82.482v-11.1h12.48v11.1Zm68.257,15.935H67.524V90.031h49.566a4.193,4.193,0,1,1,0,8.386Zm0,0" transform="translate(2.5 1.999)" fill="#00295d" stroke="#fff" stroke-width="5"/>
</svg>
