<svg id="_6" data-name="6" xmlns="http://www.w3.org/2000/svg" width="83.948" height="83.966" viewBox="0 0 83.948 83.966">
  <path id="Shape" d="M3.061,53.327a10.165,10.165,0,0,0,1.451.84c.606.311,1.62.828,1.69,1.191a2.42,2.42,0,0,1-.164,1.415c-.209.448-.428.833-.616,1.166-.514.905-1.371,2.421-.077,3.477.3.28.824.684,1.3,1.05a3.524,3.524,0,0,0-.456,2.019,2.02,2.02,0,0,0,.83,1.377c.311.218.642.41.97.595.827.472,1.15.691,1.259,1.129a3.85,3.85,0,0,1-.14,1.679c-.081.375-.162.75-.209,1.12a8.335,8.335,0,0,0,.459,3.77,5.239,5.239,0,0,0,4.948,3.813,5.552,5.552,0,0,0,1.149-.122,105.633,105.633,0,0,0,11.8-3.529c3.151,1.849,5.144,7.476,5.663,9.586a1.4,1.4,0,0,0,1.359,1.062l35.125-.1a1.4,1.4,0,0,0,1.332-1.819,10.8,10.8,0,0,0-1.418-2.659,13.419,13.419,0,0,1-.907-1.514,26.7,26.7,0,0,1-1.58-3.984,46.97,46.97,0,0,1-1.654-8.275,22.883,22.883,0,0,1-.077-4.058c.091,0,.178.014.269.014a19.592,19.592,0,0,0,10.982-35.8A38.91,38.91,0,0,0,75.279,21.4,23.318,23.318,0,0,0,66.916,9.361,40.676,40.676,0,0,0,55.258,2.736a1.188,1.188,0,0,0-.122-.031A19.451,19.451,0,0,0,47.181,1c-.28,0-.55.031-.827.042-.02,0-.035-.013-.055-.013-1.143-.048-2.219-.041-3.293.014A93.15,93.15,0,0,0,29.472,2.988c-6.308,1.259-10.9,3.469-14.026,6.779a26.834,26.834,0,0,0-5.613,9.158,37.7,37.7,0,0,0-1.24,4.467l-.14.589a18,18,0,0,1-1.2,3.189c-.28.637-.568,1.273-.821,1.937a4.719,4.719,0,0,0-.367,2.338A5.346,5.346,0,0,0,8.1,34.572c.684.628,1.134,1.071,1.139,1.455a2.44,2.44,0,0,1-.238.609A54.079,54.079,0,0,1,2.879,46.59C1.866,47.824.805,49.263,1.028,50.7A4.3,4.3,0,0,0,3.061,53.327Zm79.1-10.344A16.811,16.811,0,0,1,65.373,59.775c-.476,0-.943-.032-1.409-.071h-.022A16.635,16.635,0,0,1,48.86,40.1a19.386,19.386,0,0,0,5.33-1.231,4.2,4.2,0,1,0,6.132-3.778,19.6,19.6,0,0,0,5.621-8.865A16.8,16.8,0,0,1,82.166,42.982ZM47.181,3.8A16.793,16.793,0,1,1,30.388,20.592,16.793,16.793,0,0,1,47.181,3.8ZM59.775,38.784a1.4,1.4,0,1,1-1.4-1.4A1.4,1.4,0,0,1,59.775,38.784ZM72.591,22.162c.259.912.477,1.886.669,2.9a19.467,19.467,0,0,0-6.717-1.612,19.019,19.019,0,0,0-2.471-12.734c.374.28.749.56,1.12.851A20.305,20.305,0,0,1,72.591,22.162ZM5.093,48.3a56.436,56.436,0,0,0,6.4-10.4,4.147,4.147,0,0,0,.54-1.889,4.888,4.888,0,0,0-2.045-3.5c-.56-.519-1.1-1.009-1.161-1.462a2.61,2.61,0,0,1,.217-.96c.228-.6.491-1.187.756-1.774a20.46,20.46,0,0,0,1.37-3.692l.14-.595a35.029,35.029,0,0,1,1.146-4.135,24.009,24.009,0,0,1,5.021-8.2c2.678-2.835,6.891-4.838,12.544-5.961,1.8-.367,3.762-.74,5.789-1.065a19.555,19.555,0,0,0,10.2,35.459,19.878,19.878,0,0,0-.232,2.858,19.6,19.6,0,0,0,16.5,19.323,25.557,25.557,0,0,0,.122,4.649,49.711,49.711,0,0,0,1.76,8.774A29.224,29.224,0,0,0,65.9,80.11a15.338,15.338,0,0,0,1.086,1.829l.092.14-31.741.087a22.31,22.31,0,0,0-4.926-8.937l1.314-.459c.912-.318,1.6-.56,1.959-.673,6-1.893,8.994-4.618,8.913-8.116a1.4,1.4,0,1,0-2.8.066c.034,1.44-1.146,3.54-6.966,5.379-.374.12-1.083.368-2.026.7-1.048.367-2.389.84-3.872,1.339A108.748,108.748,0,0,1,14.9,75.1a2.488,2.488,0,0,1-2.888-1.865,5.586,5.586,0,0,1-.329-2.5c.038-.294.1-.586.168-.879a6.127,6.127,0,0,0,.12-2.978,4.645,4.645,0,0,0-2.589-2.86c-.1-.055-.195-.111-.291-.167a5.235,5.235,0,0,1,.54-.866A1.4,1.4,0,0,0,9.361,61c-.336-.248-1.128-.84-1.707-1.307.067-.122.14-.256.21-.376.22-.386.472-.84.715-1.352a5.235,5.235,0,0,0,.374-3.132c-.336-1.709-1.972-2.545-3.167-3.156a7.841,7.841,0,0,1-1.153-.67,5.944,5.944,0,0,1-.84-.679C3.8,50.119,4.026,49.6,5.093,48.3Z" transform="translate(-0.998 -0.998)" fill="#00295d"/>
  <path id="Shape-2" data-name="Shape" d="M11.274,24.588a1.4,1.4,0,0,0,1.679-1.044l.14-.612a31.255,31.255,0,0,1,.936-3.452,18.451,18.451,0,0,1,3.84-6.3,14.634,14.634,0,0,1,6.451-3.542A1.4,1.4,0,0,0,23.5,6.963a17.343,17.343,0,0,0-7.669,4.3,21.231,21.231,0,0,0-4.428,7.254A33.115,33.115,0,0,0,10.371,22.3l-.14.606A1.4,1.4,0,0,0,11.274,24.588Z" transform="translate(2.676 1.359)" fill="#00295d"/>
  <ellipse id="Oval" cx="1.399" cy="1.399" rx="1.399" ry="1.399" transform="translate(11.198 27.99)" fill="#00295d"/>
  <path id="Shape-3" data-name="Shape" d="M30.2,17.4A4.2,4.2,0,1,0,26,13.2,4.2,4.2,0,0,0,30.2,17.4Zm0-5.6a1.4,1.4,0,1,1-1.4,1.4A1.4,1.4,0,0,1,30.2,11.8Z" transform="translate(8.988 2.197)" fill="#00295d"/>
  <path id="Shape-4" data-name="Shape" d="M40.2,17.4A4.2,4.2,0,1,0,36,13.2,4.2,4.2,0,0,0,40.2,17.4Zm0-5.6a1.4,1.4,0,1,1-1.4,1.4A1.4,1.4,0,0,1,40.2,11.8Z" transform="translate(12.982 2.197)" fill="#00295d"/>
  <path id="Shape-5" data-name="Shape" d="M30.8,18.4a1.4,1.4,0,1,0-2.8,0,8.4,8.4,0,1,0,16.793,0,1.4,1.4,0,1,0-2.8,0,5.6,5.6,0,1,1-11.2,0Z" transform="translate(9.787 5.393)" fill="#00295d"/>
  <path id="Shape-6" data-name="Shape" d="M53.2,33.4A4.2,4.2,0,1,0,49,29.2,4.2,4.2,0,0,0,53.2,33.4Zm0-5.6a1.4,1.4,0,1,1-1.4,1.4A1.4,1.4,0,0,1,53.2,27.8Z" transform="translate(18.174 8.588)" fill="#00295d"/>
  <path id="Shape-7" data-name="Shape" d="M49.4,33A8.4,8.4,0,0,0,41,41.4a1.4,1.4,0,1,0,2.8,0,5.6,5.6,0,1,1,11.2,0,1.4,1.4,0,0,0,2.8,0A8.4,8.4,0,0,0,49.4,33Z" transform="translate(14.979 11.783)" fill="#00295d"/>
</svg>
