<svg xmlns="http://www.w3.org/2000/svg" width="116.57" height="113.788" viewBox="0 0 116.57 113.788">
  <g id="_9" data-name="9" transform="translate(0.5 0.5)">
    <g id="Group_237" data-name="Group 237">
      <g id="Group_236" data-name="Group 236">
        <path id="Path_1106" data-name="Path 1106" d="M100.952,37.976h-.074a14.519,14.519,0,0,0-4.307.667C91.929,24.124,81.024,12.2,68.277,7.919A33.084,33.084,0,0,0,57.553,6.166C48.572,6.21,39.909,9.934,32.5,16.935a51.681,51.681,0,0,0-13.641,22.1,14.622,14.622,0,1,0-4.168,28.616,14.664,14.664,0,0,0,4.5-.735A41.032,41.032,0,0,0,33.134,85.667c-.976.783-1.918,1.607-2.812,2.473a40.326,40.326,0,0,0-9.6,14.607,2.089,2.089,0,1,0,3.908,1.475A35.843,35.843,0,0,1,36.787,88.118c.514.3,1.056.61,1.649.928a2.089,2.089,0,0,0,1.971-3.683c-.674-.361-1.274-.7-1.833-1.044A36.893,36.893,0,0,1,22.463,63.508a2.089,2.089,0,0,0-2.975-1.242,10.322,10.322,0,0,1-4.816,1.2H14.62A10.443,10.443,0,1,1,19.3,43.692a2.089,2.089,0,0,0,2.96-1.343C26.262,26.9,40,10.43,57.574,10.343a28.821,28.821,0,0,1,9.373,1.537C79.062,15.951,89.369,27.772,93.2,42a2.089,2.089,0,0,0,2.973,1.313,10.328,10.328,0,0,1,4.721-1.155h.053A10.443,10.443,0,0,1,101,63.04a10.3,10.3,0,0,1-4.827-1.156,2.089,2.089,0,0,0-2.962,1.272A37.149,37.149,0,0,1,75.174,85.364a2.089,2.089,0,1,0,1.972,3.682q.831-.445,1.638-.927a35.849,35.849,0,0,1,12.154,16.105,2.089,2.089,0,1,0,3.908-1.475,40.328,40.328,0,0,0-9.6-14.607c-.9-.868-1.84-1.693-2.817-2.477a41.424,41.424,0,0,0,14.08-19.137,14.416,14.416,0,0,0,4.511.691,14.621,14.621,0,0,0-.071-29.242Z" transform="translate(0 -6.165)" fill="#00295d" stroke="#fff" stroke-linecap="round" stroke-linejoin="round" stroke-width="1"/>
      </g>
    </g>
    <g id="Group_239" data-name="Group 239" transform="translate(55.697 55.135)">
      <g id="Group_238" data-name="Group 238">
        <ellipse id="Ellipse_110" data-name="Ellipse 110" cx="2.089" cy="2.089" rx="2.089" ry="2.089" stroke-width="1" stroke="#fff" stroke-linecap="round" stroke-linejoin="round" fill="#00295d"/>
      </g>
    </g>
    <g id="Group_241" data-name="Group 241" transform="translate(45.393 60.709)">
      <g id="Group_240" data-name="Group 240">
        <path id="Path_1107" data-name="Path 1107" d="M224.073,276.713h-.479a2.088,2.088,0,0,0-4.116.494v.037l-.081.081a8.3,8.3,0,0,1-3.818,2.184v-2.3a2.089,2.089,0,1,0-4.177,0v2.3a8.288,8.288,0,0,1-3.62-2v-.306a2.087,2.087,0,0,0-4.116-.495h-.479a2.089,2.089,0,1,0,0,4.177h.418v.5a2.088,2.088,0,0,0,3.9,1.044,12.392,12.392,0,0,0,3.91,1.346,2.086,2.086,0,0,0,4.161,0,12.385,12.385,0,0,0,4.124-1.467,2.087,2.087,0,0,0,3.96-.923v-.494h.418a2.089,2.089,0,1,0,0-4.177Z" transform="translate(-201.098 -275.118)" fill="#00295d" stroke="#fff" stroke-linecap="round" stroke-linejoin="round" stroke-width="1"/>
      </g>
    </g>
    <g id="Group_243" data-name="Group 243" transform="translate(25.158 8.354)">
      <g id="Group_242" data-name="Group 242">
        <path id="Path_1108" data-name="Path 1108" d="M176.578,77.551a43.583,43.583,0,0,0-9.738-22.421c-6.439-7.709-14.521-11.955-22.76-11.955s-16.321,4.246-22.76,11.955a43.581,43.581,0,0,0-9.738,22.422,20.609,20.609,0,0,0,.371,6.813l1.85,8.29a4.721,4.721,0,0,0,4.651,3.71h.006a9.623,9.623,0,0,1,9.608,9.63,6.258,6.258,0,0,0,3.927,5.879,32.384,32.384,0,0,0,8.987,2.17,2.089,2.089,0,0,0,1.01,1.441v1.8a50.666,50.666,0,0,0-8.167.826,11.3,11.3,0,0,0-4.546,1.7,2.089,2.089,0,0,0-2.767-.355A31.749,31.749,0,0,0,115.564,132.6a2.787,2.787,0,1,0,3.859,1.6,27.413,27.413,0,0,1,8.9-10.907c.926,1.942,4.189,2.693,7.09,3.129a2.089,2.089,0,1,0,.621-4.131c-.354-.053-.679-.107-.978-.162a47.65,47.65,0,0,1,6.934-.665v.807a2.086,2.086,0,0,0,0,3.614v.591a50.666,50.666,0,0,0-8.167.826c-2.68.536-5.757,1.477-5.757,4.017,0,2.827,3.927,3.779,7.348,4.293a2.089,2.089,0,0,0,.621-4.131c-.354-.053-.679-.107-.978-.162a47.649,47.649,0,0,1,6.934-.665v.807a2.086,2.086,0,0,0,0,3.614v.591a50.665,50.665,0,0,0-8.167.826c-2.68.536-5.758,1.477-5.758,4.017,0,2.827,3.927,3.779,7.348,4.293a2.089,2.089,0,0,0,.621-4.131c-.354-.053-.679-.107-.978-.162a47.652,47.652,0,0,1,6.934-.665v.807a2.086,2.086,0,0,0,0,3.614v1.256a2.089,2.089,0,1,0,4.177,0v-1.256a2.086,2.086,0,0,0,0-3.614v-.807a47.716,47.716,0,0,1,6.934.665c-.3.055-.624.109-.978.162a2.089,2.089,0,1,0,.621,4.131c3.421-.514,7.348-1.467,7.348-4.293,0-2.54-3.077-3.481-5.757-4.017a50.691,50.691,0,0,0-8.167-.826v-.591a2.086,2.086,0,0,0,0-3.614v-.807a47.717,47.717,0,0,1,6.934.665c-.3.055-.624.109-.978.162a2.089,2.089,0,1,0,.621,4.131c3.421-.514,7.348-1.467,7.348-4.293,0-2.54-3.077-3.481-5.757-4.017a50.692,50.692,0,0,0-8.167-.826v-.591a2.086,2.086,0,0,0,0-3.614v-.807a47.715,47.715,0,0,1,6.934.665c-.3.055-.624.109-.978.162a2.089,2.089,0,1,0,.621,4.131c2.9-.436,6.164-1.188,7.09-3.129a27.415,27.415,0,0,1,8.9,10.907,2.784,2.784,0,1,0,3.859-1.6,31.749,31.749,0,0,0-10.948-13.145,2.089,2.089,0,0,0-2.767.355,11.3,11.3,0,0,0-4.546-1.7,50.692,50.692,0,0,0-8.167-.826v-1.8a2.088,2.088,0,0,0,1.01-1.441,32.38,32.38,0,0,0,8.987-2.17,6.266,6.266,0,0,0,3.927-5.9,9.623,9.623,0,0,1,9.627-9.608h0a4.716,4.716,0,0,0,4.63-3.71l1.851-8.288A20.624,20.624,0,0,0,176.578,77.551Zm-4.448,5.907-1.851,8.288a.571.571,0,0,1-.577.443h0a13.8,13.8,0,0,0-13.785,13.785v.032a2.1,2.1,0,0,1-1.3,1.989,28.53,28.53,0,0,1-21.076,0,2.1,2.1,0,0,1-1.3-1.989v-.032A13.806,13.806,0,0,0,118.434,92.19h0a.563.563,0,0,1-.553-.443l-1.849-8.29c-.043-.192-.081-.384-.116-.577a2.088,2.088,0,0,0,3.8-1.2,10.443,10.443,0,1,1,10.443,10.443,2.089,2.089,0,0,0,0,4.177,14.645,14.645,0,0,0,13.924-10.166A14.645,14.645,0,0,0,158.005,96.3a2.089,2.089,0,1,0,0-4.177,10.443,10.443,0,1,1,10.443-10.443,2.088,2.088,0,0,0,3.8,1.2C172.21,83.074,172.173,83.266,172.13,83.458ZM158,67.063A14.645,14.645,0,0,0,144.08,77.229a14.618,14.618,0,0,0-28.448,2.8,16.318,16.318,0,0,1,.1-2,39.305,39.305,0,0,1,8.794-20.213c5.631-6.742,12.575-10.455,19.553-10.455S158,51.067,163.634,57.809a39.3,39.3,0,0,1,8.794,20.211,16.276,16.276,0,0,1,.1,2A14.64,14.64,0,0,0,158,67.063Z" transform="translate(-111.453 -43.176)" fill="#00295d" stroke="#fff" stroke-linecap="round" stroke-linejoin="round" stroke-width="1"/>
      </g>
    </g>
  </g>
</svg>
