<svg xmlns="http://www.w3.org/2000/svg" xmlns:xlink="http://www.w3.org/1999/xlink" width="1920" height="1070" viewBox="0 0 1920 1070">
  <defs>
    <clipPath id="clip-Web_1920_7">
      <rect width="1920" height="1070"/>
    </clipPath>
  </defs>
  <g id="Web_1920_7" data-name="Web 1920 – 7" clip-path="url(#clip-Web_1920_7)">
    <rect width="1920" height="1070" fill="rgba(255,255,255,0)"/>
    <path id="Path_614" data-name="Path 614" d="M21497.428,5030.789s3.623-26.509,31.086-15.066c5.529-15.448,37.951-35.471,63.885,1.525,12.205-13.158,31.275-3.624,35.281,13.541Z" transform="translate(-21436.129 -4260.313)" fill="#0dd9ed" opacity="0.13"/>
    <path id="Path_615" data-name="Path 615" d="M21497.428,5030.789s3.623-26.509,31.086-15.066c5.529-15.448,37.951-35.471,63.885,1.525,12.205-13.158,31.275-3.624,35.281,13.541Z" transform="translate(-19652.598 -4178.445)" fill="#0dd9ed" opacity="0.13"/>
    <path id="Path_613" data-name="Path 613" d="M21497.428,5015.985s2.07-15.149,17.766-8.611c3.158-8.827,21.684-20.271,36.508.873,6.979-7.52,17.877-2.071,20.164,7.738Z" transform="translate(-21028.582 -4777.129)" fill="#0dd9ed" opacity="0.13"/>
    <path id="Path_611" data-name="Path 611" d="M21497.428,5051.188s5.768-42.163,49.443-23.963c8.795-24.569,60.361-56.418,101.613,2.427,19.412-20.929,49.746-5.764,56.117,21.536Z" transform="translate(-21547.361 -4721.096)" fill="#0dd9ed" opacity="0.13"/>
    <path id="Path_951" data-name="Path 951" d="M21497.428,5021.73s2.676-19.557,22.936-11.115c4.078-11.4,28-26.17,47.133,1.125,9-9.708,23.074-2.673,26.031,9.99Z" transform="translate(-20809.824 -4354.367)" fill="#0dd9ed" opacity="0.13"/>
    <ellipse id="Ellipse_13" data-name="Ellipse 13" cx="8.122" cy="1.115" rx="8.122" ry="1.115" transform="translate(972.78 813.31)" fill="#6c63ff" opacity="0.1"/>
    <path id="Path_610" data-name="Path 610" d="M21497.43,5025.8s3.1-22.681,26.6-12.89c4.727-13.216,32.465-30.349,54.656,1.306,10.441-11.259,26.758-3.1,30.184,11.584Z" transform="translate(-20537.08 -4909.131)" fill="#0dd9ed" opacity="0.13"/>
  </g>
</svg>
