<svg id="Group_182" data-name="Group 182" xmlns="http://www.w3.org/2000/svg" xmlns:xlink="http://www.w3.org/1999/xlink" width="857.013" height="544.553" viewBox="0 0 857.013 544.553">
  <defs>
    <linearGradient id="linear-gradient" x1="0.5" x2="0.5" y2="0.901" gradientUnits="objectBoundingBox">
      <stop offset="0" stop-color="#fff" stop-opacity="0"/>
      <stop offset="1" stop-color="#fff"/>
    </linearGradient>
  </defs>
  <g id="Group_57" data-name="Group 57" transform="translate(16.061 0)">
    <path id="Path_367" data-name="Path 367" d="M82.975,547.529h76.561V651.881H88.58c-.189,1.072-.37,2.15-.566,3.229h71.522v84.158c-.128-.038-.241-.083-.362-.128-2.022-.8-4.028-1.645-6.035-2.55l-1.282-.581q-3.017-1.426-6.035-3.018c-.7-.369-1.4-.754-2.1-1.147a125.548,125.548,0,0,1-30.084-23.506c-.257-.249-.5-.513-.754-.754-1.222-1.328-2.421-2.671-3.583-4.043l-1.282-1.509c-1.373-1.682-2.7-3.41-3.991-5.16-.189-.257-.37-.513-.566-.754a112.307,112.307,0,0,1-12.975-23.461c-.106-.249-.2-.52-.294-.754q-1.554-4-2.753-8.072c-.347-1.139-.679-2.263-.966-3.447-.106-.347-.2-.687-.279-1.026-4.285-16.724-4.79-34.1-4.79-51.35v-6.035c0-6.978.083-14,.2-21.017,0-1.818.075-3.628.113-5.454q.158-6.948.453-13.9c.045-1.29.106-2.573.174-3.855a21.836,21.836,0,0,1,.113-2.218C82.643,552.847,82.794,550.185,82.975,547.529Z" transform="translate(-81.406 -292.396)" fill="#0dd9ed" opacity="0.1"/>
    <path id="Path_380" data-name="Path 380" d="M189.492,291.017h-42a318.367,318.367,0,0,1,22.337-30.748c6.238-7.664,12.824-15.133,19.659-22.329Z" transform="translate(-111.361 -152.071)" fill="#0dd9ed" opacity="0.1"/>
    <path id="Path_368" data-name="Path 368" d="M161.037,340.924V450.655H84.717c0-.317.053-.641.075-.958.068-.868.136-1.735.211-2.595.083-1.011.173-2.029.272-3.018s.2-2.2.317-3.289.219-2.2.347-3.3.241-2.188.377-3.274.256-2.188.4-3.274c.113-.905.234-1.8.355-2.708.173-1.275.355-2.557.551-3.825a3.534,3.534,0,0,1,.083-.566,260.936,260.936,0,0,1,5.62-27.549,203.749,203.749,0,0,1,9.467-27.912,209.535,209.535,0,0,1,14.243-27.429Z" transform="translate(-82.906 -198.751)" fill="#0dd9ed" opacity="0.1"/>
    <path id="Path_266" data-name="Path 266" d="M257.739,336.013v104.36H421.264V336.013Zm0,107.581v89.619c.935.2,1.863.385,2.784.543,1.252.241,2.5.46,3.772.649.241.038.491.075.754.1.5.083,1.011.151,1.509.219,1.26.174,2.512.317,3.772.43.6.06,1.2.113,1.8.158l1.456.113h0c.792.06,1.577.106,2.354.128.483,0,.966.045,1.464.06h5.378c.649,0,1.3,0,1.939-.06h.045a10.188,10.188,0,0,0,1.35-.06,3.212,3.212,0,0,0,.377,0,7.8,7.8,0,0,0,1.117-.053h.264l2.527-.2c.83-.075,1.667-.173,2.512-.264l1.72-.2a150.461,150.461,0,0,0,20.707-4.406c15.253-4.254,30.175-10.207,45.421-14.567,19.712-5.62,41.49-8.381,60.538-1.509v-70.7ZM421.264,219.832V80.9a210.219,210.219,0,0,0-53.13,6.231c-41.408,10.4-78.561,32.966-110.4,61.783v70.911h8.207v3.221h-8.207V332.792H421.264V223.053H299.644v-3.221ZM631.3,172.9c-10.244-.362-20.428-3.606-29.64-8.615-17.614-9.58-31.684-24.374-47.4-36.859-32.664-26-73.174-41.694-114.733-45.587v137.99H672.969l.581-.611Zm21.266-3.772,22.548,24.743V162.643c-7.551.935-14.167,3.161-22.518,6.457Zm22.548,386.337V443.594H627.072c-.128-.475-.256-.958-.407-1.441.143.483.264.966.4,1.441H439.558V524.5c1.78,1.32,3.538,2.708,5.28,4.119h0c1.879,1.509,3.734,3.1,5.6,4.662l1.878,1.554c.9.755,1.8,1.509,2.716,2.218q2.715,2.2,5.484,4.345c.913.754,1.848,1.433,2.776,2.142a378.057,378.057,0,0,0,46.492,30.409q5.454,3.017,11.006,5.892c2.467,1.26,4.949,2.512,7.438,3.727q5.612,2.738,11.316,5.281h0a415.546,415.546,0,0,0,110.138,32.084q12.666,1.871,25.43,2.942V555.46h.754ZM439.558,223.053V332.792H675.149V223.053Zm0,112.96v104.36H675.149V336.013ZM693.435,162.507v34.837l28.779-31.578q-14.3-2.308-28.779-3.3Zm0,173.544V440.373H922.576V336.013Zm228.3,227.7.807-120.157H693.435v181.48a410.958,410.958,0,0,0,44.282-.528h.256q10.561-.664,21.024-1.931h.158A387.172,387.172,0,0,0,867.182,593.79M966.759,353.2c-.86-2.029-1.757-4.043-2.67-6.035-1.705-3.772-3.508-7.438-5.363-11.1H940.847V440.373h45.2c-.022-29.541-7.5-59.716-19.266-87.213Zm-25.913,90.434V546.981a148.046,148.046,0,0,0,31.239-42.132c9.317-19.222,13.579-40.035,13.926-61.233Zm0-137.99V332.8h16.2a294.123,294.123,0,0,0-16.181-27.2Zm-155.4-122.661c-1.192-.453-2.384-.913-3.583-1.358a327.093,327.093,0,0,0-38.707-11.632l-44.04,48.333h0l-.845.9.566.619H855.58a335.265,335.265,0,0,0-70.112-36.9Zm74.728,40.11H696.648l-3.214,2.942V332.792H922.606V281.079A326.486,326.486,0,0,0,860.2,223.053Z" transform="translate(-161.331 -80.886)" fill="#0dd9ed" opacity="0.1"/>
    <path id="Path_369" data-name="Path 369" d="M161.037,442.157V496.54H84.717c0-.317.053-.641.075-.958.068-.867.136-1.735.211-2.595.083-1.011.173-2.029.272-3.018s.2-2.2.317-3.289.219-2.2.347-3.3.241-2.188.377-3.274.256-2.188.4-3.274c.113-.905.234-1.8.355-2.708.173-1.275.355-2.557.551-3.825a3.528,3.528,0,0,1,.083-.566,260.925,260.925,0,0,1,5.62-27.55Z" transform="translate(-82.906 -244.635)" fill="#0dd9ed" opacity="0.1"/>
    <path id="Path_370" data-name="Path 370" d="M82.975,547.529h76.561V651.881H88.58c-.189,1.072-.37,2.15-.566,3.229h71.522v84.158c-.128-.038-.241-.083-.362-.128-2.022-.8-4.028-1.645-6.035-2.55l-1.282-.581q-3.017-1.426-6.035-3.018c-.7-.369-1.4-.754-2.1-1.147a125.548,125.548,0,0,1-30.084-23.506c-.257-.249-.5-.513-.754-.754-1.222-1.328-2.421-2.671-3.583-4.043l-1.282-1.509c-1.373-1.682-2.7-3.41-3.991-5.16-.189-.257-.37-.513-.566-.754a112.307,112.307,0,0,1-12.975-23.461c-.106-.249-.2-.52-.294-.754q-1.554-4-2.753-8.072c-.347-1.139-.679-2.263-.966-3.447-.106-.347-.2-.687-.279-1.026-4.285-16.724-4.79-34.1-4.79-51.35v-6.035c0-6.978.083-14,.2-21.017,0-1.818.075-3.628.113-5.454q.158-6.948.453-13.9c.045-1.29.106-2.573.174-3.855a21.836,21.836,0,0,1,.113-2.218C82.643,552.847,82.794,550.185,82.975,547.529Z" transform="translate(-81.406 -292.396)" fill="#0dd9ed" opacity="0.1"/>
    <path id="Path_363" data-name="Path 363" d="M250.125,262.365v94.025H192.559V262.365h8.208V230.53h33.69v31.835Z" transform="translate(-96.151 -104.484)" fill="#0dd9ed" opacity="0.1"/>
    <rect id="Rectangle_53" data-name="Rectangle 53" width="57.559" height="104.352" transform="translate(96.416 255.126)" fill="#0dd9ed" opacity="0.1"/>
    <path id="Path_364" data-name="Path 364" d="M257.739,744.3H315.3v86.753a150.2,150.2,0,0,1-20.708,4.4l-1.72.211c-.845.1-1.682.181-2.512.265s-1.69.143-2.527.2h-.264c-.362,0-.754.045-1.109.053h-.385c-.453,0-.905.045-1.358.061h0c-.641.038-1.282.045-1.939.053h-5.341l-1.456-.053c-.754,0-1.569-.083-2.354-.136h0l-1.448-.106-1.8-.166q-1.9-.17-3.772-.43l-1.509-.211-.754-.106c-1.26-.2-2.5-.408-3.772-.648-.928-.159-1.848-.355-2.784-.544Z" transform="translate(-161.331 -381.581)" fill="#0dd9ed" opacity="0.1"/>
    <rect id="Rectangle_50" data-name="Rectangle 50" width="47.465" height="105.122" transform="translate(466.353 146.776)" fill="#0dd9ed" opacity="0.1"/>
    <path id="Path_288" data-name="Path 288" d="M760.706,466.62V570.98h-235.6V525.967H650.6v26.554h62.636v-85.9Z" transform="translate(-246.879 -211.494)" fill="#0dd9ed" opacity="0.1"/>
    <path id="Path_289" data-name="Path 289" d="M826.633,854.991h-.754v68.46q-12.749-1.08-25.423-2.935a415.563,415.563,0,0,1-110.184-32.151q-15.186-6.835-29.753-14.922a379.713,379.713,0,0,1-46.5-30.409q-5.552-4.255-10.961-8.705c-2.5-2.059-4.979-4.172-7.491-6.224-1.743-1.411-3.5-2.8-5.281-4.126V743.1h187.5c-.128-.483-.256-.966-.392-1.441.143.475.279.958.407,1.441h48.076V854.945C826.135,854.953,826.384,854.976,826.633,854.991Z" transform="translate(-312.059 -380.387)" fill="#0dd9ed" opacity="0.1"/>
    <path id="Path_381" data-name="Path 381" d="M1221.963,303.318h-30.929v-9.611H1204.9V265.079q1.8.656,3.591,1.35v27.278h13.473Z" transform="translate(-584.351 -164.373)" fill="#0dd9ed" opacity="0.1"/>
    <path id="Path_325" data-name="Path 325" d="M1234.655,450.655H1082.814l.053.038-.068-.038h-28.169V345.533h7.981v77.7h36.474V377.217h30.13V340.924h30.929v36.323h30.13v46.017h44.38Z" transform="translate(-522.526 -198.751)" fill="#0dd9ed" opacity="0.1"/>
    <path id="Path_267" data-name="Path 267" d="M1054.631,547.515v104.36h180.024V547.515Zm228.892,227.2.248-82.6h-49.117V655.15H1054.631V836.576a410.858,410.858,0,0,0,44.282-.528h.256q10.561-.664,21.025-1.931h.158a387.149,387.149,0,0,0,108.027-28.825" transform="translate(-522.526 -292.389)" fill="#0dd9ed" opacity="0.1"/>
    <path id="Path_269" data-name="Path 269" d="M1510.374,744.3h42c-.37,21.19-4.625,42-13.934,61.225a148.092,148.092,0,0,1-31.231,42.132V781.268h3.168Z" transform="translate(-727.659 -381.581)" fill="#0dd9ed" opacity="0.1"/>
    <path id="Path_284" data-name="Path 284" d="M1555.02,666.09H1513V578.877h22.737C1547.506,606.374,1554.982,636.549,1555.02,666.09Z" transform="translate(-730.285 -306.604)" fill="#0dd9ed" opacity="0.1"/>
    <rect id="Rectangle_52" data-name="Rectangle 52" width="25.43" height="32.959" transform="translate(488.397 175.999)" fill="#0dd9ed" opacity="0.1"/>
    <rect id="Rectangle_51" data-name="Rectangle 51" width="25.43" height="7.589" transform="translate(488.397 244.316)" fill="#0dd9ed" opacity="0.1"/>
    <rect id="Rectangle_44" data-name="Rectangle 44" width="25.43" height="22.141" transform="translate(488.397 255.126)" fill="#0dd9ed" opacity="0.1"/>
    <rect id="Rectangle_40" data-name="Rectangle 40" width="25.43" height="32.959" transform="translate(488.397 312.632)" fill="#0dd9ed" opacity="0.1"/>
    <rect id="Rectangle_41" data-name="Rectangle 41" width="25.43" height="32.959" transform="translate(488.397 380.948)" fill="#0dd9ed" opacity="0.1"/>
    <path id="Path_290" data-name="Path 290" d="M1000.111,927.89a4.161,4.161,0,0,1,.755.045h-.755v7.657H974.689v-33h25.422Z" transform="translate(-486.292 -453.332)" fill="#0dd9ed" opacity="0.1"/>
    <path id="Path_291" data-name="Path 291" d="M1000.111,1027.519v25.461q-12.748-1.08-25.422-2.935v-22.526Z" transform="translate(-486.292 -509.954)" fill="#0dd9ed" opacity="0.1"/>
    <rect id="Rectangle_45" data-name="Rectangle 45" width="108.984" height="2.422" transform="translate(278.228 357.064)" fill="#0dd9ed" opacity="0.1"/>
    <rect id="Rectangle_46" data-name="Rectangle 46" width="108.984" height="9.279" transform="translate(278.228 362.707)" fill="#0dd9ed" opacity="0.1"/>
    <rect id="Rectangle_47" data-name="Rectangle 47" width="108.984" height="14.922" transform="translate(278.228 402.403)" fill="#0dd9ed" opacity="0.1"/>
    <path id="Path_312" data-name="Path 312" d="M703.636,899.809v14.922H618.392q-5.552-4.24-10.969-8.706c-2.5-2.06-4.971-4.172-7.491-6.216Z" transform="translate(-316.432 -452.068)" fill="#0dd9ed" opacity="0.1"/>
    <path id="Path_313" data-name="Path 313" d="M757.488,982.7v14.906h-9q-15.171-6.841-29.745-14.929Z" transform="translate(-370.283 -489.63)" fill="#0dd9ed" opacity="0.1"/>
    <rect id="Rectangle_48" data-name="Rectangle 48" width="21.454" height="21.454" transform="translate(576.394 265.242)" fill="#0dd9ed" opacity="0.1"/>
    <rect id="Rectangle_59" data-name="Rectangle 59" width="21.454" height="21.454" transform="translate(111.866 165.28)" fill="#0dd9ed" opacity="0.1"/>
    <rect id="Rectangle_54" data-name="Rectangle 54" width="21.454" height="21.454" transform="translate(111.866 215.114)" fill="#0dd9ed" opacity="0.1"/>
    <rect id="Rectangle_55" data-name="Rectangle 55" width="21.454" height="21.454" transform="translate(111.866 264.948)" fill="#0dd9ed" opacity="0.1"/>
    <rect id="Rectangle_56" data-name="Rectangle 56" width="21.454" height="21.454" transform="translate(111.866 314.775)" fill="#0dd9ed" opacity="0.1"/>
    <rect id="Rectangle_57" data-name="Rectangle 57" width="21.454" height="21.454" transform="translate(111.866 364.608)" fill="#0dd9ed" opacity="0.1"/>
    <rect id="Rectangle_58" data-name="Rectangle 58" width="21.454" height="21.454" transform="translate(111.866 414.443)" fill="#0dd9ed" opacity="0.1"/>
    <rect id="Rectangle_49" data-name="Rectangle 49" width="21.454" height="21.454" transform="translate(658.297 265.242)" fill="#0dd9ed" opacity="0.1"/>
    <rect id="Rectangle_42" data-name="Rectangle 42" width="21.454" height="21.454" transform="translate(576.394 318.162)" fill="#0dd9ed" opacity="0.1"/>
    <rect id="Rectangle_43" data-name="Rectangle 43" width="21.454" height="21.454" transform="translate(658.297 318.162)" fill="#0dd9ed" opacity="0.1"/>
    <rect id="Rectangle_36" data-name="Rectangle 36" width="21.454" height="21.454" transform="translate(576.394 371.073)" fill="#0dd9ed" opacity="0.1"/>
    <rect id="Rectangle_37" data-name="Rectangle 37" width="21.454" height="21.454" transform="translate(658.297 371.073)" fill="#0dd9ed" opacity="0.1"/>
    <rect id="Rectangle_38" data-name="Rectangle 38" width="21.454" height="21.454" transform="translate(576.394 423.993)" fill="#0dd9ed" opacity="0.1"/>
    <rect id="Rectangle_34" data-name="Rectangle 34" width="21.454" height="21.454" transform="translate(658.297 423.993)" fill="#0dd9ed" opacity="0.1"/>
    <rect id="Rectangle_39" data-name="Rectangle 39" width="21.454" height="21.454" transform="translate(576.394 476.912)" fill="#0dd9ed" opacity="0.1"/>
    <rect id="Rectangle_35" data-name="Rectangle 35" width="21.454" height="21.454" transform="translate(658.297 476.912)" fill="#0dd9ed" opacity="0.1"/>
    <path id="Path_285" data-name="Path 285" d="M1070.457,982.88V969.045H1091.9v11.866Z" transform="translate(-494.063 -439.222)" fill="#0dd9ed" opacity="0.1"/>
    <path id="Path_371" data-name="Path 371" d="M90.015,492.573v12.273h73.423V492.573Zm7.317,11.5h-5.99v-10.75h6.035Zm7.31,0H98.608v-10.75h6.035Zm7.295,0H105.9v-10.75h6.035Zm7.31,0H113.22v-10.75h6.035Zm7.3,0h-6.035v-10.75h6.035Zm7.31,0h-6.035v-10.75h6.035Zm7.31,0h-6.035v-10.75h6.035Zm7.3,0h-6.035v-10.75h6.035Zm7.3,0h-6.035v-10.75h6.035Zm7.3,0h-6.035v-10.75h6.035Z" transform="translate(-85.308 -267.486)" fill="#0dd9ed" opacity="0.1"/>
    <path id="Path_372" data-name="Path 372" d="M90.015,557.891v12.273h73.423V557.891Zm7.317,11.5h-5.99v-10.72h6.035Zm7.31,0H98.608v-10.72h6.035Zm7.295,0H105.9v-10.72h6.035Zm7.31,0H113.22v-10.72h6.035Zm7.3,0h-6.035v-10.72h6.035Zm7.31,0h-6.035v-10.72h6.035Zm7.31,0h-6.035v-10.72h6.035Zm7.3,0h-6.035v-10.72h6.035Zm7.3,0h-6.035v-10.72h6.035Zm7.3,0h-6.035v-10.72h6.035Z" transform="translate(-85.308 -297.092)" fill="#0dd9ed" opacity="0.1"/>
    <path id="Path_373" data-name="Path 373" d="M90.015,623.237v12.3h73.423v-12.3Zm7.317,11.5h-5.99V624.006h6.035Zm7.31,0H98.608V624.006h6.035Zm7.295,0H105.9V624.006h6.035Zm7.31,0H113.22V624.006h6.035Zm7.3,0h-6.035V624.006h6.035Zm7.31,0h-6.035V624.006h6.035Zm7.31,0h-6.035V624.006h6.035Zm7.3,0h-6.035V624.006h6.035Zm7.3,0h-6.035V624.006h6.035Zm7.3,0h-6.035V624.006h6.035Z" transform="translate(-85.308 -326.71)" fill="#0dd9ed" opacity="0.1"/>
    <path id="Path_374" data-name="Path 374" d="M90.015,688.582v12.259h73.423V688.582Zm7.317,11.5h-5.99V689.344h6.035Zm7.31,0H98.608V689.344h6.035Zm7.295,0H105.9V689.344h6.035Zm7.31,0H113.22V689.344h6.035Zm7.3,0h-6.035V689.344h6.035Zm7.31,0h-6.035V689.344h6.035Zm7.31,0h-6.035V689.344h6.035Zm7.3,0h-6.035V689.344h6.035Zm7.3,0h-6.035V689.344h6.035Zm7.3,0h-6.035V689.344h6.035Z" transform="translate(-85.308 -356.328)" fill="#0dd9ed" opacity="0.1"/>
    <path id="Path_375" data-name="Path 375" d="M90.595,753.913c.294,1.154.626,2.309.973,3.448v-2.678H97.6V765.41H94.374c.1.249.2.521.294.754H163.7V753.913Zm14.333,11.5H98.893V754.683h6.035Zm7.295,0h-6.035V754.683h6.035Zm7.31,0h-6.05V754.683h6.035Zm7.3,0H120.8V754.683h6.035Zm7.31,0H128.11V754.683h6.035Zm7.31,0H135.42V754.683h6.035Zm7.3,0h-6.035V754.683h6.035Zm7.3,0h-6.035V754.683h6.035Zm7.3,0h-6.035V754.683h6.035Z" transform="translate(-85.57 -385.94)" fill="#0dd9ed" opacity="0.1"/>
    <path id="Path_376" data-name="Path 376" d="M121.777,819.259c.189.242.37.513.566.755h3.991v5.152c.43.513.852,1.026,1.29,1.509v-6.691h6.035v10.765h-2.444c.241.249.475.513.754.755h45.889V819.259Zm19.169,11.489h-6.035v-10.72h6.035Zm7.31,0h-6.035v-10.72h6.035Zm7.31,0h-6.035v-10.72h6.035Zm7.3,0h-6.035v-10.72h6.035Zm7.3,0h-6.035v-10.72h6.035Zm7.3,0h-6.035v-10.72h6.035Z" transform="translate(-99.704 -415.559)" fill="#0dd9ed" opacity="0.1"/>
    <path id="Path_377" data-name="Path 377" d="M195.443,884.59c.686.393,1.388.755,2.1,1.147v-.377h6.035v3.394l1.282.6V885.36h6.035v6.525a1.88,1.88,0,0,0,.362.135V884.59Z" transform="translate(-133.093 -445.17)" fill="#0dd9ed" opacity="0.1"/>
    <path id="Path_286" data-name="Path 286" d="M728.447,447.96ZM681.978,670.606ZM633.494,557.322c.143.483.264.965.4,1.441h0C633.773,558.287,633.645,557.8,633.494,557.322Zm94.953-109.384ZM272.806,334.978V338.2h33.7v-3.221ZM681.978,670.606ZM633.494,557.322c.143.483.264.965.4,1.441h0C633.773,558.287,633.645,557.8,633.494,557.322Zm94.953-109.384ZM681.978,670.583ZM633.494,557.322c.143.483.264.965.4,1.441h0C633.773,558.287,633.645,557.8,633.494,557.322Z" transform="translate(-168.159 -196.054)" fill="#0dd9ed" opacity="0.1"/>
    <path id="Path_305" data-name="Path 305" d="M1216.1,622.271Z" transform="translate(-595.714 -326.273)" fill="#0dd9ed"/>
    <path id="Path_306" data-name="Path 306" d="M1215.208,623.057l.226-.234Z" transform="translate(-595.308 -326.522)" fill="#0dd9ed"/>
    <path id="Path_308" data-name="Path 308" d="M1189.019,592.189h0a1.932,1.932,0,0,1,2.422,1.252l6.532,20.58-.49,3.228.476.5.649-4.307-6.571-20.579a1.931,1.931,0,0,0-2.414-1.252h0a1.928,1.928,0,0,0-1,.754A2.591,2.591,0,0,1,1189.019,592.189Z" transform="translate(-583.257 -312.334)" fill="#0dd9ed" opacity="0.1"/>
    <path id="Path_310" data-name="Path 310" d="M1203.728,637.243a.759.759,0,0,1,.234-.2.332.332,0,0,1,.355,0,.933.933,0,0,1,.128.2.648.648,0,0,0,.468.309l-.113.754Z" transform="translate(-590.105 -332.947)" fill="#0dd9ed"/>
  </g>
  <rect id="Rectangle_84" data-name="Rectangle 84" width="857.013" height="383.457" transform="translate(0 161.095)" fill="url(#linear-gradient)"/>
</svg>
