<svg id="email" xmlns="http://www.w3.org/2000/svg" width="68.151" height="52.249" viewBox="0 0 68.151 52.249">
  <g id="Group_336" data-name="Group 336" transform="translate(0 0)">
    <g id="Group_335" data-name="Group 335">
      <path id="Path_1146" data-name="Path 1146" d="M64.743,59.733H3.408A3.408,3.408,0,0,0,0,63.141v45.434a3.408,3.408,0,0,0,3.408,3.408H64.743a3.408,3.408,0,0,0,3.408-3.408V63.141A3.408,3.408,0,0,0,64.743,59.733Zm1.136,48.842a1.136,1.136,0,0,1-1.136,1.136H3.408a1.136,1.136,0,0,1-1.136-1.136V63.141A1.136,1.136,0,0,1,3.408,62H64.743a1.136,1.136,0,0,1,1.136,1.136v45.434Z" transform="translate(0 -59.733)" fill="#00295d"/>
      <path id="Path_1147" data-name="Path 1147" d="M92.16,93.869a1.135,1.135,0,0,0-.829.262l-26.2,22.013a2.272,2.272,0,0,1-2.924,0L36,94.131a1.136,1.136,0,0,0-1.461,1.74l26.2,22.012a4.538,4.538,0,0,0,5.845,0l26.2-22.011a1.136,1.136,0,0,0-.631-2Z" transform="translate(-29.59 -89.322)" fill="#00295d"/>
      <path id="Path_1148" data-name="Path 1148" d="M51.321,272.952a1.136,1.136,0,0,0-1.1.353l-15.9,17.038a1.136,1.136,0,1,0,1.661,1.549l15.9-17.038a1.136,1.136,0,0,0-.565-1.9Z" transform="translate(-29.474 -244.547)" fill="#00295d"/>
      <path id="Path_1149" data-name="Path 1149" d="M343.185,273.3a1.136,1.136,0,1,0-1.661,1.549l15.9,17.038a1.136,1.136,0,0,0,1.661-1.549Z" transform="translate(-295.785 -244.547)" fill="#00295d"/>
    </g>
  </g>
</svg>
