<svg id="first-aid-kit" xmlns="http://www.w3.org/2000/svg" width="80.349" height="75.327" viewBox="0 0 80.349 75.327">
  <g id="Group_314" data-name="Group 314" transform="translate(60.576 34.525)">
    <g id="Group_313" data-name="Group 313">
      <path id="Path_1134" data-name="Path 1134" d="M387.569,236a1.569,1.569,0,1,0,1.569,1.569A1.57,1.57,0,0,0,387.569,236Z" transform="translate(-386 -236)" fill="#00295d"/>
    </g>
  </g>
  <g id="Group_316" data-name="Group 316" transform="translate(16.635 34.525)">
    <g id="Group_315" data-name="Group 315">
      <path id="Path_1135" data-name="Path 1135" d="M107.569,236a1.569,1.569,0,1,0,1.569,1.569A1.57,1.57,0,0,0,107.569,236Z" transform="translate(-106 -236)" fill="#00295d"/>
    </g>
  </g>
  <g id="Group_318" data-name="Group 318" transform="translate(24.481 31.386)">
    <g id="Group_317" data-name="Group 317" transform="translate(0 0)">
      <path id="Path_1136" data-name="Path 1136" d="M185.817,225.416H177.97v-7.847A1.569,1.569,0,0,0,176.4,216h-9.416a1.569,1.569,0,0,0-1.569,1.569v7.847h-7.847A1.569,1.569,0,0,0,156,226.985V236.4a1.569,1.569,0,0,0,1.569,1.569h7.847v7.847a1.569,1.569,0,0,0,1.569,1.569H176.4a1.569,1.569,0,0,0,1.569-1.569V237.97h7.847a1.569,1.569,0,0,0,1.569-1.569v-9.416A1.569,1.569,0,0,0,185.817,225.416Zm-1.569,9.416H176.4a1.569,1.569,0,0,0-1.569,1.569v7.847h-6.277V236.4a1.569,1.569,0,0,0-1.569-1.569h-7.847v-6.277h7.847a1.569,1.569,0,0,0,1.569-1.569v-7.847h6.277v7.847a1.569,1.569,0,0,0,1.569,1.569h7.847Z" transform="translate(-156 -216)" fill="#00295d"/>
    </g>
  </g>
  <g id="Group_320" data-name="Group 320" transform="translate(0 0)">
    <g id="Group_319" data-name="Group 319">
      <path id="Path_1137" data-name="Path 1137" d="M72.5,34.832H60.576V25.416A9.427,9.427,0,0,0,51.16,16H29.189a9.427,9.427,0,0,0-9.416,9.416v9.416H7.847A7.855,7.855,0,0,0,0,42.678v40.8a7.855,7.855,0,0,0,7.847,7.847H72.5a7.855,7.855,0,0,0,7.847-7.847v-40.8A7.855,7.855,0,0,0,72.5,34.832Zm-49.59-9.416a6.284,6.284,0,0,1,6.277-6.277H51.16a6.284,6.284,0,0,1,6.277,6.277v9.416H54.3V26.985a4.713,4.713,0,0,0-4.708-4.708H30.759a4.713,4.713,0,0,0-4.708,4.708v7.847H22.912ZM51.16,26.985v7.847H29.189V26.985a1.571,1.571,0,0,1,1.569-1.569H49.59A1.571,1.571,0,0,1,51.16,26.985Zm-40.8,61.2H7.847A4.713,4.713,0,0,1,3.139,83.48v-40.8A4.713,4.713,0,0,1,7.847,37.97h2.511Zm56.5,0H63.714V58.371a1.569,1.569,0,0,0-3.139,0V88.188h-40.8V58.371a1.569,1.569,0,0,0-3.139,0V88.188H13.5V37.97h3.139v7.847a1.569,1.569,0,0,0,3.139,0V37.97h40.8v7.847a1.569,1.569,0,0,0,3.139,0V37.97h3.139ZM77.21,83.48A4.713,4.713,0,0,1,72.5,88.188H69.991V37.97H72.5a4.713,4.713,0,0,1,4.708,4.708Z" transform="translate(0 -16)" fill="#00295d"/>
    </g>
  </g>
</svg>
