<svg id="Group_376" data-name="Group 376" xmlns="http://www.w3.org/2000/svg" width="1920" height="1080" viewBox="0 0 1920 1080">
  <path id="Path_1177" data-name="Path 1177" d="M0,0H1920V1080H0Z" fill="none"/>
  <path id="Union_9" data-name="Union 9" d="M-10234,13050s3.253-23.793,27.895-13.522c4.965-13.863,34.058-31.834,57.334,1.369,10.956-11.807,28.068-3.253,31.671,12.153Zm1573.761-46.205s3.861-28.238,33.108-16.052c5.9-16.454,40.425-37.784,68.054,1.628,13-14.018,33.314-3.861,37.585,14.424ZM-9936,12838.4s5.08-37.144,43.553-21.111c7.752-21.646,53.172-49.7,89.519,2.139,17.1-18.439,43.821-5.08,49.441,18.973Zm1439-353s5.079-37.146,43.552-21.111c7.756-21.646,53.172-49.7,89.52,2.139,17.1-18.438,43.82-5.08,49.44,18.973Zm-1600.24-65.6s4.493-32.846,38.516-18.668c6.854-19.144,47.023-43.955,79.162,1.89,15.128-16.3,38.755-4.49,43.724,16.778Z" transform="translate(10234.008 -12283.688)" fill="#c5fbff"/>
</svg>
