<svg xmlns="http://www.w3.org/2000/svg" xmlns:xlink="http://www.w3.org/1999/xlink" width="890.499" height="599.627" viewBox="0 0 890.499 599.627">
  <defs>
    <linearGradient id="linear-gradient" x1="0.321" x2="0.027" y2="0.083" gradientUnits="objectBoundingBox">
      <stop offset="0" stop-color="#0dd9ed" stop-opacity="0.059"/>
      <stop offset="1" stop-color="#0dd9ed" stop-opacity="0"/>
    </linearGradient>
    <filter id="Path_943" x="143.924" y="385.335" width="57.394" height="73.641" filterUnits="userSpaceOnUse">
      <feOffset dy="3" input="SourceAlpha"/>
      <feGaussianBlur result="blur"/>
      <feFlood flood-opacity="0.161"/>
      <feComposite operator="in" in2="blur"/>
      <feComposite in="SourceGraphic"/>
    </filter>
    <filter id="Path_810" x="754.806" y="509.292" width="28.183" height="33.086" filterUnits="userSpaceOnUse">
      <feOffset dy="2" input="SourceAlpha"/>
      <feGaussianBlur result="blur-2"/>
      <feFlood flood-opacity="0.161"/>
      <feComposite operator="in" in2="blur-2"/>
      <feComposite in="SourceGraphic"/>
    </filter>
    <filter id="Path_1025" x="407.866" y="144.789" width="16.853" height="13.5" filterUnits="userSpaceOnUse">
      <feOffset dy="1" input="SourceAlpha"/>
      <feGaussianBlur result="blur-3"/>
      <feFlood flood-opacity="0.039"/>
      <feComposite operator="in" in2="blur-3"/>
      <feComposite in="SourceGraphic"/>
    </filter>
  </defs>
  <g id="Group_403" data-name="Group 403" transform="translate(-184.694 -1238.068)">
    <path id="Path_1152" data-name="Path 1152" d="M9221.877-11211.387v-3.179L9223-11224h4.077v6.279l.679,3.155v3.784l-3.894-1.514Z" transform="translate(-8654.002 12670)" fill="#f8bd95"/>
    <path id="Path_653" data-name="Path 653" d="M-8515.475-2073.957h181.11s-5.994-21.3-35.965-31.145-145.146-5.994-145.146-5.994Z" transform="translate(9035.611 3676.246)" fill="#a7e0e9" opacity="0.42"/>
    <g id="Group_142" data-name="Group 142" transform="translate(660.055 1543.745)">
      <ellipse id="Ellipse_10" data-name="Ellipse 10" cx="3.286" cy="0.452" rx="3.286" ry="0.452" transform="translate(27.283 23.327)" fill="#6c63ff" opacity="0.1"/>
      <ellipse id="Ellipse_11" data-name="Ellipse 11" cx="3.286" cy="0.452" rx="3.286" ry="0.452" transform="translate(14.695 24.604)" fill="#6c63ff" opacity="0.1"/>
      <ellipse id="Ellipse_12" data-name="Ellipse 12" cx="3.286" cy="0.452" rx="3.286" ry="0.452" transform="translate(0 22.876)" fill="#6c63ff" opacity="0.1"/>
      <ellipse id="Ellipse_13" data-name="Ellipse 13" cx="2.337" cy="0.321" rx="2.337" ry="0.321" transform="translate(20.683 28.37)" fill="#6c63ff" opacity="0.1"/>
      <ellipse id="Ellipse_14" data-name="Ellipse 14" cx="2.337" cy="0.321" rx="2.337" ry="0.321" transform="translate(7.617 28.049)" fill="#6c63ff" opacity="0.1"/>
      <path id="Path_134" data-name="Path 134" d="M198.889,622.46s4.61-15.109-.72-21.161a10.029,10.029,0,0,0-10.542-3.426,3.747,3.747,0,0,0-2.418,2.009c-.709,1.527-.58,4.01,4.423,6.907,8.377,4.85,8.9,11.5,8.9,11.5Z" transform="translate(-180.979 -597.506)" fill="#33ea73"/>
      <path id="Path_135" data-name="Path 135" d="M195.941,617.23s13.587,4.248,10.54,22.444" transform="translate(-188.572 -614.72)" fill="none" stroke="#00295d" stroke-miterlimit="10" stroke-width="0.5"/>
      <path id="Path_136" data-name="Path 136" d="M221.3,629.2s-1.871,1.26-1.273,3.155" transform="translate(-205.996 -625.166)" fill="none" stroke="#00295d" stroke-miterlimit="10" stroke-width="0.5"/>
      <path id="Path_137" data-name="Path 137" d="M251.63,633.1a2.361,2.361,0,0,1,2.535-.522" transform="translate(-242.897 -627.945)" fill="none" stroke="#00295d" stroke-miterlimit="10" stroke-width="0.5"/>
      <path id="Path_138" data-name="Path 138" d="M209.49,681.356s2.008-1.018,2.528.255" transform="translate(-195.387 -670.348)" fill="none" stroke="#00295d" stroke-miterlimit="10" stroke-width="0.5"/>
      <path id="Path_139" data-name="Path 139" d="M191.836,700.629s-1.508-.12-1.536.6" transform="translate(-172.763 -687.498)" fill="none" stroke="#00295d" stroke-miterlimit="10" stroke-width="0.5"/>
      <path id="Path_140" data-name="Path 140" d="M206.146,720.844s-5.4-10.982-6.881-10.741c-.7.115-1.028.807-1.176,1.5a4.429,4.429,0,0,0,.294,2.68A11.855,11.855,0,0,0,206.146,720.844Z" transform="translate(-188.052 -695.77)" fill="#33ea73"/>
      <path id="Path_141" data-name="Path 141" d="M198.6,726.51s5.666,8.216,6.76,8.577" transform="translate(-187.344 -710.092)" fill="none" stroke="#00295d" stroke-miterlimit="10" stroke-width="0.5"/>
      <line id="Line_1" data-name="Line 1" x2="1.322" transform="translate(10.735 17.7)" fill="none" stroke="#00295d" stroke-miterlimit="10" stroke-width="0.5"/>
      <line id="Line_2" data-name="Line 2" x2="2.072" y2="0.089" transform="translate(12.319 20.706)" fill="none" stroke="#00295d" stroke-miterlimit="10" stroke-width="0.5"/>
      <line id="Line_3" data-name="Line 3" x1="0.225" y2="1.079" transform="translate(13.355 18.301)" fill="none" stroke="#00295d" stroke-miterlimit="10" stroke-width="0.5"/>
      <line id="Line_4" data-name="Line 4" x1="0.041" y2="0.981" transform="translate(15.744 21.588)" fill="none" stroke="#00295d" stroke-miterlimit="10" stroke-width="0.5"/>
      <path id="Path_142" data-name="Path 142" d="M135.234,720.844s5.4-10.982,6.881-10.741c.7.115,1.028.807,1.176,1.5a4.42,4.42,0,0,1-.3,2.673A11.831,11.831,0,0,1,135.234,720.844Z" transform="translate(-117.298 -695.77)" fill="#33ea73"/>
      <path id="Path_143" data-name="Path 143" d="M152.24,726.51s-5.666,8.216-6.76,8.577" transform="translate(-127.463 -710.092)" fill="none" stroke="#00295d" stroke-miterlimit="10" stroke-width="0.5"/>
      <line id="Line_5" data-name="Line 5" x1="1.322" transform="translate(23.976 17.7)" fill="none" stroke="#00295d" stroke-miterlimit="10" stroke-width="0.5"/>
      <line id="Line_6" data-name="Line 6" x1="2.073" y2="0.089" transform="translate(21.641 20.706)" fill="none" stroke="#00295d" stroke-miterlimit="10" stroke-width="0.5"/>
      <line id="Line_7" data-name="Line 7" x2="0.225" y2="1.079" transform="translate(22.452 18.301)" fill="none" stroke="#00295d" stroke-miterlimit="10" stroke-width="0.5"/>
      <line id="Line_8" data-name="Line 8" x2="0.041" y2="0.981" transform="translate(20.248 21.588)" fill="none" stroke="#00295d" stroke-miterlimit="10" stroke-width="0.5"/>
      <path id="Path_144" data-name="Path 144" d="M248.9,804.5a.936.936,0,0,1-.308-.463.412.412,0,0,1,.215-.472c.2-.076.409.061.568.2a.762.762,0,0,0,.552.267.841.841,0,0,1-.255-.786.328.328,0,0,1,.071-.16c.109-.117.308-.066.439.025a1.634,1.634,0,0,1,.536,1.37,2.606,2.606,0,0,0,.008-.564.576.576,0,0,1,.213-.5.622.622,0,0,1,.322-.076.7.7,0,0,1,.524.149.521.521,0,0,1-.02.644,2.051,2.051,0,0,1-.542.434,1.21,1.21,0,0,0-.382.369.386.386,0,0,0-.028.066h-1.175A3.257,3.257,0,0,1,248.9,804.5Z" transform="translate(-240.237 -776.86)" fill="#33ea73"/>
      <path id="Path_145" data-name="Path 145" d="M87.268,769.747a.934.934,0,0,1-.308-.463.415.415,0,0,1,.215-.473c.2-.075.407.062.568.2a.761.761,0,0,0,.552.266.837.837,0,0,1-.255-.786.333.333,0,0,1,.073-.159c.109-.117.308-.067.439.026a1.634,1.634,0,0,1,.536,1.369,2.618,2.618,0,0,0,.008-.565.572.572,0,0,1,.211-.5.625.625,0,0,1,.323-.076.665.665,0,0,1,.524.149.512.512,0,0,1-.02.636,2.015,2.015,0,0,1-.543.435,1.191,1.191,0,0,0-.382.369.444.444,0,0,0-.029.066H88a3.278,3.278,0,0,1-.737-.5Z" transform="translate(-58.03 -746.531)" fill="#33ea73"/>
      <path id="Path_146" data-name="Path 146" d="M141.145,804.5a.936.936,0,0,1-.308-.463.412.412,0,0,1,.215-.472c.2-.076.409.061.568.2a.762.762,0,0,0,.552.267.841.841,0,0,1-.255-.786.328.328,0,0,1,.071-.16c.109-.117.308-.066.439.025a1.634,1.634,0,0,1,.536,1.37,2.606,2.606,0,0,0,.008-.564.575.575,0,0,1,.211-.5.628.628,0,0,1,.323-.076.7.7,0,0,1,.524.149.521.521,0,0,1-.02.644,2.05,2.05,0,0,1-.542.434,1.211,1.211,0,0,0-.382.369.383.383,0,0,0-.028.066h-1.175A3.256,3.256,0,0,1,141.145,804.5Z" transform="translate(-118.762 -776.86)" fill="#33ea73"/>
      <path id="Path_147" data-name="Path 147" d="M308.539,744.43s-.44.577.2,1.446,1.173,1.6.96,2.146c0,0-.971-1.615-1.761-1.638S307.67,745.4,308.539,744.43Z" transform="translate(-305.461 -725.731)" fill="#33ea73"/>
      <path id="Path_148" data-name="Path 148" d="M308.738,744.43a.73.73,0,0,0-.09.181c-.771.906-1.181,1.751-.44,1.773.691.02,1.518,1.255,1.717,1.567-.006.024-.014.047-.023.071,0,0-.971-1.615-1.761-1.638S307.869,745.4,308.738,744.43Z" transform="translate(-305.659 -725.731)" opacity="0.1"/>
      <path id="Path_149" data-name="Path 149" d="M322.7,749.313c0,.2.023.367.051.367s.051-.164.051-.367-.029-.107-.057-.107S322.7,749.11,322.7,749.313Z" transform="translate(-320.433 -729.88)" fill="#ffd037"/>
      <path id="Path_150" data-name="Path 150" d="M323.092,751.134c.178.1.333.155.346.127s-.12-.127-.3-.22-.107-.027-.121,0S322.914,751.038,323.092,751.134Z" transform="translate(-321.106 -731.46)" fill="#ffd037"/>
      <path id="Path_151" data-name="Path 151" d="M292.249,744.43s.44.577-.2,1.446-1.175,1.6-.96,2.146c0,0,.971-1.615,1.761-1.638S293.113,745.4,292.249,744.43Z" transform="translate(-286.853 -725.731)" fill="#33ea73"/>
      <path id="Path_152" data-name="Path 152" d="M292.224,744.43a.706.706,0,0,1,.089.181c.771.906,1.182,1.751.442,1.773-.691.02-1.52,1.255-1.718,1.567.008.024.015.047.024.071,0,0,.971-1.615,1.761-1.638S293.088,745.4,292.224,744.43Z" transform="translate(-286.829 -725.731)" opacity="0.1"/>
      <path id="Path_153" data-name="Path 153" d="M292.462,749.313c0,.2-.023.367-.051.367s-.051-.164-.051-.367.028-.107.056-.107S292.462,749.11,292.462,749.313Z" transform="translate(-286.25 -729.88)" fill="#ffd037"/>
      <path id="Path_154" data-name="Path 154" d="M289.616,751.134c-.178.1-.333.155-.347.127s.121-.127.3-.22.108-.027.127,0S289.793,751.038,289.616,751.134Z" transform="translate(-283.124 -731.46)" fill="#ffd037"/>
      <path id="Path_155" data-name="Path 155" d="M298.041,767.487a4.5,4.5,0,0,1-1.6-.3c-.37-.265-1.894-.58-1.987-.157s-1.849,2.107-.459,2.119a11.773,11.773,0,0,0,3.6-.442C297.963,768.481,298.041,767.487,298.041,767.487Z" transform="translate(-291.964 -745.274)" fill="#a8a8a8"/>
      <path id="Path_156" data-name="Path 156" d="M293.967,773.554a11.779,11.779,0,0,0,3.6-.442c.282-.172.394-.788.431-1.073h.042s-.079.994-.449,1.219a11.771,11.771,0,0,1-3.6.442c-.4,0-.54-.146-.532-.358C293.518,773.473,293.669,773.552,293.967,773.554Z" transform="translate(-291.963 -749.828)" opacity="0.2"/>
    </g>
    <path id="Path_656" data-name="Path 656" d="M-8672.75-2585.565h-335.442v360.122h335.442Z" transform="translate(9192.887 3827.459)" fill="url(#linear-gradient)"/>
    <path id="Path_652" data-name="Path 652" d="M-8500.579-2571.606h164.288v-19.578h-179.184v364.221h14.9Z" transform="translate(9035.611 3829.252)" fill="#8aeaf9" opacity="0.48"/>
    <path id="Path_654" data-name="Path 654" d="M-8275.013-2565.011l137.928-5.021V-2204.9l-138.652-15.242Z" transform="translate(8959.088 3822.5)" fill="#d3f7fb"/>
    <g id="Group_139" data-name="Group 139" transform="translate(291.914 1300.817)">
      <rect id="Rectangle_100" data-name="Rectangle 100" width="147.146" height="82.092" transform="translate(15.696 127.971)" fill="#e5fafd" opacity="0.72"/>
      <path id="Union_8" data-name="Union 8" d="M36.594,115.006V95.351c-5.994,3.77-13.489,6.271-19.117.837-9.361-9.038-7.1-21.626-7.1-21.626S-5.441,62.619,1.982,44.221s19.69-17.753,19.69-17.753S21.673,0,39.748,0,64.6,16.461,61.7,26.468c6.779,5.81,29.7,19.044,18.076,43.575S52.981,89.732,45.557,88.118c-.738.738-1.8,1.746-3.089,2.857v24.031Z" transform="translate(15.662 91.984)" fill="rgba(51,234,115,0.2)"/>
      <path id="Path_672" data-name="Path 672" d="M-8753.858-1319.17s-4.221-12.414,8.44-70.266,14.4-61.079,14.4-61.079,22.6,73.494,21.6,99.316,0,32.03,0,32.03Z" transform="translate(8866.504 1526.074)" fill="rgba(51,234,115,0.2)"/>
      <path id="Union_7" data-name="Union 7" d="M0,217.3V207.046H15.66V0H163.588V207.046h14.124V217.3H0Zm22.415-10.491H155.431V131.48H22.415Zm70.808-83.544h62.071v-.156L99.1,70.852H93.223Zm-8.737,0V70.852H22.415v7.464L72.2,123.263Zm-62.071,0H56.478L22.415,93.117Zm132.879-16.049V94.489L129.045,70.852H114.84Zm0-27.548V70.852H144.775Z" transform="translate(0.247)" fill="#d3f7fb"/>
      <g id="Group_138" data-name="Group 138" transform="translate(0 0.681)">
        <path id="Path_664" data-name="Path 664" d="M-8910.787-2591.184h176.967v75.1h-176.967Z" transform="translate(8910.787 2591.184)" fill="#e8fcff"/>
        <path id="Path_665" data-name="Path 665" d="M-8881.363-2591.05v74.993h6.993v-74.993Z" transform="translate(8896.428 2591.118)" fill="#0dd9ed" opacity="0.14"/>
        <path id="Path_666" data-name="Path 666" d="M-8881.363-2591.05v74.993h6.993v-74.993Z" transform="translate(9037.215 2591.118)" fill="#0dd9ed" opacity="0.22"/>
        <path id="Path_667" data-name="Path 667" d="M0,0V176.594H6.992V0Z" transform="translate(177.183 53.35) rotate(90)" fill="#0dd9ed" opacity="0.24"/>
        <path id="Path_668" data-name="Path 668" d="M0,0V176.594H6.992V0Z" transform="translate(177.183 68.064) rotate(90)" fill="#0dd9ed" opacity="0.24"/>
      </g>
    </g>
    <g id="Group_59" data-name="Group 59" transform="translate(456.781 1520.299)">
      <rect id="Rectangle_27" data-name="Rectangle 27" width="1.844" height="41.521" transform="translate(37.977 4.562)" fill="#535461"/>
      <path id="Path_75" data-name="Path 75" d="M214.661,878.867l-.115,1.87-.165,2.647-.068,1.1-.162,2.647-.071,1.1-.165,2.647L212.058,920.9a5.088,5.088,0,0,1-5.076,4.771h-9.665a5.085,5.085,0,0,1-5.074-4.771l-1.85-30.041-.165-2.647-.068-1.1L190,884.464l-.068-1.1-.165-2.647-.118-1.87a2.647,2.647,0,0,1,2.647-2.8h19.768a2.629,2.629,0,0,1,2.6,2.818Z" transform="translate(-163.252 -832.911)" fill="#3f3d56"/>
      <path id="Path_76" data-name="Path 76" d="M149.773,817.148l-.165,2.638H125.143l-.165-2.638Z" transform="translate(-98.478 -769.321)" fill="#9d9cb5"/>
      <path id="Path_77" data-name="Path 77" d="M150.4,834.685l-.162,2.641h-24l-.165-2.641Z" transform="translate(-99.336 -783.12)" fill="#9d9cb5"/>
      <path id="Path_78" data-name="Path 78" d="M151.023,852.249l-.162,2.638H127.323l-.165-2.638Z" transform="translate(-100.194 -796.94)" fill="#9d9cb5"/>
      <path id="Path_79" data-name="Path 79" d="M89.56,737.773c10.738,7.771,15.221,19.924,15.221,19.924s-12.941-.444-23.682-8.215-15.215-19.921-15.215-19.921S78.819,730,89.56,737.773Z" transform="translate(-65.875 -717.649)" fill="#37ea75"/>
      <path id="Path_80" data-name="Path 80" d="M65.842,729.561s13.435,7.456,17.744,13.629S104.748,757.7,104.748,757.7" transform="translate(-65.842 -717.649)" fill="none" stroke="#535461" stroke-miterlimit="10" stroke-width="2.76"/>
      <path id="Path_81" data-name="Path 81" d="M161.9,678.151a26.112,26.112,0,0,1,8.288,10.841,23.671,23.671,0,0,1-21.177-15.312A26.042,26.042,0,0,1,161.9,678.151Z" transform="translate(-131.284 -673.68)" fill="#0cd9ec"/>
      <path id="Path_82" data-name="Path 82" d="M149.014,673.68s7.312,4.059,9.656,7.418,11.521,7.894,11.521,7.894" transform="translate(-131.284 -673.68)" fill="none" stroke="#535461" stroke-miterlimit="10" stroke-width="2.76"/>
      <path id="Path_83" data-name="Path 83" d="M258.134,708.112A36.02,36.02,0,0,0,250,725.135a32.737,32.737,0,0,0,24.312-26.729A36.05,36.05,0,0,0,258.134,708.112Z" transform="translate(-210.742 -693.135)" fill="#0cd9ec"/>
      <path id="Path_84" data-name="Path 84" d="M274.316,698.42s-8.747,7.565-10.971,12.777S250,725.146,250,725.146" transform="translate(-210.742 -693.146)" fill="none" stroke="#535461" stroke-miterlimit="10" stroke-width="2.76"/>
    </g>
    <rect id="Rectangle_27-2" data-name="Rectangle 27" width="1.844" height="41.521" transform="translate(494.758 1524.861)" fill="#535461"/>
    <path id="Path_75-2" data-name="Path 75" d="M214.661,878.867l-.115,1.87-.165,2.647-.068,1.1-.162,2.647-.071,1.1-.165,2.647L212.058,920.9a5.088,5.088,0,0,1-5.076,4.771h-9.665a5.085,5.085,0,0,1-5.074-4.771l-1.85-30.041-.165-2.647-.068-1.1L190,884.464l-.068-1.1-.165-2.647-.118-1.87a2.647,2.647,0,0,1,2.647-2.8h19.768a2.629,2.629,0,0,1,2.6,2.818Z" transform="translate(293.529 687.388)" fill="#00295d"/>
    <path id="Path_76-2" data-name="Path 76" d="M149.773,817.148l-.165,2.638H125.143l-.165-2.638Z" transform="translate(358.301 750.979)" fill="#fff"/>
    <path id="Path_77-2" data-name="Path 77" d="M150.4,834.685l-.162,2.641h-24l-.165-2.641Z" transform="translate(357.445 737.18)" fill="#fff"/>
    <path id="Path_78-2" data-name="Path 78" d="M151.023,852.249l-.162,2.638H127.323l-.165-2.638Z" transform="translate(356.586 723.359)" fill="#fff"/>
    <path id="Path_81-2" data-name="Path 81" d="M161.9,678.151a26.112,26.112,0,0,1,8.288,10.841,23.671,23.671,0,0,1-21.177-15.312A26.042,26.042,0,0,1,161.9,678.151Z" transform="translate(325.496 846.619)" fill="#37ea75"/>
    <path id="Path_82-2" data-name="Path 82" d="M149.014,673.68s7.312,4.059,9.656,7.418,11.521,7.894,11.521,7.894" transform="translate(325.496 846.619)" fill="none" stroke="#535461" stroke-miterlimit="10" stroke-width="2.76"/>
    <path id="Path_83-2" data-name="Path 83" d="M258.134,708.112A36.02,36.02,0,0,0,250,725.135a32.737,32.737,0,0,0,24.312-26.729A36.05,36.05,0,0,0,258.134,708.112Z" transform="translate(246.039 827.164)" fill="#33ea73"/>
    <path id="Path_84-2" data-name="Path 84" d="M274.316,698.42s-8.747,7.565-10.971,12.777S250,725.146,250,725.146" transform="translate(246.039 827.153)" fill="none" stroke="#535461" stroke-miterlimit="10" stroke-width="2.76"/>
    <path id="Path_741" data-name="Path 741" d="M-7608.417,253s-.99-7.919,0-11.171,1.555,1.7,2.545,1.7,2.828-6.222,2.546-10.605,4.948,4.525,2.686,14.423-3.252,7.212-4.383,19.938-10.747,22.625-13.433,20.786-.565-13.575,3.252-20.786S-7608.417,253-7608.417,253Z" transform="translate(8421.881 1185.797)" fill="#ffb7a1"/>
    <path id="Path_737" data-name="Path 737" d="M-7651.266,359.573s-26.153-2.131-31-3.681,3.875,45.913,13.173,67.8,35.453,63.93,35.453,63.93,4.068.387,7.167-3.875c-1.743-12.011-11.817-44.17-16.08-50.95s-7.554-7.749-6.2-18.792S-7646.616,362.091-7651.266,359.573Z" transform="translate(8441.623 1146.19)" fill="#9da8aa"/>
    <path id="Path_740" data-name="Path 740" d="M-7651.33,236.466s6.929-.99,17.393,22.342,9.333,27.574,5.232,31.25S-7656.987,254-7656.279,247.5A21.059,21.059,0,0,1-7651.33,236.466Z" transform="translate(8434.254 1184.301)" fill="#ffccbc"/>
    <path id="Path_736" data-name="Path 736" d="M-7704.354,352.359c8.174,1.876,32.041,5.663,32.041,5.663s.894,15.126-3.577,25.557-13.562,35.02-14.6,38.6-2.832,11.326-1.937,18.777.708,37.143-6.743,58.453h-8.2s-4.4-40.571-4.248-66.948S-7710.994,379.63-7704.354,352.359Z" transform="translate(8450.555 1147.307)" fill="#b1bcbe"/>
    <path id="Path_742" data-name="Path 742" d="M-7371.663,184.108a28.683,28.683,0,0,0,2.627,32.5c12.906,16.489,28.438-15.772,21.508-21.03S-7371.663,184.108-7371.663,184.108Z" transform="translate(8123.379 1201.012)" fill="#ffccbc"/>
    <path id="Path_735" data-name="Path 735" d="M-7701.061,315.759s15.5,2.519,27.9,5.231,16.854,0,16.854,0a73.761,73.761,0,0,1-4.649-33.321c1.744-18.792,5.037-39.714,0-46.882s-3.293-4.843-3.293-4.843l-34.1,6.78Z" transform="translate(8447.182 1184.581)" fill="#ffff61"/>
    <path id="Path_739" data-name="Path 739" d="M-7686.968,179.9c21.768,0,21.986,33.934,21.747,37.28s-5.188,9.576-18.242,9.576h-19.914s10.961-14.308,12.216-17.153a10.036,10.036,0,0,0,.836-5.271c0-1.422-3.1-6.945-6.693-9.036s-4.156-6.954-1.923-10.375S-7693.485,180.565-7686.968,179.9Z" transform="translate(8449.283 1201.676)" fill="#585858"/>
    <path id="Path_738" data-name="Path 738" d="M-7725.73,299.972l2.518-42.31s1.511-15.866,10.578-7.3,8.312,49.613-8.562,69.509-19.433,19.846-22.342,26.195-5.819,4.585-10.846,1.411.177-8.906,4.144-8.73,6.7-5.732,6.7-5.732S-7726.88,305.465-7725.73,299.972Z" transform="translate(8466.227 1179.313)" fill="#ffccbc"/>
    <path id="Path_743" data-name="Path 743" d="M-7612.945,547.677s.919.735,3.861-1.287,3.124-3.125,3.124-3.125,8.089,9.007,3.861,11.765-5.7,7.068-6.985,9.457-7.208,2.322-9.054,1.255,5.389-4.707,5.94-8.2S-7612.945,547.677-7612.945,547.677Z" transform="translate(8420.809 1085.688)" fill="#ea5b4b"/>
    <path id="Path_744" data-name="Path 744" d="M-7711.588,567.465h8.375s1.141,9.381-.559,11.377-7.6.261-9.992,1.023-11.2,1.305-11.42-1.414,5-3.807,8.483-4.568A6.434,6.434,0,0,0-7711.588,567.465Z" transform="translate(8454.885 1078.645)" fill="#ea5b4b"/>
    <g id="Group_346" data-name="Group 346" transform="translate(-35 26)">
      <ellipse id="Ellipse_107" data-name="Ellipse 107" cx="115.086" cy="24.163" rx="115.086" ry="24.163" transform="translate(308.021 1763.369)" fill="#0dd6ea" opacity="0.1"/>
      <g id="Group_175" data-name="Group 175" transform="translate(409.252 1667.019)">
        <path id="Path_923" data-name="Path 923" d="M146.09,251.988a1.707,1.707,0,0,0,1.712,1.86h2.24a1.709,1.709,0,0,0,1.71-1.533l7.214-73.321h48.67l5.321,62.049,5.7-.475-8.333-97.2a14.18,14.18,0,0,0-14.207-12.878h-25.18a14.185,14.185,0,0,0-14.194,12.71Zm58.629-107.021,1,11.7h-44.56l1.162-11.818a9.7,9.7,0,0,1,9.709-8.689H195A9.7,9.7,0,0,1,204.719,144.967Zm-45.2,28.385,1.086-11.044h45.6l.945,11.044Z" transform="translate(-146.082 -130.493)" fill="#00295d" opacity="0.37"/>
        <g id="Group_174" data-name="Group 174" transform="translate(54.87 94.917)">
          <ellipse id="Ellipse_106" data-name="Ellipse 106" cx="8.699" cy="8.578" rx="8.699" ry="8.578" transform="translate(5.72 5.641)" fill="#c5c5c5"/>
          <path id="Path_924" data-name="Path 924" d="M167.614,182.486a14.421,14.421,0,1,0,14.418-14.22A14.335,14.335,0,0,0,167.614,182.486Zm5.721,0a8.7,8.7,0,1,1,8.7,8.576A8.648,8.648,0,0,1,173.335,182.486Z" transform="translate(-167.614 -168.266)" fill="#838383"/>
          <path id="Path_925" data-name="Path 925" d="M171.62,176.426a4.211,4.211,0,1,0,4.21-4.154A4.182,4.182,0,0,0,171.62,176.426Z" transform="translate(-161.411 -162.206)" fill="#e3e3e3"/>
        </g>
        <path id="Path_926" data-name="Path 926" d="M151.994,177.994l-.242,2.46a1.709,1.709,0,0,1-1.71,1.533H147.8a1.707,1.707,0,0,1-1.712-1.859l.209-2.133Z" transform="translate(-146.082 -58.633)" fill="#e3e3e3"/>
      </g>
      <path id="Path_927" data-name="Path 927" d="M149.085,133.361l.986.374,1.651.807,3.438,4.968,2.976,1.018,2.826-1.686-2.831-1.686,3.435,1.663,2.513-.623c2.446-.168,3.591-.146,4.062-.168l-2.434-4.149-4.6-4.352-7-1.289-3.134-2.724Z" transform="translate(267.82 1528.991)" fill="#ffb7a1"/>
      <g id="Group_176" data-name="Group 176" transform="translate(371.158 1597.084)">
        <path id="Path_928" data-name="Path 928" d="M176.692,168.907,182,162.9a2.561,2.561,0,0,0-.3-3.684L161.328,142.5l-13.641-30.885a7.569,7.569,0,0,0-7.821-7.634l10.945-1.319c-4.33.113-19.456,4.895-19.678,11.313l16.475,31.976a7.218,7.218,0,0,0,2.936,4.98l22.507,18.276A2.646,2.646,0,0,0,176.692,168.907Z" transform="translate(-131.133 -102.662)" fill="#04383e"/>
      </g>
      <path id="Rectangle_246" data-name="Rectangle 246" d="M0,0H30.891a1.721,1.721,0,0,1,1.721,1.721V8.626a0,0,0,0,1,0,0H0a0,0,0,0,1,0,0V0A0,0,0,0,1,0,0Z" transform="translate(372.725 1782.067)" fill="#371c00"/>
      <rect id="Rectangle_247" data-name="Rectangle 247" width="33.59" height="2.06" transform="translate(372.725 1790.693)" fill="#c1c1c1"/>
      <g id="Group_177" data-name="Group 177" transform="translate(389.313 1781.542)">
        <path id="Path_929" data-name="Path 929" d="M141.278,176.069a.527.527,0,0,1,.533.525v2.97a.533.533,0,0,1-1.065,0v-2.97A.527.527,0,0,1,141.278,176.069Z" transform="translate(-134.405 -176.069)" fill="#c1c1c1"/>
        <path id="Path_930" data-name="Path 930" d="M140.034,176.069a.527.527,0,0,1,.533.525v2.97a.533.533,0,0,1-1.065,0v-2.97A.527.527,0,0,1,140.034,176.069Z" transform="translate(-136.331 -176.069)" fill="#c1c1c1"/>
        <path id="Path_931" data-name="Path 931" d="M138.79,176.069a.527.527,0,0,1,.533.525v2.97a.533.533,0,0,1-1.065,0v-2.97A.527.527,0,0,1,138.79,176.069Z" transform="translate(-138.257 -176.069)" fill="#c1c1c1"/>
      </g>
      <path id="Rectangle_248" data-name="Rectangle 248" d="M0,0H30.891a1.721,1.721,0,0,1,1.721,1.721V8.626a0,0,0,0,1,0,0H0a0,0,0,0,1,0,0V0A0,0,0,0,1,0,0Z" transform="translate(347.71 1782.067)" fill="#582d02"/>
      <rect id="Rectangle_249" data-name="Rectangle 249" width="33.59" height="2.06" transform="translate(347.71 1790.693)" fill="#c1c1c1"/>
      <g id="Group_178" data-name="Group 178" transform="translate(364.296 1781.542)">
        <path id="Path_932" data-name="Path 932" d="M131.463,176.069a.527.527,0,0,1,.533.525v2.97a.534.534,0,0,1-1.068,0v-2.97A.529.529,0,0,1,131.463,176.069Z" transform="translate(-124.588 -176.069)" fill="#c1c1c1"/>
        <path id="Path_933" data-name="Path 933" d="M130.218,176.069a.527.527,0,0,1,.533.525v2.97a.533.533,0,0,1-1.065,0v-2.97A.527.527,0,0,1,130.218,176.069Z" transform="translate(-126.512 -176.069)" fill="#c1c1c1"/>
        <path id="Path_934" data-name="Path 934" d="M128.975,176.069a.527.527,0,0,1,.533.525v2.97a.534.534,0,0,1-1.068,0v-2.97A.529.529,0,0,1,128.975,176.069Z" transform="translate(-128.44 -176.069)" fill="#c1c1c1"/>
      </g>
      <path id="Path_935" data-name="Path 935" d="M162.881,94.507l-.714,4.727s5,8.441,4.528,9.2-3.1.173-3.219.643,1.193,4.347,0,4.229-4.289,0-4.289,0,3.606.236,3.769.824-.194.452-.67,1.224,1.674,1.638.645,3.4-.408,3.835-6.126,3.541L151.085,122v6.463H137.5v-7.755a30.563,30.563,0,0,1-8.432-14.547c-2.026-8.84.089-16.361,5.69-20.59s15.374-4.7,21.928-1.176C162.32,87.43,162.881,94.507,162.881,94.507Z" transform="translate(235.661 1463.234)" fill="#ffccbc"/>
      <path id="Path_936" data-name="Path 936" d="M136.879,90.865A38.251,38.251,0,0,0,138.1,96.9c.609,1.425,3.557,1.7,3.557,1.7l-.556-1.973a2.935,2.935,0,0,0,3.249.877c1.8-.824,3.142-1.754,4.042-1.754a18.405,18.405,0,0,1,3.053.575,7.666,7.666,0,0,1,.808,2.407c-.079.99-2.566-.372-5.038.633,0,0-1.389.384-.724.9a25.048,25.048,0,0,0,4,1.576c.428,1.113,1.465,5.573.262,6.976-.708.827-3.114,1.244-3.749.827-1.549-1.018-2.316-.4-4.289-.2-2.087.2-4.564-.209-5.543-1.779-3.04-4.875,1.478-4.516.178-5.832s-1.091-4.111-1.147-5.536A41.779,41.779,0,0,1,136.879,90.865Z" transform="translate(247.722 1476.575)" fill="#cfcfcf"/>
      <path id="Path_937" data-name="Path 937" d="M128.071,109.148a84.034,84.034,0,0,0,7.469,12.768c1.193,1.488,3.415,2.9,4.409,1.8s2.113-.706,4.016-.628a4.574,4.574,0,0,0,4.072-1.643c.851-1.1,1.822-.689,3.412,1.505s2.76.374,2.76.374.637-8.227-.079-9.323c-.359-.55-1.723-.787-3.173-1.161l.454-6.87.051-.771.7-10.5a2.551,2.551,0,0,1,2.564-2.367h.413l.573.312a9.222,9.222,0,0,0,4.426,1.128h4.587c.688-1.39.3-4.156-.3-6.674a7.548,7.548,0,0,0-6.72-5.754c-6.789-.588-18.343-1.221-22.4.776-5.879,2.9-7.627,5.719-8.1,9.167S126.641,105.545,128.071,109.148Z" transform="translate(233.45 1461.287)" fill="#b1b1b1"/>
      <path id="Path_938" data-name="Path 938" d="M158.068,130.493s7.663,48.437,7.1,57.526-6.57,57.523-6.57,57.523H139.926s3.359-33.569,4-44.223,2.352-13.3,2.352-13.3l-20.468-57.526Z" transform="translate(231.777 1536.525)" fill="#9da8aa"/>
      <path id="Path_939" data-name="Path 939" d="M158.048,153.965l-2.23,40.361L141.691,247.7h-19.76s3.2-24.794,4.156-32.629,8.473-19.427,8.473-19.427-8.157-45.751-8.157-49.2,1.59-17.376,1.59-17.376l36.074,3.581Z" transform="translate(225.777 1534.369)" fill="#b1bcbe"/>
      <path id="Path_940" data-name="Path 940" d="M162.478,104.939s4.133,15.009,4.133,27.365,1.906,43.366,0,45.882.635,2.513-6.358,2.513-29.553.314-30.824,0-6.355,1.239-6.674-2.513,1.906-44.178,5.084-55.458,12.395-23.656,12.395-23.656Z" transform="translate(227.007 1488.991)" fill="#064c54"/>
      <path id="Path_941" data-name="Path 941" d="M154.722,102.3c-2.072-2.231-8.335-1.9-12.092-2.762s-7.334-2.955-9.6-2.329-4.528,8.5-4.528,8.5a40.94,40.94,0,0,0,13.108,4.573c7.151,1.068,13.7,2.126,13.7,2.126S156.455,104.165,154.722,102.3Z" transform="translate(235.956 1485.996)" fill="#cf5a00"/>
      <path id="Path_942" data-name="Path 942" d="M153.547,126.755a9.9,9.9,0,0,0,3.575,3.056c1.394.493,5.65,2.194,6.236,2.505,1.035.55,3.41,4,3.41,4l-2.513.623-2.485-1.176s2.1,3.211,2.581,3.917,2.536,2.621,3.134,2.478.749.5,0,.89-3.073,1.689-3.453,1.8a4.459,4.459,0,0,1-3.494.234c-2.385-.548-6.595-4.5-6.992-6.438s-6.2-6.081-6.2-6.081l6.2-5.812Z" transform="translate(265.133 1530.87)" fill="#ffccbc"/>
      <g transform="matrix(1, 0, 0, 1, 219.69, 1212.07)" filter="url(#Path_943)">
        <path id="Path_943-2" data-name="Path 943" d="M133.334,103.289c2.6-1.457,10.787.1,13.381,6.92s16.375,35.019,16.375,35.019,23.531,17.436,22.44,18.673-6.19,9.529-7.38,9.529-27.886-20.68-27.886-20.68-20-29.211-21.248-34.315C128.151,114.908,126.431,107.154,133.334,103.289Z" transform="translate(15.75 282.55)" fill="#064c54"/>
      </g>
      <path id="Path_948" data-name="Path 948" d="M135.191,91.161h0a3.716,3.716,0,0,1,2.072-.985l1.618-.211.069,1.02.426,6.274-1.139.151a3.693,3.693,0,0,1-4.156-3.136A3.619,3.619,0,0,1,135.191,91.161Z" transform="translate(244.537 1475.214)" fill="#ffccbc"/>
      <path id="Path_949" data-name="Path 949" d="M136.8,90.646a2.3,2.3,0,0,0-1.379.7,2.236,2.236,0,0,0-.6,1.844h0a2.294,2.294,0,0,0,2.581,1.95l.708-.093-.265-3.9-.043-.633Z" transform="translate(245.704 1476.046)" fill="#ff764d" opacity="0.3"/>
    </g>
    <g id="Group_343" data-name="Group 343" transform="translate(-155 -47)">
      <path id="Path_792" data-name="Path 792" d="M868.668,739.623s.183-3.222-2.78-1.889-1.054,2.778-1.054,2.778Z" transform="translate(201.274 1024.538)" fill="#fff" opacity="0.1"/>
      <path id="Path_793" data-name="Path 793" d="M922.546,733.484v.444l.479.213.977-.213s.209-1.819-.592-2.338A4.291,4.291,0,0,0,922.546,733.484Z" transform="translate(135.224 1029.122)" fill="#fff" opacity="0.1"/>
      <ellipse id="Ellipse_108" data-name="Ellipse 108" cx="115.086" cy="24.163" rx="115.086" ry="24.163" transform="translate(1000.021 1833.369)" fill="#0dd6ea" opacity="0.1"/>
      <path id="Path_785" data-name="Path 785" d="M785.872,744.725a3.9,3.9,0,0,0-2.164-2.822,3.089,3.089,0,0,0-3.231.485l-.143.121c-3.068,2.665-1.247,7.553,0,7.663s3.646.23,3.646.23S786.806,749.049,785.872,744.725Z" transform="translate(285.577 1118.202)" fill="#192534"/>
      <path id="Path_786" data-name="Path 786" d="M790,697.966v.888s12.47,1,13.8,1h2.492s.037.045.1.125c.1.134.277.37.469.663a6.05,6.05,0,0,1,.968,2.1,2.414,2.414,0,0,0,.862,1.666l2.492-.776,2.4-3.332.35-.391,1-1.1.853-.946-.042-.531v-.081a33.982,33.982,0,0,0-.781-3.375.341.341,0,0,0-.026-.091c-.691-2.406-1.845-5.328-3.506-6.2-.127-.066-.259-.13-.4-.187l-.169-.068c-3.187-1.237-9.21-.746-9.21-.746s-4.6,1.556-4.984,2.223-4.744,6.163-4.744,6.163a7.7,7.7,0,0,0-1.053,1.129A4,4,0,0,0,790,697.966Z" transform="translate(253.77 1161.639)" fill="#33ea73"/>
      <path id="Path_787" data-name="Path 787" d="M794.59,691.762s1.1,1.955,2.263,4.463a.126.126,0,0,1,0,.019c.31.667.625,1.371.926,2.091l.013.034s.636-.584,1.137-1.154a.342.342,0,0,0-.026-.091c-.691-2.406-1.845-5.328-3.506-6.2-.126-.066-.258-.13-.4-.187Z" transform="translate(269.786 1158.29)" opacity="0.1"/>
      <path id="Path_788" data-name="Path 788" d="M808.652,702.137s-6.805,2.338-8.146,1.333c0,0-.48-7.109,2.683-7.553,0,0,1.821-.557,2.2-.213S808.652,702.137,808.652,702.137Z" transform="translate(258.982 1154.47)" fill="#33ea73" stroke="#707070" stroke-width="1" opacity="0.1"/>
      <path id="Path_789" data-name="Path 789" d="M861.128,699.355s-1.343,5.887-2.3,6-10.636-.113-10.255-.89,4.6-5.774,4.6-5.774Z" transform="translate(197.689 1152.03)" fill="#33ea73" stroke="#707070" stroke-width="1" opacity="0.1"/>
      <path id="Path_790" data-name="Path 790" d="M841.08,747.583s-1.742-2.654-4.81.013-1.245,7.553,0,7.663,3.633.223,3.633.223S843.686,753.68,841.08,747.583Z" transform="translate(219.384 1114.454)" fill="#192534"/>
      <path id="Path_791" data-name="Path 791" d="M904.655,747.163a3.074,3.074,0,0,1,1.524-1.887,2.431,2.431,0,0,1,2.23.021,5.3,5.3,0,0,1,.968.682c2.731,2.372,1.1,6.722,0,6.822-.4.034-.928.07-1.443.1a3.222,3.222,0,0,1-2.794-1.4,4.433,4.433,0,0,1-.716-3.429A9.342,9.342,0,0,1,904.655,747.163Z" transform="translate(137.715 1115.549)" fill="#192534"/>
      <path id="Path_792-2" data-name="Path 792" d="M868.668,739.623s.183-3.222-2.78-1.889-1.054,2.778-1.054,2.778Z" transform="translate(187.274 1121.538)" fill="#fff" opacity="0.1"/>
      <path id="Path_793-2" data-name="Path 793" d="M922.546,733.484v.444l.479.213.977-.213s.209-1.819-.592-2.338A4.291,4.291,0,0,0,922.546,733.484Z" transform="translate(121.224 1126.122)" fill="#fff" opacity="0.1"/>
      <path id="Path_794" data-name="Path 794" d="M790,738.159v.867s12.47,1,13.8,1h.011a2.051,2.051,0,0,1,1.959-.332,2.09,2.09,0,0,1,.493.332c.044.04.086.083.127.125a2.985,2.985,0,0,1,.469.663,9,9,0,0,1,.675,4.1c2.492.888,5.08-1.443,5.08-1.443a15.867,15.867,0,0,1,1.309-3.4,2.641,2.641,0,0,1,1-1.1l.866-.935-.042-.531-6.956,5.861s-.671-5-2.2-4.665a29.951,29.951,0,0,1-4.6.334Z" transform="translate(253.77 1121.468)" opacity="0.1"/>
      <path id="Path_795" data-name="Path 795" d="M812.993,737.36s.576,1.666,0,1.779-1.869-1.275-3.547,4.554c0,0-2.588,2.338-5.08,1.443,0,0,.3-4.221-1.77-5.222s-5.514,4-5.514,4v1.111l-8.148-1a7.886,7.886,0,0,1-2.4-5.664l12.268.888a29.982,29.982,0,0,0,4.6-.334c1.533-.334,2.2,4.675,2.2,4.675Z" transform="translate(256.944 1121.578)" fill="#33ea73"/>
      <path id="Path_796" data-name="Path 796" d="M557.8,630.4a10.953,10.953,0,0,1-1.881-2.3,11.834,11.834,0,0,1-.974-2.676q-1.076-3.972-1.854-8.044c2.822-.5,4.929-3.388,7.689-4.236.066-.021,2.177,14.676,2.331,16.02.126,1.109,1.219,6.407-.026,6.437-.666.017-2.056-1.913-2.547-2.421Z" transform="translate(549.324 1219.399)" fill="#00295d"/>
      <path id="Path_798" data-name="Path 798" d="M337.151,511.816a1.841,1.841,0,0,1,.9.293,2.911,2.911,0,0,1,.635,1.33,3.169,3.169,0,0,0,1.109,1.488c.42.3.932.5,1.183.986a2.467,2.467,0,0,1,.2,1.063,23.6,23.6,0,0,1-.126,3.26,5.705,5.705,0,0,0-.039,1.628,4.844,4.844,0,0,0,.77,1.668,8.623,8.623,0,0,1,1.586,4.112,12.877,12.877,0,0,0,.051,2.291c.3,1.315,1.5,2.174,1.733,3.5a7.23,7.23,0,0,0,.183,1.177c.231.638.867.986,1.031,1.643a5.8,5.8,0,0,1-.07,1.526,4.5,4.5,0,0,0,.647,2.089l1.909,3.762a10.477,10.477,0,0,1,1.359,3.906,9.972,9.972,0,0,1-.611,3.672c-.82,2.625-2.037,5.4-4.284,6.414a8.209,8.209,0,0,1-4.209.331,26.23,26.23,0,0,1-5.755-.988c-.926-.3-1.834-.71-2.769-.927a13.365,13.365,0,0,1-1.865-.444,4.361,4.361,0,0,1-2.5-3.507c-.8.365-1.54-.85-1.427-1.836a23.642,23.642,0,0,1,.917-2.778,6.2,6.2,0,0,0-.55-3.968c-.55-1.216-1.309-2.291-1.909-3.475a14.612,14.612,0,0,1-1.372-4.284,30.557,30.557,0,0,1-.125-6.2l.378-7.9a12.546,12.546,0,0,1,.7-4.25,9.649,9.649,0,0,1,2.8-3.422,46.826,46.826,0,0,1,5.089-3.906c1.141-.74,1.06-.453,1.968.425A4.78,4.78,0,0,0,337.151,511.816Z" transform="translate(804.855 1300.895)" fill="#00295d"/>
      <path id="Path_799" data-name="Path 799" d="M467.537,604.624a21.068,21.068,0,0,1,3.607,3.914,12.506,12.506,0,0,1,1.959,6.416,22.864,22.864,0,0,1-.2,3.245c-.2,1.753-.55,3.706-1.825,4.675-.8.61-1.907.763-2.456,1.677a8.1,8.1,0,0,1-.475.89,1.921,1.921,0,0,1-1.467.593,11.743,11.743,0,0,1-2.366-.085,7.659,7.659,0,0,0-2.7-.157c-1.728.376-3.017,2.266-4.768,2.518-1.454.213-2.817-.767-4.034-1.7a9.494,9.494,0,0,1-3.248-3.551,11.665,11.665,0,0,1-.574-4.992,27.8,27.8,0,0,1,.55-5.613,11.165,11.165,0,0,0,.31-1.458,9.854,9.854,0,0,0-.734-3.749c-.57-1.855-.82-4.142.314-5.608a4.207,4.207,0,0,1,1.819-1.275c2.98-1.241,6.27-.769,9.327-.213C463.5,600.665,465.248,602.535,467.537,604.624Z" transform="translate(659.053 1230.076)" fill="#00295d"/>
      <path id="Path_800" data-name="Path 800" d="M574.772,550.955a44.684,44.684,0,0,1,3.218,6.376,45.691,45.691,0,0,1,1.467,5.015c1.177,4.716,2.346,9.534,4.7,13.616a4.345,4.345,0,0,1,.746,1.9,4.133,4.133,0,0,1-.5,1.862,18.883,18.883,0,0,1-1.911,3.562,16.909,16.909,0,0,1-2.67,2.7c-1.964,1.7-4.146,3.5-6.6,3.375a1.8,1.8,0,0,1-1.39-.6,2.244,2.244,0,0,1-.326-1.613c.184-1.749,1.32-3.124,2.351-4.42s2.067-2.812,1.984-4.58a7.54,7.54,0,0,0-1.68-3.844c-.9-1.3-1.81-2.608-2.663-3.957a80.8,80.8,0,0,1-8.461-19.273,23.351,23.351,0,0,1-1.421-8.926c2.017-.574,6.052-2.491,7.755-.512a28.363,28.363,0,0,1,2.567,4.388Z" transform="translate(526.547 1276.401)" fill="#ffccbc"/>
      <path id="Path_801" data-name="Path 801" d="M645.63,448.26a39.812,39.812,0,0,1,2.978,8.2,5.112,5.112,0,0,1,.193,2.125,7.858,7.858,0,0,1-.917,2.034,2.669,2.669,0,0,0-.266,2.187,10.786,10.786,0,0,0,4.231-.771l4.335-1.4a2.115,2.115,0,0,0,.981-.527,2.9,2.9,0,0,0,.367-2.265c-.849-6.473-3.576-12.441-4.6-18.878a4.382,4.382,0,0,0-.943-2.55c-1.834-1.679-5.986-.257-6.936,2.174C643.995,441.287,644.429,445.835,645.63,448.26Z" transform="translate(438.656 1359.143)" fill="#ff84b5"/>
      <path id="Path_802" data-name="Path 802" d="M597.634,370.423a.742.742,0,0,1,.4.412.825.825,0,0,1-.173.6l-1.85,3.018a94.638,94.638,0,0,1-5.764,8.683,43.814,43.814,0,0,1-5.216,5.623,4.385,4.385,0,0,0-1.35,1.687,18.653,18.653,0,0,0-.572-12.065c-.605-1.488-1.4-2.867-2.034-4.346a.7.7,0,0,1-.1-.6.57.57,0,0,1,.39-.406c1.6-.956,3.356-1.534,4.951-2.508a26.641,26.641,0,0,0,3.508-2.739c1-.873,2.338-2.416,3.576-2.784,1.337-.4,1.284,1.014,1.715,2.193A6.265,6.265,0,0,0,597.634,370.423Z" transform="translate(509.86 1414.856)" fill="#fbbebe"/>
      <path id="Path_803" data-name="Path 803" d="M597.634,370.423a.742.742,0,0,1,.4.412.825.825,0,0,1-.173.6l-1.85,3.018a94.638,94.638,0,0,1-5.764,8.683,43.814,43.814,0,0,1-5.216,5.623,4.385,4.385,0,0,0-1.35,1.687,18.653,18.653,0,0,0-.572-12.065c-.605-1.488-1.4-2.867-2.034-4.346a.7.7,0,0,1-.1-.6.57.57,0,0,1,.39-.406c1.6-.956,3.356-1.534,4.951-2.508a26.641,26.641,0,0,0,3.508-2.739c1-.873,2.338-2.416,3.576-2.784,1.337-.4,1.284,1.014,1.715,2.193A6.265,6.265,0,0,0,597.634,370.423Z" transform="translate(509.86 1414.856)" opacity="0.1"/>
      <path id="Path_804" data-name="Path 804" d="M407.929,380.457a22.411,22.411,0,0,1,2.962-2.731,23.588,23.588,0,0,0,3.644-4.686c2-3.109,4.014-6.917,3.018-10.626,1.058-.119,1.971.888,2.47,1.974a29.159,29.159,0,0,0,1.377,3.32c.944,1.515,2.551,2.221,4.047,2.914a62.822,62.822,0,0,1,9.5,5.472,14.041,14.041,0,0,1,3.365,3.007,44.385,44.385,0,0,1,2.47,4.431,14.988,14.988,0,0,0,6.943,6.227,12.069,12.069,0,0,1,2.72,1.36c1.757,1.375,2.489,4.116,2.072,6.526a10.247,10.247,0,0,1-3.538,5.921,21.143,21.143,0,0,1-5.61,3.169q-2.472,1.052-4.975,2.006a25.538,25.538,0,0,1-3.758,1.182c-2.346.5-4.757.376-7.128.68-2.168.276-4.3.912-6.474,1.088a8.541,8.541,0,0,1-6.255-1.628,13.972,13.972,0,0,1-3.217-4.675,136.305,136.305,0,0,1-6.022-13.954c-.519-1.417-5.335-9.446-4.135-10.483,6.039-5.222,4.034,3.075,4.61,2.437C406.79,382.533,407.232,381.369,407.929,380.457Z" transform="translate(688.219 1416.849)" fill="#ff84b5"/>
      <path id="Path_805" data-name="Path 805" d="M423.942,368.24a71.1,71.1,0,0,0,3.044-9.474,5.172,5.172,0,0,0,.224-2.741c-.312-1.063-1.309-1.97-1.016-3.035,2.333.85,5.041,2.183,5.5,4.969a7.432,7.432,0,0,0,.326,1.8c.475,1.075,1.685,1.3,2.714,1.488a13.091,13.091,0,0,1,8.018,4.539,6.721,6.721,0,0,0,1.1,1.226,4.481,4.481,0,0,0,.988.51,11.106,11.106,0,0,1,5.36,3.842c.666,1.012,1.091,2.225,1.834,3.164,1,1.275,2.485,1.913,3.572,3.1a11.1,11.1,0,0,1,1.74,2.807c1.863,3.9,6.439,8.339,5.451,12.651-.515,2.255-4.86,4.4-5.471,6.624-.842,3.028-.759,6.482-2.338,9.085a9.979,9.979,0,0,1-4.113,3.534,19.44,19.44,0,0,1-11.187,2.087,36.481,36.481,0,0,1-4.218-.825,33.984,33.984,0,0,1-9.7-3.458c-5.151-3.067-8.858-8.547-12.4-13.86a19.033,19.033,0,0,1-1.834-3.188,26.228,26.228,0,0,1-1.073-3.47c-1.073-3.955-2.582-7.893-2.441-12.033a4.027,4.027,0,0,1,.248-1.443c.143-.34.367-.638.493-.98a18.884,18.884,0,0,0,.281-1.959c.438-1.785,2.463-2.125,4.066-2.11l.514,10.475c.079,1.573.224,3.317,1.234,4.371a2.4,2.4,0,0,0,3.162.287c1.078-.81,1.231-2.223,1.223-3.577a16.789,16.789,0,0,1,.576-4.888C420.788,374.384,422.582,371.417,423.942,368.24Z" transform="translate(679.686 1424.263)" fill="#ff5498"/>
      <path id="Path_806" data-name="Path 806" d="M637.042,525.585c-6.385,3.751-12.808,7.53-18.522,12.524-1.32,1.152-2.6,2.372-4,3.4-4,2.945-8.962,4.38-12.048,8.545a23.743,23.743,0,0,1-1.948,2.612,8.248,8.248,0,0,1-2.153,1.488,16.785,16.785,0,0,1-7.875,1.872,4.355,4.355,0,0,1-2.078-.425c-1.718-.965-2.109-3.549-2.283-5.753a2.593,2.593,0,0,1,.435-2.089,1.868,1.868,0,0,1,.977-.374c5.577-1.02,10.723-4.131,15.382-7.827s8.931-8.01,13.527-11.812c1.616-1.337,3.27-2.61,4.924-3.883l5.353-4.119c2.831-2.178,5.813-4.422,9.2-4.833a1.059,1.059,0,0,1,.576.045,1.5,1.5,0,0,1,.607.818,62.905,62.905,0,0,0,3.416,6.348c.651,1.109.724,1.4-.4,1.989C639.12,524.648,638.049,524.994,637.042,525.585Z" transform="translate(465.947 1296.768)" fill="#ffccbc"/>
      <ellipse id="Ellipse_102" data-name="Ellipse 102" cx="17.541" cy="20.327" rx="17.541" ry="20.327" transform="translate(1070.895 1758.97)" fill="#ffccbc"/>
      <path id="Path_808" data-name="Path 808" d="M611.168,260.418c-.312-1.826-2.12-2.748-3.721-2.871a8.918,8.918,0,0,0-8.238,4.854,17.038,17.038,0,0,1-.745-3.536l-2.934.253a1.769,1.769,0,0,1-.976-.1,2.144,2.144,0,0,1-.807-1.063c-1.284-2.778-2.142-6.186-4.552-7.651v3.825a4.529,4.529,0,0,1-3.086-2.718,16.854,16.854,0,0,1-.785,3.088c-.059.166-.141.349-.29.391a.475.475,0,0,1-.4-.168,19.051,19.051,0,0,1-3.028-3.4l-3.484,7c-4.162-12.18.046-26.052,9.87-32.534a16.873,16.873,0,0,1,2.514-1.388,21.927,21.927,0,0,1,7.132-1.5c3.438-.272,7.068-.261,10.086,1.649A20.076,20.076,0,0,1,612,228.611a21.978,21.978,0,0,1,4.458,6.907,25.268,25.268,0,0,1,1.065,5.846,10.483,10.483,0,0,1-.066,3.6c-.205.8-.592,1.522-.853,2.3a20.83,20.83,0,0,0-.668,4.089,27.42,27.42,0,0,1-2.529,8.658c-.275.567-.627,1.171-1.175,1.315a.838.838,0,0,1-.917-1.109" transform="translate(491.055 1526.806)" fill="#4a4a45"/>
      <path id="Path_809" data-name="Path 809" d="M611.168,260.418c-.312-1.826-2.12-2.748-3.721-2.871a8.918,8.918,0,0,0-8.238,4.854,17.038,17.038,0,0,1-.745-3.536l-2.934.253a1.769,1.769,0,0,1-.976-.1,2.144,2.144,0,0,1-.807-1.063c-1.284-2.778-2.142-6.186-4.552-7.651v3.825a4.529,4.529,0,0,1-3.086-2.718,16.854,16.854,0,0,1-.785,3.088c-.059.166-.141.349-.29.391a.475.475,0,0,1-.4-.168,19.051,19.051,0,0,1-3.028-3.4l-3.484,7c-4.162-12.18.046-26.052,9.87-32.534a16.873,16.873,0,0,1,2.514-1.388,21.927,21.927,0,0,1,7.132-1.5c3.438-.272,7.068-.261,10.086,1.649A20.076,20.076,0,0,1,612,228.611a21.978,21.978,0,0,1,4.458,6.907,25.268,25.268,0,0,1,1.065,5.846,10.483,10.483,0,0,1-.066,3.6c-.205.8-.592,1.522-.853,2.3a20.83,20.83,0,0,0-.668,4.089,27.42,27.42,0,0,1-2.529,8.658c-.275.567-.627,1.171-1.175,1.315a.838.838,0,0,1-.917-1.109" transform="translate(491.055 1526.806)" fill="none"/>
      <g transform="matrix(1, 0, 0, 1, 339.69, 1285.07)" filter="url(#Path_810)">
        <path id="Path_810-2" data-name="Path 810" d="M528.159,445.863c-.708,2.255-2.487,3.785-4.174,5.179l-4.4,3.638a11.878,11.878,0,0,0-3.132,3.381,3.01,3.01,0,0,1,1.256,3.46,4.106,4.106,0,0,1-2.553,2.68,8.427,8.427,0,0,1-3.541.332,6.772,6.772,0,0,1-3.924-1.177l2.478-1.768c.653-.47,1.4-1.218,1.164-2.061l-2.613-.03a1.129,1.129,0,0,1-.792-.213,1.7,1.7,0,0,1-.385-.791,5.972,5.972,0,0,0-4.882-4.267c-.646-.055-1.388-.023-1.834-.58a2.716,2.716,0,0,1-.4-1.4,10.439,10.439,0,0,1-.031-2.837,3.076,3.076,0,0,1,1.375-2.231,5.528,5.528,0,0,1,1.788-.355c2.767-.425,4.685-3.332,6.171-6.072s3.079-5.77,5.727-6.79a8.15,8.15,0,0,1,2.547-.453,10.783,10.783,0,0,1,5.613,1.007C526.853,436.23,529.42,441.851,528.159,445.863Z" transform="translate(254.5 75.8)" fill="#ff5498"/>
      </g>
      <path id="Path_811" data-name="Path 811" d="M578.229,322.44l3.484-7a18.978,18.978,0,0,0,3.028,3.4.471.471,0,0,0,.4.17c.149-.042.231-.225.29-.391a16.886,16.886,0,0,0,.785-3.09,4.528,4.528,0,0,0,3.086,2.72v-3.825c2.41,1.469,3.261,4.877,4.552,7.651a2.172,2.172,0,0,0,.807,1.063,1.769,1.769,0,0,0,.976.1l2.934-.253a17.03,17.03,0,0,0,.745,3.536,8.918,8.918,0,0,1,8.238-4.854c1.6.123,3.409,1.046,3.721,2.871l.156-.2c-.3.555.367,1.256.917,1.112s.9-.748,1.175-1.316a27.447,27.447,0,0,0,2.518-8.664,20.821,20.821,0,0,1,.668-4.089c.26-.78.647-1.5.853-2.3a.434.434,0,0,1,.018-.081c.017.159.033.319.048.478a10.565,10.565,0,0,1-.066,3.613c-.205.8-.592,1.522-.853,2.3a20.842,20.842,0,0,0-.668,4.091,27.4,27.4,0,0,1-2.518,8.662c-.275.567-.627,1.173-1.175,1.318a.839.839,0,0,1-.917-1.111l-.156.2c-.312-1.823-2.12-2.748-3.721-2.869a8.912,8.912,0,0,0-8.238,4.852,16.986,16.986,0,0,1-.745-3.534l-2.934.251a1.757,1.757,0,0,1-.976-.1,2.143,2.143,0,0,1-.807-1.063c-1.284-2.78-2.142-6.186-4.552-7.651v3.825a4.528,4.528,0,0,1-3.086-2.72,16.941,16.941,0,0,1-.785,3.09c-.059.164-.141.349-.29.389a.463.463,0,0,1-.4-.168,18.975,18.975,0,0,1-3.028-3.4l-3.484,7a30.38,30.38,0,0,1-1.513-11.688A29.844,29.844,0,0,0,578.229,322.44Z" transform="translate(490.938 1458.904)" opacity="0.1"/>
      <ellipse id="Ellipse_100" data-name="Ellipse 100" cx="1.342" cy="2.444" rx="1.342" ry="2.444" transform="translate(1068.594 1862.049)" fill="#fff" opacity="0.1"/>
      <ellipse id="Ellipse_101" data-name="Ellipse 101" cx="1.342" cy="2.444" rx="1.342" ry="2.444" transform="translate(1058.337 1863.382)" fill="#fff" opacity="0.1"/>
      <path id="Path_807" data-name="Path 807" d="M674.885,854.078a.322.322,0,1,1,.275-.319A.3.3,0,0,1,674.885,854.078Z" transform="translate(415.558 1030.167)"/>
    </g>
    <path id="Path_999" data-name="Path 999" d="M83.659-1343.565s5.2-30.772-2.189-46.179c-5.735-11.96-13.544-6.374-13.544-6.374s-6.977-4.953-12.176.963-13.955,20.861-3.557,39.019S83.659-1343.565,83.659-1343.565Z" transform="translate(535.195 2738.667)" fill="#6a371a"/>
    <path id="Path_1000" data-name="Path 1000" d="M93.423-1212.911l-12.936-21.764-4.867-8.8a38.025,38.025,0,0,1,19.091-.2l1.42,8.785S96.122-1220.576,93.423-1212.911Z" transform="translate(515.676 2630.137)" fill="#fff"/>
    <path id="Path_1001" data-name="Path 1001" d="M19-1231.1s4.479,2.267,11.837,28.634l-8.187.819S14.83-1228.35,19-1231.1Z" transform="translate(599.016 2620.434)" fill="#b9c4c6"/>
    <g id="Group_198" data-name="Group 198" transform="translate(581.369 1481.359)">
      <path id="Path_1002" data-name="Path 1002" d="M109.267-915.8h19.941c-.128,7.992-.569,17.13-1.829,22.866-2.692,12.254-.565,53.6-.565,53.6l-7.577.383c-11.286-38.573-5.071-58.22-5.071-58.22A117.022,117.022,0,0,1,109.267-915.8Z" transform="translate(-109.267 915.802)" fill="#f8bd95"/>
    </g>
    <g id="Group_199" data-name="Group 199" transform="translate(590.488 1553.5)">
      <path id="Path_1003" data-name="Path 1003" d="M112.5-653.944s5.641,18.839,3.568,19.128H104.8s-1.683.642.144-18.745l4.106-.455Z" transform="translate(-104.096 658.279)" fill="#25302c"/>
      <path id="Path_1004" data-name="Path 1004" d="M118.531-664.3l1.881,14.346c-.98.193-6.183-.758-8.131.579a92.384,92.384,0,0,1-1.308-14.542l3.484-4.709Z" transform="translate(-110.122 668.621)" fill="#f8bd95"/>
    </g>
    <g id="Group_203" data-name="Group 203" transform="translate(600.469 1481.359)">
      <g id="Group_201" data-name="Group 201" transform="translate(0)">
        <path id="Path_1005" data-name="Path 1005" d="M45.538-915.8H64.42c-2.387,10.927-4.8,21.551-5.849,24.907-2.413,7.71-4.751,51.561-4.751,51.561H45.975a178.509,178.509,0,0,0-1.8-20.422c-3.937-27.168,2.232-38.4,2.232-38.4A85.924,85.924,0,0,1,45.538-915.8Z" transform="translate(-42.862 915.802)" fill="#f8bd95"/>
      </g>
      <g id="Group_202" data-name="Group 202" transform="translate(0 73.325)">
        <path id="Path_1006" data-name="Path 1006" d="M36.334-653.8c2.565,6.838,9.194,14.346,9.194,14.346l5.774.614,5.784,1.2a2.436,2.436,0,0,1,.18,3.263H42.572l-5.024-11.646.341,11.646H36.354L33.221-648.7A7.364,7.364,0,0,1,36.334-653.8Z" transform="translate(-33.221 656.941)" fill="#25302c"/>
        <path id="Path_1007" data-name="Path 1007" d="M54.006-661.441l3.692-3.124,4.154,3.119s4.481,13.248,7.123,14.983L63.7-646.5S56.571-654.6,54.006-661.441Z" transform="translate(-50.893 664.565)" fill="#f8bd95"/>
      </g>
    </g>
    <path id="Path_1009" data-name="Path 1009" d="M39.819-1192.711c-1.85-11.387-3.93-28.687-3.93-28.687v-16.353a35.757,35.757,0,0,1,7.738-3.008l5.88,8.515,11.823,19.667c2.7-7.664,1.622-19.522,1.622-19.522l-.353-8.857a30.81,30.81,0,0,1,7.624,2.878l1.3,6.85c4.873,5.8,6.338,9.177,6.384,10.864.1,3.8-4.543,7.17-4.543,7.17l-.6,19.483s9.6,20.564,3.07,65.151c0,0-21.861,7.175-44.907-.972C30.93-1129.532,27.21-1171.364,39.819-1192.711Z" transform="translate(547.795 2627.415)" fill="#dae6e8"/>
    <path id="Path_1010" data-name="Path 1010" d="M85.345-1228l2.188,2.218s-2.871,11.858-7.5,18.124c0,0-13.094-11.086-16.618-16.871l3.041-2.8-4.428-.1L57.64-1239.3a40.528,40.528,0,0,1,4.383-1.454l5.943,8.515,11.854,19.667c2.7-7.664,1.638-19.522,1.638-19.522l-.345-8.857a36.721,36.721,0,0,1,3.669,1.115l3.36,11.067Z" transform="translate(529.273 2627.415)" fill="#e9f1f2"/>
    <path id="Path_1011" data-name="Path 1011" d="M7.337-1115.466H6.022l1.117-.02A1.066,1.066,0,0,0,7.337-1115.466Z" transform="translate(626.18 2538.565)" fill="none"/>
    <path id="Path_1012" data-name="Path 1012" d="M32.528-1068.408l17.921,18.51s-1.024-10.773-3.013-17.642Z" transform="translate(574.801 2505.227)" fill="#b9c4c6"/>
    <g id="Group_207" data-name="Group 207" transform="translate(587.512 1381.255)">
      <g id="Group_204" data-name="Group 204" transform="translate(0.288 36.063)">
        <path id="Path_1013" data-name="Path 1013" d="M125.664-1130.57a3.939,3.939,0,0,1,3.336-4.585,4.2,4.2,0,0,1,4.929,3.1,3.939,3.939,0,0,1-3.337,4.585A4.2,4.2,0,0,1,125.664-1130.57Z" transform="translate(-125.587 1135.227)" fill="#b7bcbc"/>
        <path id="Path_1014" data-name="Path 1014" d="M131.782-1126.576a2.144,2.144,0,0,1,1.815-2.5,2.287,2.287,0,0,1,2.682,1.689,2.144,2.144,0,0,1-1.816,2.495A2.287,2.287,0,0,1,131.782-1126.576Z" transform="translate(-129.822 1130.895)" fill="#919191"/>
      </g>
      <path id="Path_1015" data-name="Path 1015" d="M139.33-1133.434l1.15-.248-.532-2.14-1.15.248Z" transform="translate(-135.895 1171.711)" fill="#919191"/>
      <g id="Group_205" data-name="Group 205" transform="translate(25.866 17.21)">
        <path id="Path_1016" data-name="Path 1016" d="M48-1180.141a21.063,21.063,0,0,0,5.552-2.474c.394-.3,1.318-1,1.249-9.306-.033-3.988-.285-7.862-.288-7.9l-1.179.068c.478,7.261.411,15.554-.53,16.29a20.261,20.261,0,0,1-5.153,2.274Z" transform="translate(-47.649 1199.822)" fill="#898989"/>
      </g>
      <g id="Group_206" data-name="Group 206" transform="translate(23.415 18.243)">
        <path id="Path_1017" data-name="Path 1017" d="M50.532-1177.791l.357-1.047c-.041-.012-3.977-1.173-5.086-1.607-.781-.846-3.8-8.743-6.282-15.84l-1.123.339c.014.04,1.393,3.982,2.882,7.926,3.094,8.192,3.608,8.4,3.984,8.554C46.327-1179.031,50.36-1177.841,50.532-1177.791Z" transform="translate(-38.397 1196.284)" fill="#898989"/>
      </g>
      <path id="Path_1018" data-name="Path 1018" d="M51.02-1253.552a12.415,12.415,0,0,1,8.5-5.047c5.064-.835,9.439,1.084,12.651,5.549a22.808,22.808,0,0,1,3.122,6.316,4.639,4.639,0,0,1,3.132.806c2.157,1.539,2.424,4.679,2.434,4.812l-1.472.1a5.74,5.74,0,0,0-1.86-3.821,3.331,3.331,0,0,0-2.64-.463,2.906,2.906,0,0,0-2.155,1.285c-.945,1.6.095,4.1.105,4.124l-1.371.508c-.054-.127-1.307-3.118-.03-5.288a4.039,4.039,0,0,1,2.4-1.786,21.678,21.678,0,0,0-2.916-5.856c-2.9-4.013-6.65-5.673-11.146-4.932a10.826,10.826,0,0,0-7.52,4.448c-3.792,5.38-3.777,15.652.045,30.529l-1.435.319C46.888-1237.427,46.939-1247.763,51.02-1253.552Z" transform="translate(-47.92 1258.79)" fill="#4f4f4f"/>
      <path id="Path_1019" data-name="Path 1019" d="M67.851-1136.134a.853.853,0,0,0,1.058.494l.653-.2a.768.768,0,0,0,.531-.984l-.124-.346a.852.852,0,0,0-1.057-.494l-.653.2a.768.768,0,0,0-.531.985Z" transform="translate(-43.365 1173.045)" fill="#b7bcbc"/>
      <path id="Path_1020" data-name="Path 1020" d="M35.078-1137.112a.783.783,0,0,0,.661.914l.674.122a.836.836,0,0,0,.982-.614l.075-.358a.783.783,0,0,0-.661-.914l-.675-.123a.836.836,0,0,0-.982.615Z" transform="translate(-0.54 1173.324)" fill="#b7bcbc"/>
    </g>
    <path id="Path_1021" data-name="Path 1021" d="M138.011-990.15s-8.628.386-14.366-.964c0,0-.5,12.876-.013,15.693l7.082,2.817,7.3-2.817S136.975-987.258,138.011-990.15Z" transform="translate(458.887 2450.492)" fill="#e9f1f2"/>
    <path id="Path_1022" data-name="Path 1022" d="M33.3-994.046a19.661,19.661,0,0,1-3.856.856s.518,12.629,0,14.75l4.138,1.349S34.666-987.671,33.3-994.046Z" transform="translate(592.223 2452.569)" fill="#e9f1f2"/>
    <g id="Group_208" data-name="Group 208" transform="translate(596.133 1373.462)">
      <path id="Path_1023" data-name="Path 1023" d="M104.887-1258.672l.03,7.158-9.415.034-.039-9.312A15.182,15.182,0,0,0,104.887-1258.672Z" transform="translate(-95.433 1267.999)" fill="#f5bc83"/>
      <path id="Path_1024" data-name="Path 1024" d="M95.589-1278.28l-.03-7.173,9.415-.035.04,9.328A15.182,15.182,0,0,1,95.589-1278.28Z" transform="translate(-95.559 1285.488)" fill="#e48f61"/>
    </g>
    <g transform="matrix(1, 0, 0, 1, 184.69, 1238.07)" filter="url(#Path_1025)">
      <path id="Path_1025-2" data-name="Path 1025" d="M96.583-1252.482s.167,4.143-2.93,5.8c0,0-6.18-1.262-6.615-5.881l-3.387,3.238s3.872,6.839,8.366,8.91l1.832-5.254,4.771,4.386s1.935-5.122,1.613-8.486Z" transform="translate(324.34 1397.57)" fill="#fff" stroke="#f3f3f3" stroke-width="0.2"/>
    </g>
    <g id="Group_211" data-name="Group 211" transform="translate(582.398 1345.619)">
      <path id="Path_1026" data-name="Path 1026" d="M66.44-1365.771l1.179.426c11.066-4.7,14.814-15.544,14.814-15.544,2.653,6.272,9.473,15.129,13.132,16.678a58.438,58.438,0,0,1-.792,7.995c-.82,5.465-4.092,9.345-9.945,10.358-14.112,2.443-17.415-10.064-17.415-10.064s-5.252-.13-5.538-6.469C61.639-1367.575,66.44-1365.771,66.44-1365.771Z" transform="translate(-61.865 1380.889)" fill="#f8bd95"/>
      <g id="Group_209" data-name="Group 209" transform="translate(15.754 26.918)">
        <path id="Path_1029" data-name="Path 1029" d="M98.735-1288.229a22.2,22.2,0,0,1-9.366-.431s1.174,4.412,5.116,4.3C98-1284.451,98.735-1288.229,98.735-1288.229Z" transform="translate(-89.369 1288.66)" fill="#56362e"/>
        <path id="Path_1030" data-name="Path 1030" d="M98.837-1287.459a18.58,18.58,0,0,1-8.994-.413s.789,1.856,4.931,1.923C98.454-1285.89,98.837-1287.459,98.837-1287.459Z" transform="translate(-89.619 1288.102)" fill="#fff"/>
      </g>
      <path id="Path_1031" data-name="Path 1031" d="M64.815-1334a7.844,7.844,0,0,1,6.537,1.4s.059-.388-.61-1.078a6.227,6.227,0,0,0-4.978-1.392S64.369-1334.42,64.815-1334Z" transform="translate(-38.546 1348.497)" fill="#6a371a"/>
      <path id="Path_1032" data-name="Path 1032" d="M115.964-1333.278a7.878,7.878,0,0,0-6.67.665s-.009-.392.743-1a6.3,6.3,0,0,1,5.121-.832S116.46-1333.647,115.964-1333.278Z" transform="translate(-97.172 1348.156)" fill="#6a371a"/>
      <g id="Group_210" data-name="Group 210" transform="translate(20.877 19.208)">
        <path id="Path_1033" data-name="Path 1033" d="M88.178-1308.745c2.721,1.288,4.356.175,4.585-1.057a1.759,1.759,0,0,0-1.083-1.931c-1.66-.762-2.643-3.318-2.652-3.344h0a5.179,5.179,0,0,0,2.425,4.093c.447.293.716.585.643.982-.129.69-1.306,1.643-3.918,1.256Z" transform="translate(-88.178 1315.076)" fill="#e48f61"/>
      </g>
      <path id="Path_1034" data-name="Path 1034" d="M74.155-1324.443s1.742.02,1.985-.588c0,0,.221.856-.836,1.144a2.342,2.342,0,0,1,.547,1.54,1.928,1.928,0,0,1-1.7,2.1,1.928,1.928,0,0,1-1.7-2.1A1.928,1.928,0,0,1,74.155-1324.443Z" transform="translate(-45.764 1341.333)" fill="#56362e"/>
      <path id="Path_1035" data-name="Path 1035" d="M117.01-1324.443s1.742.02,1.985-.588c0,0,.221.856-.836,1.144a2.342,2.342,0,0,1,.547,1.54,1.928,1.928,0,0,1-1.7,2.1,1.928,1.928,0,0,1-1.7-2.1A1.928,1.928,0,0,1,117.01-1324.443Z" transform="translate(-101.988 1341.333)" fill="#56362e"/>
      <path id="Path_1036" data-name="Path 1036" d="M137.869-1338.267s.9,9.136,4.782-1.715C144.72-1345.767,137.869-1338.267,137.869-1338.267Z" transform="translate(-133.05 1353.473)" fill="#6a371a"/>
    </g>
    <path id="Path_1037" data-name="Path 1037" d="M7.383-1175.441l-.7-.94-26.97-.289-9.776,31.6.832.868,10.265-30.512Z" transform="translate(637.391 2581.892)" fill="#001a3b"/>
    <path id="Path_1038" data-name="Path 1038" d="M6.551-1172.892H-20.5l-9.565,31.235H-3.087Z" transform="translate(638.225 2579.217)" fill="#00295d"/>
    <path id="Path_1039" data-name="Path 1039" d="M-19.506-1116.53h.175s6.338-.054,6.976-.081l-1.914-.447s-4.77.635-4.77-.285v-.145a1.038,1.038,0,0,1,.94-.928l-.048,0s3.351-.636,4.076-.613,3.421.6,3.421.6a.951.951,0,0,1,.938.94v.145a1.059,1.059,0,0,1-.3.63s-.038,0-.039,0c-.09.128-.02.433-.02.433l.067,0c.308.129.6.352.6.665v.145c0,.365-.385.75-.772.948,0,0-.045.006-.048.009-.382.279-.2.449-.2.449h-.011a.778.778,0,0,1,.217.288.94.94,0,0,1-.311,1.058,1.361,1.361,0,0,1-.529.247.575.575,0,0,0-.423.659.406.406,0,0,1,.054.173.872.872,0,0,1-.329.668,1.966,1.966,0,0,1-1.118.358c-.287.013-.572-.018-.858-.014-1.056.013-2.113.007-3.169,0-.254,0-.431,0-.685,0a1,1,0,0,1-.829-.937v-.126a.788.788,0,0,1,.751-.8h-.751a.967.967,0,0,1-.933-.958v-.144a1,1,0,0,1,1.01-.922h-1.166c-.589,0-1.088-.234-1.088-.753v-.35A1.016,1.016,0,0,1-19.506-1116.53Z" transform="translate(651.223 2541.075)" fill="#f8bd95"/>
    <path id="Path_1040" data-name="Path 1040" d="M-3.9-1157.283l2.852-9.154-7.308-6.455H-23.59Z" transform="translate(643.805 2579.217)" fill="#2d67b0"/>
    <g id="Group_213" data-name="Group 213" transform="translate(567.553 1389.665)">
      <path id="Path_1044" data-name="Path 1044" d="M195.9-1229.976s-16.581,29.142-15.856,35.939v21.755s6.04,4.81,7.439-1.263l2.526-22.6,7.367-16.871S200.626-1223.915,195.9-1229.976Z" transform="translate(-180.025 1229.976)" fill="#dae6e8"/>
    </g>
    <g id="Group_351" data-name="Group 351" transform="matrix(1, -0.017, 0.017, 1, 548.426, 1459.612)">
      <path id="Path_652-2" data-name="Path 652" d="M0,7.1V0H8.824V7.1Z" transform="translate(17.785 0)" fill="none" stroke="#00295d" stroke-linecap="round" stroke-linejoin="round" stroke-width="4"/>
      <rect id="Rectangle_98" data-name="Rectangle 98" width="44.698" height="30.501" rx="6" transform="translate(0 3.491)" fill="#00295d"/>
      <rect id="Rectangle_99" data-name="Rectangle 99" width="4.821" height="10.929" rx="1" transform="translate(19.783 9.083)" fill="#fff"/>
      <rect id="Rectangle_100-2" data-name="Rectangle 100" width="11.893" height="4.5" rx="1" transform="translate(16.251 12.298)" fill="#fff"/>
      <text id="MOBIDOC" transform="translate(6.916 27.655)" fill="#fff" stroke="#fff" stroke-width="0.6" font-size="5" font-family="Montserrat-ExtraBold, Montserrat" font-weight="800" letter-spacing="0.1em"><tspan x="0" y="0">MOBIDOC</tspan></text>
    </g>
    <path id="Path_1151" data-name="Path 1151" d="M.734,1.687H.852s4.275-.037,4.7-.055l-1.291-.3s-3.217.428-3.217-.192v-.1A.7.7,0,0,1,1.682.415H1.649S3.91-.016,4.4,0,6.706.407,6.706.407a.642.642,0,0,1,.633.634v.1a.715.715,0,0,1-.2.425l-.026,0c-.06.086-.013.292-.013.292h.045c.207.087.406.237.406.449v.1c0,.246-.26.506-.521.639,0,0-.03,0-.032.006-.258.188-.138.3-.138.3H6.851A.524.524,0,0,1,7,3.549a.634.634,0,0,1-.21.714.915.915,0,0,1-.357.167.388.388,0,0,0-.285.444.273.273,0,0,1,.036.117.588.588,0,0,1-.222.45,1.324,1.324,0,0,1-.754.241c-.194.009-.386-.012-.579-.01-.712.009-1.425,0-2.138,0H2.027a.671.671,0,0,1-.559-.632V4.956a.531.531,0,0,1,.507-.539H1.468a.652.652,0,0,1-.629-.646v-.1a.678.678,0,0,1,.681-.622H.734c-.4,0-.734-.158-.734-.508V2.309A.685.685,0,0,1,.734,1.687Z" transform="translate(567.875 1462.652) rotate(-90)" fill="#e9bf9a"/>
  </g>
</svg>
