<svg xmlns="http://www.w3.org/2000/svg" width="34.643" height="34.642" viewBox="0 0 34.643 34.642">
  <g id="Group_403" data-name="Group 403" transform="translate(-17479.906 6641.734)">
    <path id="whatsapp-brands" d="M29.453,37.034A17.172,17.172,0,0,0,2.436,57.749L0,66.642l9.1-2.389a17.114,17.114,0,0,0,8.2,2.088h.008a17.057,17.057,0,0,0,12.14-29.306ZM17.313,64.617a14.243,14.243,0,0,1-7.269-1.987l-.518-.309L2.96,63.735,4.4,57.3l-.34-.541a14.221,14.221,0,0,1-2.181-7.593A15.594,15.594,0,0,1,17.321,33.731,16.555,16.555,0,0,1,28.74,38.679a14.952,14.952,0,0,1,4,10.5C32.83,57.421,26.553,64.461,17.313,64.617Z" transform="translate(17479.906 -6673.734)" fill="#00295d"/>
    <g id="whatsapp-brands-2" data-name="whatsapp-brands" transform="translate(17479.906 -6674.734)" fill="#00295d">
      <path d="M 21.93237113952637 57.29913711547852 C 20.9140796661377 57.29913711547852 19.7794303894043 56.98048400878906 17.88544082641602 56.16263580322266 C 15.34117031097412 55.06180572509766 12.80412006378174 52.83176422119141 10.74182987213135 49.88338470458984 C 10.70016002655029 49.82380676269531 10.6710901260376 49.78245544433594 10.65520000457764 49.76145553588867 L 10.63851070404053 49.73861694335938 C 10.01100063323975 48.88318634033203 8.958290100097656 47.19163513183594 8.958290100097656 45.4738655090332 C 8.958290100097656 43.60030364990234 9.867630004882813 42.62595367431641 10.30463027954102 42.15771484375 C 10.33697032928467 42.12306594848633 10.36668014526367 42.09121704101563 10.39325046539307 42.06204605102539 C 10.78194046020508 41.64288711547852 11.22601985931396 41.61017608642578 11.3528299331665 41.61017608642578 C 11.63032054901123 41.61017608642578 11.91725063323975 41.61017608642578 12.15690040588379 41.62514495849609 C 12.1888599395752 41.62703704833984 12.22098064422607 41.62741470336914 12.25411033630371 41.62741470336914 L 12.27251052856445 41.62739562988281 L 12.29049015045166 41.62737655639648 C 12.47560977935791 41.62737655639648 12.66703033447266 41.62737655639648 12.90828990936279 42.20638656616211 C 13.01310062408447 42.45929336547852 13.16193008422852 42.82188415527344 13.32231044769287 43.2126350402832 C 13.81122016906738 44.40380477905273 14.16307067871094 45.25851440429688 14.23773002624512 45.4078254699707 C 14.34523010253906 45.62284469604492 14.3557300567627 45.77113342285156 14.27517986297607 45.93670654296875 C 13.92870998382568 46.62960433959961 13.57153987884521 47.00322341918945 13.31074047088623 47.27602386474609 C 12.97455024719238 47.627685546875 12.6842098236084 47.931396484375 13.02346992492676 48.51470565795898 C 14.72951030731201 51.44269561767578 16.48397064208984 52.47514343261719 18.96586990356445 53.71608352661133 C 19.18616104125977 53.8282356262207 19.36976051330566 53.88084411621094 19.54206085205078 53.88084411621094 C 19.78734970092773 53.88084411621094 20.00082015991211 53.77189636230469 20.19468116760254 53.54775619506836 C 20.30122947692871 53.42505645751953 21.2480297088623 52.33135604858398 21.57509994506836 51.83635711669922 C 21.71858024597168 51.61919403076172 21.8187198638916 51.61919403076172 21.87252044677734 51.61919403076172 C 21.96632957458496 51.61919403076172 22.08490943908691 51.65634536743164 22.24582099914551 51.71628570556641 C 22.62582015991211 51.85044479370117 24.71025085449219 52.87262344360352 25.15031051635742 53.09665679931641 C 25.22404098510742 53.13287353515625 25.29072952270508 53.16474533081055 25.35343933105469 53.1947135925293 C 25.59754943847656 53.31135559082031 25.80837059020996 53.41208648681641 25.85386085510254 53.49956512451172 L 25.85774040222168 53.50701522827148 L 25.85931587219238 53.50960922241211 C 25.9167537689209 53.64957809448242 25.92147254943848 54.41259765625 25.592529296875 55.34218597412109 C 25.27421951293945 56.24179458618164 23.63260078430176 57.11006546020508 22.89925956726074 57.2197265625 C 22.53263092041016 57.27388381958008 22.22525978088379 57.29913711547852 21.93237113952637 57.29913711547852 Z" stroke="none"/>
      <path d="M 21.93237113952637 57.04913711547852 C 22.21656036376953 57.04913711547852 22.50362968444824 57.02545547485352 22.86228942871094 56.97247695922852 C 23.61338043212891 56.86016464233398 25.0900707244873 56.01275634765625 25.35684967041016 55.25879669189453 C 25.64505958557129 54.44430541992188 25.65863609313965 53.80966186523438 25.62909889221191 53.62203598022461 C 25.56282615661621 53.57183074951172 25.38854026794434 53.48855209350586 25.24566078186035 53.42028427124023 C 25.18219947814941 53.38996505737305 25.11470985412598 53.35770416259766 25.04339981079102 53.32270431518555 L 25.04013061523438 53.32109451293945 L 25.03689002990723 53.3194465637207 C 24.5644702911377 53.07894515991211 22.51724052429199 52.07723617553711 22.16669082641602 51.95351409912109 L 22.16261100769043 51.95207595825195 L 22.15855026245117 51.95056533813477 C 22.09319114685059 51.92621612548828 21.94012069702148 51.86919403076172 21.87252044677734 51.86919403076172 C 21.87236404418945 51.86919403076172 21.87221145629883 51.86919784545898 21.8720645904541 51.86919784545898 C 21.86177825927734 51.87663650512695 21.83098030090332 51.90259170532227 21.7836799621582 51.97417449951172 C 21.44781112670898 52.48249435424805 20.4911003112793 53.58770370483398 20.38376045227051 53.7113037109375 C 20.14297103881836 53.98969650268555 19.85977935791016 54.13084411621094 19.54206085205078 54.13084411621094 C 19.32883071899414 54.13084411621094 19.10918998718262 54.06958389282227 18.85406112670898 53.9396858215332 C 16.33189010620117 52.67861557006836 14.54841995239258 51.62848663330078 12.80737018585205 48.64039611816406 C 12.37357044219971 47.89455413818359 12.79301071166992 47.45580673217773 13.13004016876221 47.10326385498047 C 13.37947463989258 46.84234619140625 13.72097206115723 46.48511505126953 14.05134010314941 45.82534408569336 C 14.08358001708984 45.75848770141602 14.10056686401367 45.69252777099609 14.01412010192871 45.51963424682617 C 13.9354305267334 45.36225509643555 13.5975399017334 44.54159545898438 13.09103012084961 43.30756378173828 C 12.93076992034912 42.9171142578125 12.78207015991211 42.55480575561523 12.67751979827881 42.30253601074219 C 12.54903984069824 41.99418640136719 12.44993019104004 41.91223526000977 12.42261981964111 41.89446640014648 C 12.40435981750488 41.88258361816406 12.38634014129639 41.87737655639648 12.29049015045166 41.87737655639648 L 12.27291011810303 41.87739562988281 L 12.25411033630371 41.87741470336914 C 12.21592044830322 41.87741470336914 12.17889976501465 41.87687683105469 12.1413106918335 41.87466430664063 C 11.90945053100586 41.86017608642578 11.62648010253906 41.86017608642578 11.3528299331665 41.86017608642578 C 11.25162029266357 41.86017608642578 10.89640998840332 41.88710403442383 10.57808017730713 42.23038482666016 C 10.55088996887207 42.26023483276367 10.5204906463623 42.29282379150391 10.48740005493164 42.32828521728516 C 10.07221984863281 42.77315521240234 9.208290100097656 43.69883346557617 9.208290100097656 45.4738655090332 C 9.208290100097656 46.67650604248047 9.803060531616211 48.17705535888672 10.84008979797363 49.59074401855469 L 10.85739517211914 49.6143684387207 C 10.87480640411377 49.63767623901367 10.90478897094727 49.6801872253418 10.94669055938721 49.74009704589844 C 12.98281002044678 52.65105438232422 15.48235034942627 54.85049438476563 17.98455047607422 55.93312454223633 C 19.84440994262695 56.73623657226563 20.95127105712891 57.04913711547852 21.93237113952637 57.04913711547852 M 21.93236923217773 57.54913711547852 C 20.93255615234375 57.54913330078125 19.82241630554199 57.27136611938477 17.78633117675781 56.39215469360352 C 13.47929000854492 54.52862548828125 10.67236995697021 50.19842529296875 10.45585060119629 49.91231536865234 C 10.24707984924316 49.62621688842773 8.708290100097656 47.58483505249023 8.708290100097656 45.4738655090332 C 8.708290100097656 43.36289596557617 9.814050674438477 42.32673645019531 10.20841026306152 41.89371490478516 C 10.60276985168457 41.46842575073242 11.06673049926758 41.36017608642578 11.3528299331665 41.36017608642578 C 11.63893985748291 41.36017608642578 11.92504978179932 41.36017608642578 12.17249011993408 41.37563705444336 C 12.198805809021 41.37718200683594 12.22603416442871 41.37741470336914 12.25410938262939 41.37741470336914 C 12.26609230041504 41.37741470336914 12.27821636199951 41.37737274169922 12.29049301147461 41.37737274169922 C 12.53680896759033 41.37737274169922 12.84078788757324 41.39438629150391 13.13906002044678 42.11022567749023 C 13.49476051330566 42.96853637695313 14.35307025909424 45.07950592041016 14.46133041381836 45.29601669311523 C 14.569580078125 45.51252365112305 14.63918018341064 45.75996398925781 14.49999046325684 46.04607391357422 C 13.68033981323242 47.68535614013672 12.79883003234863 47.6312255859375 13.23958015441895 48.38901519775391 C 14.90209007263184 51.24230575561523 16.55685043334961 52.23207473754883 19.07767105102539 53.49247360229492 C 19.25927352905273 53.58492660522461 19.40985488891602 53.6308479309082 19.54206466674805 53.6308479309082 C 19.7194766998291 53.6308479309082 19.86380195617676 53.54814910888672 20.00559043884277 53.38421630859375 C 20.2607593536377 53.09037399291992 21.08041000366211 52.13154602050781 21.36651992797852 51.69853591918945 C 21.52862739562988 51.45318603515625 21.69072723388672 51.36919021606445 21.87252044677734 51.36919021606445 C 22.01158332824707 51.36919021606445 22.16217041015625 51.41834259033203 22.33308982849121 51.48201370239258 C 22.72744941711426 51.62119674682617 24.83844947814941 52.65735626220703 25.26373100280762 52.87386703491211 C 25.68902969360352 53.08264541625977 25.97513008117676 53.1909065246582 26.07566070556641 53.38421630859375 C 26.18391036987305 53.56205368041992 26.18391036987305 54.42037582397461 25.82821083068848 55.42558670043945 C 25.47252082824707 56.43082427978516 23.76362037658691 57.34325408935547 22.93622970581055 57.46697616577148 C 22.59333992004395 57.51762771606445 22.26912117004395 57.54913711547852 21.93236923217773 57.54913711547852 Z" stroke="none" fill="#f5feff"/>
    </g>
  </g>
</svg>
