<svg xmlns="http://www.w3.org/2000/svg" width="69.183" height="69.184" viewBox="0 0 69.183 69.184">
  <g id="phone-call" transform="translate(0)">
    <path id="Path_1150" data-name="Path 1150" d="M69.137,56.942A5.308,5.308,0,0,0,66.5,53.009L49.436,43.182a5.356,5.356,0,0,0-6.449.853L39.626,47.4a2.464,2.464,0,0,1-3.291.184,97.168,97.168,0,0,1-7.756-6.976A97.2,97.2,0,0,1,21.6,32.849a2.464,2.464,0,0,1,.184-3.292L25.148,26.2A5.355,5.355,0,0,0,26,19.748L16.174,2.68A5.347,5.347,0,0,0,7.76,1.567L2.694,6.633c-3.535,3.536-3.592,10-.16,18.211,3.3,7.892,9.46,16.58,17.343,24.463S36.448,63.349,44.341,66.65a28.528,28.528,0,0,0,10.713,2.534,10.217,10.217,0,0,0,7.5-2.694l5.066-5.066A5.309,5.309,0,0,0,69.137,56.942ZM48.318,45.125l17.068,9.827a3.1,3.1,0,0,1,.949,4.535L43.651,46.541l.921-.921a3.111,3.111,0,0,1,3.745-.5ZM11.948,2.269A3.083,3.083,0,0,1,14.232,3.8l9.827,17.068a3.11,3.11,0,0,1-.5,3.745l-.846.846L9.7,2.85a3.068,3.068,0,0,1,1.832-.608,3.165,3.165,0,0,1,.415.027ZM60.966,64.9c-2.809,2.809-8.553,2.691-15.761-.323-7.629-3.19-16.061-9.178-23.743-16.86S7.793,31.608,4.6,23.979C1.588,16.771,1.47,11.026,4.279,8.217L8.04,4.457,21.076,27.1l-.874.874a4.7,4.7,0,0,0-.345,6.282,99.438,99.438,0,0,0,7.137,7.935,99.492,99.492,0,0,0,7.936,7.137,4.7,4.7,0,0,0,6.282-.345l.8-.8L64.723,61.148,60.966,64.9Z" transform="translate(-0.001 0)" fill="#00295d"/>
  </g>
</svg>
