<svg id="respect" xmlns="http://www.w3.org/2000/svg" width="75.949" height="63.114" viewBox="0 0 75.949 63.114">
  <g id="Group_322" data-name="Group 322" transform="translate(66.854 6.217)">
    <g id="Group_321" data-name="Group 321">
      <path id="Path_1140" data-name="Path 1140" d="M453.22,85.6a1.486,1.486,0,1,0,.433,1.049A1.491,1.491,0,0,0,453.22,85.6Z" transform="translate(-450.688 -85.169)" fill="#00295d"/>
    </g>
  </g>
  <g id="Group_324" data-name="Group 324" transform="translate(32.783 41.154)">
    <g id="Group_323" data-name="Group 323" transform="translate(0 0)">
      <path id="Path_1141" data-name="Path 1141" d="M223.531,321.13a1.486,1.486,0,1,0,.433,1.049A1.491,1.491,0,0,0,223.531,321.13Z" transform="translate(-220.999 -320.695)" fill="#00295d"/>
    </g>
  </g>
  <g id="Group_326" data-name="Group 326" transform="translate(0 0)">
    <g id="Group_325" data-name="Group 325">
      <path id="Path_1142" data-name="Path 1142" d="M72.98,54.839A1.483,1.483,0,1,0,70.4,56.306a19.928,19.928,0,0,1-3.235,23.88l-1.125,1.125a5.555,5.555,0,0,0-1.266-1.955L49.532,64.113a10.25,10.25,0,0,0,2.726-1.953l2.923-2.924a1.484,1.484,0,0,0-2.1-2.1L50.16,60.062a7.224,7.224,0,0,1-5.142,2.13H39.175a1.484,1.484,0,0,0-1.049.434L33.652,67.1a3.407,3.407,0,0,1-4.819-4.819L39.047,52.067a19.965,19.965,0,0,1,23.7-3.338,1.484,1.484,0,0,0,1.439-2.595,23.014,23.014,0,0,0-14.109-2.657,22.609,22.609,0,0,0-12.089,5.516A22.85,22.85,0,0,0,6.693,82.269l.559.559a1.484,1.484,0,0,0,.319.241,5.578,5.578,0,0,0,5.569,5.153c.074,0,.149,0,.223-.005,0,.075-.005.15-.005.226a5.586,5.586,0,0,0,5.59,5.588c.074,0,.149,0,.223-.005,0,.075-.005.15-.005.226a5.586,5.586,0,0,0,5.59,5.588c.075,0,.15,0,.226-.005a5.588,5.588,0,0,0,9.535,4.179l2.073-2.073,2.8,2.8a5.588,5.588,0,0,0,9.533-4.233c.093,0,.187.007.28.007A5.58,5.58,0,0,0,54.787,94.7c.075,0,.15.005.226.005a5.585,5.585,0,0,0,5.582-5.814c.075,0,.15.005.226.005a5.587,5.587,0,0,0,5.165-3.454,1.482,1.482,0,0,0,.4-.284l2.877-2.877A22.9,22.9,0,0,0,72.98,54.839ZM13.141,85.257a2.623,2.623,0,0,1-1.855-4.478l2.556-2.556a2.623,2.623,0,0,1,3.71,3.71L15,84.489A2.606,2.606,0,0,1,13.141,85.257Zm3.953,5.04a2.623,2.623,0,0,1,0-3.71l2.557-2.557h0a2.623,2.623,0,0,1,3.71,3.71L20.8,90.3A2.627,2.627,0,0,1,17.094,90.3ZM22.9,96.105a2.623,2.623,0,0,1,0-3.71l2.557-2.557h0a2.623,2.623,0,1,1,3.71,3.71l-2.557,2.557A2.626,2.626,0,0,1,22.9,96.105Zm12.075,3.252-2.557,2.557a2.623,2.623,0,0,1-3.71-3.71l2.557-2.557h0a2.623,2.623,0,0,1,3.71,3.71Zm27.7-14.193a2.623,2.623,0,0,1-3.71,0l-6.175-6.175h0L46.983,73.18a1.484,1.484,0,1,0-2.1,2.1L56.868,87.261a2.623,2.623,0,1,1-3.71,3.71L41.175,78.988a1.484,1.484,0,0,0-2.1,2.1l5.807,5.807h0l6.175,6.175a2.623,2.623,0,1,1-3.71,3.71L41.176,90.6a1.481,1.481,0,0,0-.379-.274l-1.761-1.761a1.484,1.484,0,1,0-2.1,2.1L45.2,98.93a2.623,2.623,0,1,1-3.71,3.71L38.346,99.5a5.592,5.592,0,0,0-5.224-7.585c-.076,0-.151,0-.226.005A5.585,5.585,0,0,0,27.314,86.1c-.076,0-.151,0-.226.005A5.585,5.585,0,0,0,21.506,80.3c-.076,0-.151,0-.226.005a5.587,5.587,0,0,0-9.536-4.176L9.188,78.681a5.588,5.588,0,0,0-.823,1.049A19.883,19.883,0,0,1,35.852,51.066l-9.116,9.116A6.375,6.375,0,0,0,35.751,69.2l4.04-4.04H45.02a10.389,10.389,0,0,0,1.281-.082L62.677,81.453A2.628,2.628,0,0,1,62.676,85.163Z" transform="translate(0 -43.261)" fill="#00295d"/>
    </g>
  </g>
</svg>
