<svg xmlns="http://www.w3.org/2000/svg" width="136.317" height="136.412" viewBox="0 0 136.317 136.412">
  <g id="Group_352" data-name="Group 352" transform="translate(-14354.955 13118.221)">
    <path id="Subtraction_6" data-name="Subtraction 6" d="M136.288,69.412H.265a5.222,5.222,0,0,1,4.943-6.893H24.072A47.161,47.161,0,0,1,25.2,57.295l-7.051-2.848a5.217,5.217,0,1,1,3.909-9.675l7.01,2.831a46.1,46.1,0,0,1,5-7.488L20.83,27.774a5.217,5.217,0,0,1-.258-7.374,5.217,5.217,0,0,1,7.375-.257l13.619,12.7a44.2,44.2,0,0,1,4.227-2.869l-2.7-6.062a5.217,5.217,0,1,1,9.533-4.244l2.7,6.071A42.568,42.568,0,0,1,63.424,24.1V5.217a5.217,5.217,0,0,1,10.435,0V24.3A42.489,42.489,0,0,1,79,25.35L81.628,18.5a5.217,5.217,0,1,1,9.742,3.74l-2.7,7.034a44.049,44.049,0,0,1,6.878,4.717L109.13,20.41a5.217,5.217,0,1,1,7.378,7.378L102.743,41.554a46.274,46.274,0,0,1,3.189,4.827l5.906-3.409a5.217,5.217,0,1,1,5.217,9.037l-6.949,4.011a47.3,47.3,0,0,1,1.673,7.725H131.09a5.223,5.223,0,0,1,5.217,5.217c0,.149-.006.3-.019.45h0Z" transform="translate(14354.965 -13118.221)" fill="#ffd663"/>
    <path id="Subtraction_8" data-name="Subtraction 8" d="M136.288,69.412H.265a5.222,5.222,0,0,1,4.943-6.893H24.072A47.161,47.161,0,0,1,25.2,57.295l-7.051-2.848a5.217,5.217,0,1,1,3.909-9.675l7.01,2.831a46.1,46.1,0,0,1,5-7.488L20.83,27.774a5.217,5.217,0,0,1-.258-7.374,5.217,5.217,0,0,1,7.375-.257l13.619,12.7a44.2,44.2,0,0,1,4.227-2.869l-2.7-6.062a5.217,5.217,0,1,1,9.533-4.244l2.7,6.071A42.568,42.568,0,0,1,63.424,24.1V5.217a5.217,5.217,0,0,1,10.435,0V24.3A42.489,42.489,0,0,1,79,25.35L81.628,18.5a5.217,5.217,0,1,1,9.742,3.74l-2.7,7.034a44.049,44.049,0,0,1,6.878,4.717L109.13,20.41a5.217,5.217,0,1,1,7.378,7.378L102.743,41.554a46.274,46.274,0,0,1,3.189,4.827l5.906-3.409a5.217,5.217,0,1,1,5.217,9.037l-6.949,4.011a47.3,47.3,0,0,1,1.673,7.725H131.09a5.223,5.223,0,0,1,5.217,5.217c0,.149-.006.3-.019.45h0Z" transform="translate(14491.263 -12981.809) rotate(180)" fill="#ffd663"/>
  </g>
</svg>
