<svg xmlns="http://www.w3.org/2000/svg" xmlns:xlink="http://www.w3.org/1999/xlink" width="654.316" height="336.525" viewBox="0 0 654.316 336.525">
  <defs>
    <filter id="Path_412" x="289.297" y="71.861" width="74.5" height="70.631" filterUnits="userSpaceOnUse">
      <feOffset dy="3" input="SourceAlpha"/>
      <feGaussianBlur result="blur"/>
      <feFlood flood-opacity="0.161"/>
      <feComposite operator="in" in2="blur"/>
      <feComposite in="SourceGraphic"/>
    </filter>
    <linearGradient id="linear-gradient" y1="0.5" x2="1" y2="0.5" gradientUnits="objectBoundingBox">
      <stop offset="0" stop-color="#ffbc00" stop-opacity="0"/>
      <stop offset="1" stop-color="#ffbc00"/>
    </linearGradient>
    <filter id="Path_418" x="390.979" y="195.765" width="126.83" height="78.433" filterUnits="userSpaceOnUse">
      <feOffset dx="3" dy="-5" input="SourceAlpha"/>
      <feGaussianBlur result="blur-2"/>
      <feFlood flood-opacity="0.161"/>
      <feComposite operator="in" in2="blur-2"/>
      <feComposite in="SourceGraphic"/>
    </filter>
    <filter id="Path_419" x="243.416" y="158.009" width="177.229" height="129.713" filterUnits="userSpaceOnUse">
      <feOffset dx="2" dy="-1" input="SourceAlpha"/>
      <feGaussianBlur result="blur-3"/>
      <feFlood flood-opacity="0.161"/>
      <feComposite operator="in" in2="blur-3"/>
      <feComposite in="SourceGraphic"/>
    </filter>
    <filter id="Path_643" x="390.979" y="195.765" width="126.83" height="78.433" filterUnits="userSpaceOnUse">
      <feOffset dx="3" dy="-5" input="SourceAlpha"/>
      <feGaussianBlur result="blur-4"/>
      <feFlood flood-opacity="0.161"/>
      <feComposite operator="in" in2="blur-4"/>
      <feComposite in="SourceGraphic"/>
    </filter>
    <filter id="Coat" x="339.008" y="60.687" width="76.332" height="123.051" filterUnits="userSpaceOnUse">
      <feOffset dx="1" dy="2" input="SourceAlpha"/>
      <feGaussianBlur result="blur-5"/>
      <feFlood flood-opacity="0.09"/>
      <feComposite operator="in" in2="blur-5"/>
      <feComposite in="SourceGraphic"/>
    </filter>
    <filter id="Path_411" x="313.947" y="67.567" width="100.65" height="89.043" filterUnits="userSpaceOnUse">
      <feOffset dy="3" input="SourceAlpha"/>
      <feGaussianBlur result="blur-6"/>
      <feFlood flood-opacity="0.161"/>
      <feComposite operator="in" in2="blur-6"/>
      <feComposite in="SourceGraphic"/>
    </filter>
    <filter id="Path_401" x="371.725" y="64.737" width="8.186" height="8.914" filterUnits="userSpaceOnUse">
      <feOffset dy="1" input="SourceAlpha"/>
      <feGaussianBlur result="blur-7"/>
      <feFlood flood-opacity="0.059"/>
      <feComposite operator="in" in2="blur-7"/>
      <feComposite in="SourceGraphic"/>
    </filter>
    <filter id="Path_399" x="374.684" y="58.227" width="16.838" height="15.044" filterUnits="userSpaceOnUse">
      <feOffset dy="1" input="SourceAlpha"/>
      <feGaussianBlur result="blur-8"/>
      <feFlood flood-opacity="0.059"/>
      <feComposite operator="in" in2="blur-8"/>
      <feComposite in="SourceGraphic"/>
    </filter>
    <filter id="Path_400" x="364.795" y="60.2" width="9.986" height="13.545" filterUnits="userSpaceOnUse">
      <feOffset dy="1" input="SourceAlpha"/>
      <feGaussianBlur result="blur-9"/>
      <feFlood flood-opacity="0.059"/>
      <feComposite operator="in" in2="blur-9"/>
      <feComposite in="SourceGraphic"/>
    </filter>
    <linearGradient id="linear-gradient-2" x1="0.5" x2="0.5" y2="1" gradientUnits="objectBoundingBox">
      <stop offset="0" stop-color="#fca58c"/>
      <stop offset="1" stop-color="#fca58c" stop-opacity="0"/>
    </linearGradient>
    <linearGradient id="linear-gradient-4" x1="1" y1="0.5" x2="0" y2="0.5" gradientUnits="objectBoundingBox">
      <stop offset="0" stop-color="#ff0"/>
      <stop offset="1" stop-color="#ea5b4b"/>
    </linearGradient>
  </defs>
  <g id="Group_351" data-name="Group 351" transform="translate(-900.889 -488.3)">
    <ellipse id="Ellipse_9" data-name="Ellipse 9" cx="21.028" cy="3.377" rx="21.028" ry="3.377" transform="translate(1513.148 778.036)" fill="#33ea73" opacity="0.1"/>
    <rect id="Rectangle_27" data-name="Rectangle 27" width="1.353" height="30.466" transform="translate(1532.789 747.6)" fill="#33ea73"/>
    <path id="Path_79" data-name="Path 79" d="M83.256,735.586A35.182,35.182,0,0,1,94.424,750.2a35.115,35.115,0,0,1-17.377-6.027A35.128,35.128,0,0,1,65.883,729.56,35.09,35.09,0,0,1,83.256,735.586Z" transform="translate(1439.047 23.433)" fill="#33ea73"/>
    <path id="Path_80" data-name="Path 80" d="M65.842,729.56s9.858,5.471,13.02,10S94.389,750.2,94.389,750.2" transform="translate(1439.082 23.433)" fill="none" stroke="#535461" stroke-miterlimit="10" stroke-width="1"/>
    <path id="Path_81" data-name="Path 81" d="M158.471,676.961a19.16,19.16,0,0,1,6.081,7.955,17.369,17.369,0,0,1-15.538-11.235A19.108,19.108,0,0,1,158.471,676.961Z" transform="translate(1368.918 70.572)" fill="#33ea73"/>
    <path id="Path_82" data-name="Path 82" d="M149.014,673.68s5.365,2.978,7.085,5.443,8.453,5.792,8.453,5.792" transform="translate(1368.918 70.572)" fill="none" stroke="#535461" stroke-miterlimit="10" stroke-width="1"/>
    <path id="Path_83" data-name="Path 83" d="M255.968,705.527A26.429,26.429,0,0,0,250,718.018a24.021,24.021,0,0,0,17.839-19.613A26.451,26.451,0,0,0,255.968,705.527Z" transform="translate(1283.73 49.715)" fill="#33ea73"/>
    <path id="Path_84" data-name="Path 84" d="M267.841,698.419s-6.418,5.551-8.05,9.375S250,718.03,250,718.03" transform="translate(1283.73 49.703)" fill="none" stroke="#535461" stroke-miterlimit="10" stroke-width="1"/>
    <ellipse id="Ellipse_9-2" data-name="Ellipse 9" cx="16.913" cy="2.716" rx="16.913" ry="2.716" transform="translate(1058.166 719.211)" fill="#33ea73" opacity="0.1"/>
    <rect id="Rectangle_27-2" data-name="Rectangle 27" width="1.088" height="24.504" transform="translate(1073.963 694.73)" fill="#33ea73"/>
    <path id="Path_79-2" data-name="Path 79" d="M79.856,734.407a28.3,28.3,0,0,1,8.983,11.758,28.242,28.242,0,0,1-13.976-4.848,28.253,28.253,0,0,1-8.979-11.756A28.223,28.223,0,0,1,79.856,734.407Z" transform="translate(985.672 -30.492)" fill="#33ea73"/>
    <path id="Path_80-2" data-name="Path 80" d="M65.842,729.56s7.929,4.4,10.472,8.043S88.8,746.165,88.8,746.165" transform="translate(985.709 -30.492)" fill="none" stroke="#535461" stroke-miterlimit="10" stroke-width="1"/>
    <path id="Path_81-2" data-name="Path 81" d="M156.62,676.319a15.411,15.411,0,0,1,4.891,6.4,13.97,13.97,0,0,1-12.5-9.036A15.369,15.369,0,0,1,156.62,676.319Z" transform="translate(913 18.358)" fill="#33ea73"/>
    <path id="Path_82-2" data-name="Path 82" d="M149.014,673.68s4.315,2.4,5.7,4.378,6.8,4.659,6.8,4.659" transform="translate(913 18.358)" fill="none" stroke="#535461" stroke-miterlimit="10" stroke-width="1"/>
    <path id="Path_83-2" data-name="Path 83" d="M254.8,704.133A21.256,21.256,0,0,0,250,714.18a19.32,19.32,0,0,0,14.348-15.774A21.274,21.274,0,0,0,254.8,704.133Z" transform="translate(824.719 -3.256)" fill="#33ea73"/>
    <path id="Path_84-2" data-name="Path 84" d="M264.35,698.419s-5.162,4.464-6.474,7.54S250,714.192,250,714.192" transform="translate(824.719 -3.269)" fill="none" stroke="#535461" stroke-miterlimit="10" stroke-width="1"/>
    <ellipse id="Ellipse_10" data-name="Ellipse 10" cx="11.422" cy="1.57" rx="11.422" ry="1.57" transform="translate(995.723 795.783)" fill="#6c63ff" opacity="0.1"/>
    <ellipse id="Ellipse_11" data-name="Ellipse 11" cx="11.422" cy="1.57" rx="11.422" ry="1.57" transform="translate(951.967 800.221)" fill="#6c63ff" opacity="0.1"/>
    <ellipse id="Ellipse_12" data-name="Ellipse 12" cx="11.422" cy="1.57" rx="11.422" ry="1.57" transform="translate(900.889 794.213)" fill="#6c63ff" opacity="0.1"/>
    <ellipse id="Ellipse_13" data-name="Ellipse 13" cx="8.122" cy="1.115" rx="8.122" ry="1.115" transform="translate(972.781 813.31)" fill="#6c63ff" opacity="0.1"/>
    <ellipse id="Ellipse_14" data-name="Ellipse 14" cx="8.122" cy="1.115" rx="8.122" ry="1.115" transform="translate(927.363 812.195)" fill="#6c63ff" opacity="0.1"/>
    <path id="Path_134" data-name="Path 134" d="M233.532,684.243s16.023-52.518-2.5-73.552c-13.864-15.739-29.594-13.855-36.641-11.909a13.023,13.023,0,0,0-8.4,6.985c-2.464,5.308-2.017,13.939,15.372,24.007,29.117,16.859,30.926,39.981,30.926,39.981Z" transform="translate(729.609 117.193)" fill="#33ea73"/>
    <path id="Path_135" data-name="Path 135" d="M195.941,617.23S243.168,632,232.578,695.241" transform="translate(730.563 106.195)" fill="none" stroke="#00295d" stroke-miterlimit="10" stroke-width="1"/>
    <path id="Path_136" data-name="Path 136" d="M224.744,629.2s-6.5,4.38-4.424,10.966" transform="translate(729.342 99.521)" fill="none" stroke="#00295d" stroke-miterlimit="10" stroke-width="1"/>
    <path id="Path_137" data-name="Path 137" d="M251.63,634.868s3.981-4.043,8.812-1.814" transform="translate(679.613 97.745)" fill="none" stroke="#00295d" stroke-miterlimit="10" stroke-width="1"/>
    <path id="Path_138" data-name="Path 138" d="M209.49,682.31s6.981-3.539,8.785.885" transform="translate(740.42 70.652)" fill="none" stroke="#00295d" stroke-miterlimit="10" stroke-width="1"/>
    <path id="Path_139" data-name="Path 139" d="M195.639,700.648s-5.242-.416-5.339,2.092" transform="translate(771.545 59.693)" fill="none" stroke="#00295d" stroke-miterlimit="10" stroke-width="1"/>
    <path id="Path_140" data-name="Path 140" d="M226.313,747.448s-18.765-38.172-23.919-37.336c-2.446.4-3.574,2.8-4.087,5.224a15.394,15.394,0,0,0,1.022,9.316C201.983,730.736,209.158,742.348,226.313,747.448Z" transform="translate(737.465 54.409)" fill="#33ea73"/>
    <path id="Path_141" data-name="Path 141" d="M198.6,726.51s19.694,28.559,23.5,29.811" transform="translate(741.414 45.258)" fill="none" stroke="#00295d" stroke-miterlimit="10" stroke-width="1"/>
    <line id="Line_1" data-name="Line 1" x2="4.596" transform="translate(938.199 776.222)" fill="none" stroke="#00295d" stroke-miterlimit="10" stroke-width="1"/>
    <line id="Line_2" data-name="Line 2" x2="7.202" y2="0.31" transform="translate(943.707 786.67)" fill="none" stroke="#00295d" stroke-miterlimit="10" stroke-width="1"/>
    <line id="Line_3" data-name="Line 3" x1="0.783" y2="3.751" transform="translate(947.309 778.313)" fill="none" stroke="#00295d" stroke-miterlimit="10" stroke-width="1"/>
    <line id="Line_4" data-name="Line 4" x1="0.142" y2="3.411" transform="translate(955.613 789.736)" fill="none" stroke="#00295d" stroke-miterlimit="10" stroke-width="1"/>
    <path id="Path_142" data-name="Path 142" d="M135.234,747.448S154,709.277,159.153,710.113c2.446.4,3.574,2.8,4.088,5.224a15.363,15.363,0,0,1-1.026,9.29C159.556,730.736,152.4,742.348,135.234,747.448Z" transform="translate(828 54.409)" fill="#33ea73"/>
    <path id="Path_143" data-name="Path 143" d="M168.978,726.51s-19.694,28.559-23.5,29.811" transform="translate(818.033 45.258)" fill="none" stroke="#00295d" stroke-miterlimit="10" stroke-width="1"/>
    <line id="Line_5" data-name="Line 5" x1="4.596" transform="translate(984.225 776.222)" fill="none" stroke="#00295d" stroke-miterlimit="10" stroke-width="1"/>
    <line id="Line_6" data-name="Line 6" x1="7.206" y2="0.31" transform="translate(976.111 786.67)" fill="none" stroke="#00295d" stroke-miterlimit="10" stroke-width="1"/>
    <line id="Line_7" data-name="Line 7" x2="0.783" y2="3.751" transform="translate(978.93 778.313)" fill="none" stroke="#00295d" stroke-miterlimit="10" stroke-width="1"/>
    <line id="Line_8" data-name="Line 8" x2="0.142" y2="3.411" transform="translate(971.268 789.736)" fill="none" stroke="#00295d" stroke-miterlimit="10" stroke-width="1"/>
    <path id="Path_144" data-name="Path 144" d="M249.7,808.175a3.256,3.256,0,0,1-1.071-1.61,1.433,1.433,0,0,1,.748-1.641c.686-.265,1.42.213,1.973.69a2.65,2.65,0,0,0,1.92.929,2.924,2.924,0,0,1-.885-2.734,1.141,1.141,0,0,1,.248-.557c.38-.407,1.071-.23,1.526.089,1.451,1.017,1.853,2.986,1.862,4.76a9.061,9.061,0,0,0,.027-1.96,2,2,0,0,1,.739-1.734,2.159,2.159,0,0,1,1.119-.265,2.413,2.413,0,0,1,1.823.518,1.811,1.811,0,0,1-.071,2.238,7.131,7.131,0,0,1-1.884,1.508,4.208,4.208,0,0,0-1.327,1.283,1.328,1.328,0,0,0-.1.23h-4.083A11.322,11.322,0,0,1,249.7,808.175Z" transform="translate(681.316 2.596)" fill="#33ea73"/>
    <path id="Path_145" data-name="Path 145" d="M88.063,773.424a3.247,3.247,0,0,1-1.071-1.61,1.442,1.442,0,0,1,.748-1.646c.686-.261,1.416.217,1.973.694a2.645,2.645,0,0,0,1.92.925,2.911,2.911,0,0,1-.885-2.734A1.155,1.155,0,0,1,91,768.5c.38-.407,1.071-.234,1.526.088,1.451,1.017,1.854,2.986,1.862,4.76a9.1,9.1,0,0,0,.027-1.964,1.99,1.99,0,0,1,.734-1.73,2.175,2.175,0,0,1,1.124-.265,2.313,2.313,0,0,1,1.823.518,1.779,1.779,0,0,1-.071,2.212,7.009,7.009,0,0,1-1.889,1.513,4.145,4.145,0,0,0-1.327,1.283,1.571,1.571,0,0,0-.1.23H90.624a11.4,11.4,0,0,1-2.561-1.721Z" transform="translate(914.453 21.975)" fill="#33ea73"/>
    <path id="Path_146" data-name="Path 146" d="M141.94,808.175a3.257,3.257,0,0,1-1.07-1.61,1.433,1.433,0,0,1,.748-1.641c.686-.265,1.42.212,1.973.69a2.649,2.649,0,0,0,1.92.929,2.924,2.924,0,0,1-.885-2.734,1.141,1.141,0,0,1,.248-.557c.38-.407,1.071-.23,1.526.089,1.451,1.017,1.854,2.986,1.862,4.76a9.059,9.059,0,0,0,.027-1.96,2,2,0,0,1,.734-1.734,2.185,2.185,0,0,1,1.124-.266,2.418,2.418,0,0,1,1.823.518,1.811,1.811,0,0,1-.071,2.238,7.133,7.133,0,0,1-1.885,1.508,4.207,4.207,0,0,0-1.327,1.283,1.332,1.332,0,0,0-.1.23h-4.083A11.317,11.317,0,0,1,141.94,808.175Z" transform="translate(836.746 2.596)" fill="#33ea73"/>
    <path id="Path_147" data-name="Path 147" d="M310.985,744.43s-1.531,2,.708,5.025,4.079,5.574,3.335,7.458c0,0-3.375-5.614-6.122-5.693S307.964,747.805,310.985,744.43Z" transform="translate(600.604 35.265)" fill="#33ea73"/>
    <path id="Path_148" data-name="Path 148" d="M311.184,744.43a2.536,2.536,0,0,0-.314.628c-2.681,3.15-4.105,6.087-1.531,6.162,2.4.071,5.277,4.362,5.967,5.445-.022.084-.049.164-.08.248,0,0-3.375-5.614-6.122-5.693S308.163,747.805,311.184,744.43Z" transform="translate(600.406 35.265)" opacity="0.1"/>
    <path id="Path_149" data-name="Path 149" d="M322.7,749.633c0,.7.08,1.274.177,1.274s.177-.571.177-1.274-.1-.372-.2-.372S322.7,748.93,322.7,749.633Z" transform="translate(586.066 32.613)" fill="#ffd037"/>
    <path id="Path_150" data-name="Path 150" d="M323.36,751.483c.619.336,1.159.54,1.2.442s-.416-.442-1.035-.765-.372-.093-.42,0S322.741,751.147,323.36,751.483Z" transform="translate(584.432 31.604)" fill="#ffd037"/>
    <path id="Path_151" data-name="Path 151" d="M295.249,744.43s1.531,2-.708,5.025-4.083,5.574-3.335,7.458c0,0,3.375-5.614,6.122-5.693S298.253,747.805,295.249,744.43Z" transform="translate(624.393 35.265)" fill="#33ea73"/>
    <path id="Path_152" data-name="Path 152" d="M295.164,744.43a2.454,2.454,0,0,1,.31.628c2.681,3.15,4.11,6.087,1.535,6.162-2.4.071-5.282,4.362-5.972,5.445.027.084.053.164.084.248,0,0,3.375-5.614,6.122-5.693S298.168,747.805,295.164,744.43Z" transform="translate(624.477 35.265)" opacity="0.1"/>
    <path id="Path_153" data-name="Path 153" d="M292.714,749.633c0,.7-.08,1.274-.177,1.274s-.177-.571-.177-1.274.1-.372.195-.372S292.714,748.93,292.714,749.633Z" transform="translate(629.768 32.613)" fill="#ffd037"/>
    <path id="Path_154" data-name="Path 154" d="M290.479,751.483c-.619.336-1.159.54-1.208.442s.42-.442,1.035-.765.376-.093.442,0S291.094,751.147,290.479,751.483Z" transform="translate(632.977 31.604)" fill="#ffd037"/>
    <path id="Path_155" data-name="Path 155" d="M309.384,769.135s-4.282-.128-5.569-1.048-6.582-2.017-6.905-.544-6.428,7.326-1.6,7.365,11.223-.752,12.51-1.535S309.384,769.135,309.384,769.135Z" transform="translate(612.629 22.778)" fill="#a8a8a8"/>
    <path id="Path_156" data-name="Path 156" d="M295.222,777.3c4.831.04,11.227-.752,12.514-1.535.982-.6,1.371-2.738,1.5-3.729h.146s-.274,3.455-1.562,4.238-7.68,1.575-12.51,1.535c-1.4,0-1.876-.509-1.849-1.243C293.66,777.021,294.186,777.3,295.222,777.3Z" transform="translate(612.631 19.868)" opacity="0.2"/>
    <ellipse id="Ellipse_55" data-name="Ellipse 55" cx="179.344" cy="14.129" rx="179.344" ry="14.129" transform="translate(1071.779 796.566)" fill="#ff7161" opacity="0.1"/>
    <path id="Path_440" data-name="Path 440" d="M818.42,592.626c4.207,4.574,7.3,6.375,7.158,1.548-.442-14.6,25.215-80.6,25.215-80.6L843.206,513C826.648,541.528,820.491,570.866,818.42,592.626Z" transform="translate(374.086 153.259)" fill="none"/>
    <g transform="matrix(1, 0, 0, 1, 900.89, 488.3)" filter="url(#Path_412)">
      <path id="Path_412-2" data-name="Path 412" d="M8603.37,8241.282c-5.271.379-8.875,10.29-20.348,34.715-13.122,9.772-38.729,21.653-38.729,21.653s-12.729,9.459-1.56,11.135,44.83-14.938,49.718-21,17.594-24.29,19.73-30.434S8608.644,8240.9,8603.37,8241.282Z" transform="translate(-8248.85 -8169.41)" fill="#fff"/>
    </g>
    <path id="Path_451" data-name="Path 451" d="M8683.253,7420.941l-93.075-17.153v57.289l93.075-12.825Z" transform="translate(-7511.392 -6809.482)" opacity="0.64" fill="url(#linear-gradient)"/>
    <path id="Path_428" data-name="Path 428" d="M-1016.844,7998.366s-6.66-1.7-8.216,0-2.788,5.282-2.788,12.03,1.174,14.673,4.842,14.527S-1016.844,7998.366-1016.844,7998.366Z" transform="translate(2192.822 -7386.129)" fill="#e4def9"/>
    <path id="Path_432" data-name="Path 432" d="M0,33.346,9.64,3.482S11-1.28,16.726.334c1.168.329,3.086.944,3.086.944" transform="translate(1166.582 595.169) rotate(-17)" fill="none" stroke="#bdc9c7" stroke-linecap="round" stroke-linejoin="round" stroke-width="3"/>
    <ellipse id="Ellipse_54" data-name="Ellipse 54" cx="2.212" cy="7.52" rx="2.212" ry="7.52" transform="translate(1185.422 582.928)" fill="#00295d"/>
    <ellipse id="Ellipse_48" data-name="Ellipse 48" cx="10.174" cy="6.414" rx="10.174" ry="6.414" transform="matrix(0.755, 0.656, -0.656, 0.755, 1398.697, 692.702)" fill="#fd7162"/>
    <path id="Path_425" data-name="Path 425" d="M-533.492,8188.113h11.884l16.432,16.434-1.027,12.177Z" transform="translate(1915.826 -7492.361)" fill="#e3e3e3"/>
    <path id="Path_424" data-name="Path 424" d="M60.756,0c81.727,0,102.875,79.2,102.875,79.2H60.756C36.809,79.2,31.2,61.17,31.2,39.3S38.289,0,60.756,0Z" transform="translate(1262.969 676.236)" fill="#ff7161"/>
    <path id="Path_422" data-name="Path 422" d="M-758.451,8142.591H-864.64l-13.605,16.149H-978.4L-1013.6,8103l-5.029-42.321,15.086-36.877a20.882,20.882,0,0,1-9.54,2.05c-5.276-.2-6.094-2.9-5.359-7.779s4.407-16.762,4.541-17.563,1.937-2.872,6.545-1.2,6.411,3.739,8.615,6.012h9.916l11.633,17.2s-12.906,4.188-15.386,15.06-3.815,28.8-3.815,28.8,14.877-.573,15.45,9.537,0,28.609,0,28.609.191,8.488-12.779,8.679c0,8.793,9.727,23.291,18.883,23.461s21.166,0,50.354,0,31.09-31.854,23.461-42.344-13.827-13.451-18.09-14.427a8.111,8.111,0,0,1-6.062-8.323c.257-3.082,2.569-6.729,9.863-6.573s67.172,0,67.172,0Z" transform="translate(2185.051 -7386.727)" fill="#ff7161"/>
    <ellipse id="Ellipse_43" data-name="Ellipse 43" cx="39.149" cy="39.149" rx="39.149" ry="39.149" transform="translate(1319.734 732.417)" fill="#00295d"/>
    <ellipse id="Ellipse_44" data-name="Ellipse 44" cx="25.878" cy="25.878" rx="25.878" ry="25.878" transform="translate(1333.008 745.688)" fill="#e3e3e3"/>
    <circle id="Ellipse_45" data-name="Ellipse 45" cx="23.224" cy="23.224" r="23.224" transform="translate(1335.66 748.343)" fill="#c5c5c5"/>
    <ellipse id="Ellipse_46" data-name="Ellipse 46" cx="13.935" cy="13.935" rx="13.935" ry="13.935" transform="translate(1344.949 757.632)" fill="#e3e3e3"/>
    <ellipse id="Ellipse_47" data-name="Ellipse 47" cx="5.972" cy="5.972" rx="5.972" ry="5.972" transform="translate(1352.914 765.595)" fill="#c3c3c3"/>
    <path id="Path_421" data-name="Path 421" d="M8.6,1.582c4.153,0,7.139,2.964,7.139,7.484s-3.367,8.184-7.52,8.184S1.257,13.586,1.257,9.066A7.127,7.127,0,0,1,8.6,1.582Z" transform="translate(1140.318 691.279)" fill="#fff"/>
    <g transform="matrix(1, 0, 0, 1, 900.89, 488.3)" filter="url(#Path_418)">
      <path id="Path_418-2" data-name="Path 418" d="M36.716,0c69.206,0,87.114,73.433,87.114,73.433H36.716A36.716,36.716,0,0,1,0,36.716C0,16.439,17.692,0,36.716,0Z" transform="translate(390.98 200.76)" fill="#ea5b4b"/>
    </g>
    <g transform="matrix(1, 0, 0, 1, 900.89, 488.3)" filter="url(#Path_419)">
      <path id="Path_419-2" data-name="Path 419" d="M-1069.575,8138.608l4.152-14.478,7.63-2.348,18.854-43.176s13.352,2.494,14.965,20.394-9.683,43.759,4.548,73.4,16.722,28.214,24.942,28.463,76.295,0,76.295,0,13.865,1.394,16.8-11.225,7.043,1.029,7.043,1.029-.367,16.761-15.479,16.468-79.765.541-86.007,0-13.616,1.32-19.044-9.1-26.85-50.471-26.85-50.471Z" transform="translate(1312.99 -7919.6)" fill="#ea5b4b"/>
    </g>
    <g transform="matrix(1, 0, 0, 1, 900.89, 488.3)" filter="url(#Path_643)">
      <path id="Path_643-2" data-name="Path 643" d="M36.716,0c69.206,0,87.114,73.433,87.114,73.433H36.716A36.716,36.716,0,0,1,0,36.716C0,16.439,17.692,0,36.716,0Z" transform="translate(390.98 200.76)" fill="#ea5b4b"/>
    </g>
    <ellipse id="Ellipse_43-2" data-name="Ellipse 43" cx="39.149" cy="39.149" rx="39.149" ry="39.149" transform="translate(1087.492 732.417)" fill="#00295d"/>
    <ellipse id="Ellipse_44-2" data-name="Ellipse 44" cx="25.878" cy="25.878" rx="25.878" ry="25.878" transform="translate(1100.764 745.688)" fill="#e3e3e3"/>
    <circle id="Ellipse_45-2" data-name="Ellipse 45" cx="23.224" cy="23.224" r="23.224" transform="translate(1103.418 748.343)" fill="#c5c5c5"/>
    <ellipse id="Ellipse_46-2" data-name="Ellipse 46" cx="13.935" cy="13.935" rx="13.935" ry="13.935" transform="translate(1112.707 757.632)" fill="#e3e3e3"/>
    <ellipse id="Ellipse_47-2" data-name="Ellipse 47" cx="5.972" cy="5.972" rx="5.972" ry="5.972" transform="translate(1120.67 765.595)" fill="#c3c3c3"/>
    <path id="Path_420" data-name="Path 420" d="M-1179.757,8238.82s9.683-35.653,47.1-28.611,42.842,57.222,42.842,60.891c-6.6.733-30.848-4.219-44.2-19.479S-1167.58,8239.113-1179.757,8238.82Z" transform="translate(2274.436 -7503.729)" fill="#ff7161"/>
    <rect id="Rectangle_65" data-name="Rectangle 65" width="116.342" height="30.081" rx="8" transform="translate(1259.131 649.252)" fill="#00295d"/>
    <ellipse id="Ellipse_51" data-name="Ellipse 51" cx="7.963" cy="5.53" rx="7.963" ry="5.53" transform="matrix(0.891, 0.454, -0.454, 0.891, 1195.189, 626.04)" fill="#00295d"/>
    <path id="Path_427" data-name="Path 427" d="M-942.788,8046.738l11.542,6.652-2.037,5.416-12.027-6.747Z" transform="translate(2145.912 -7413.527)" fill="#00295d"/>
    <ellipse id="Ellipse_52" data-name="Ellipse 52" cx="5.751" cy="5.751" rx="5.751" ry="5.751" transform="translate(1211.135 638.856)" fill="#00295d"/>
    <path id="Path_431" data-name="Path 431" d="M-969.389,7989.442l9.64-29.864s1.364-4.762,7.086-3.148,7.483,2.788,7.483,2.788" transform="translate(2158.012 -7362.982)" fill="none" stroke="#bdc9c7" stroke-linecap="round" stroke-linejoin="round" stroke-width="3"/>
    <ellipse id="Ellipse_53" data-name="Ellipse 53" cx="3.539" cy="12.607" rx="3.539" ry="12.607" transform="matrix(0.946, 0.326, -0.326, 0.946, 1215.82, 582.462)" fill="#00295d"/>
    <path id="Path_409" data-name="Path 409" d="M33.948,0l51.7.318L79.115,25.406,25.165,29.8l-7.106,80.4-9.909.382s-10.133-82.376-7.8-91.2S11.1,13.019,23.482,8.675,37.591,4.5,37.591,4.5Z" transform="matrix(0.998, -0.07, 0.07, 0.998, 1221.883, 640.412)" fill="#848f91"/>
    <path id="Path_408" data-name="Path 408" d="M60.586,3.282s-7.528-4.452,0-2.987S68.2,16.9,64.853,25.633,59.52,39.542,44.255,38.7s-18.828,5.675-18.828,5.675L15.283,120.472l-8.946.493L0,28.269s.492-7.047,4.772-7.835,35.35-8.171,49.3-12.459S60.586,3.282,60.586,3.282Z" transform="matrix(0.998, -0.07, 0.07, 0.998, 1244.852, 641.603)" fill="#96a1a3"/>
    <path id="Path_410" data-name="Path 410" d="M0,87.493s33.465,3.672,47.807,0c.5-26.14,0-84.685,0-84.685L31.955,0H23.4L7.3,3.887Z" transform="matrix(0.998, -0.07, 0.07, 0.998, 1252.586, 556.4)" fill="#fff"/>
    <g transform="matrix(1, 0, 0, 1, 900.89, 488.3)" filter="url(#Coat)">
      <path id="Coat-2" data-name="Coat" d="M0,93.553s3.462,1.5,5.322-12.883S7.688,66.477,12.5,43.475,9.152,15.454,11.243,11.689,13.334,5.206,28.39,1.024A6.58,6.58,0,0,1,30.526.81C34.329,4.35,38.413,4.7,43.8,0,53.413,1.03,64.282,6.21,66.22,8.01c2.927,2.718-.707,71.5-.707,71.5l1.28,33.6-19.987,3.522L44.092,6.463,35.3,2.75,28.39,5.22l-.618,6.469L24.6,85.8s-8.2,4.963-15.517,6.437S0,93.553,0,93.553Z" transform="matrix(1, -0.07, 0.07, 1, 339.01, 65.39)" fill="#fff"/>
    </g>
    <path id="Path_403" data-name="Path 403" d="M5.626.068S1.8,1.421,1.684,7.785,0,34.587,0,34.587H1.464L3.148,8.179S3.2,3.055,6.3,1.308,5.626.068,5.626.068Z" transform="matrix(0.998, -0.07, 0.07, 0.998, 1261.086, 553.841)" fill="#4d7e9f"/>
    <g id="Group_22" data-name="Group 22" transform="matrix(0.998, -0.07, 0.07, 0.998, 1259.939, 586.092)">
      <ellipse id="Ellipse_41" data-name="Ellipse 41" cx="4.304" cy="4.304" rx="4.304" ry="4.304" fill="#b7cae0"/>
      <ellipse id="Ellipse_42" data-name="Ellipse 42" cx="2.009" cy="2.009" rx="2.009" ry="2.009" transform="translate(2.296 2.296)" fill="#a4acb9"/>
    </g>
    <path id="Path_404" data-name="Path 404" d="M.831.2c1.328-.641,4.933.447,9.1.961A19.693,19.693,0,0,0,15.494.931c2.466-.334,6.653.113,6.765.732S20.35,4.256,20.35,4.256a1.274,1.274,0,0,0-1.238-1.577C17.535,2.453,2.835,1.215,1.822,1.5S-1.1,1.13.831.2Z" transform="matrix(0.998, -0.07, 0.07, 0.998, 1265.768, 553.34)" fill="#4d7e9f"/>
    <path id="Path_402" data-name="Path 402" d="M7.161,0,6.587,28.07a14.066,14.066,0,0,0-6.3,11.2C0,46.959,0,47.129,0,47.129H1.577s-.6-7.167.81-11.578a9.8,9.8,0,0,1,5.341-5.907s2.8.513,4.492,5.018,1.663,12.393,1.663,12.393l1.051.074s.958-16.141-6.251-19.059c0-4.609.71-22.231.71-22.231Z" transform="matrix(0.998, -0.07, 0.07, 0.998, 1279.178, 548.021)" fill="#4d7e9f"/>
    <ellipse id="Ellipse_39" data-name="Ellipse 39" cx="1.865" cy="2.726" rx="1.865" ry="2.726" transform="matrix(0.998, -0.07, 0.07, 0.998, 1295.137, 602.966)" fill="#3b6173"/>
    <g transform="matrix(1, 0, 0, 1, 900.89, 488.3)" filter="url(#Path_411)">
      <path id="Path_411-2" data-name="Path 411" d="M8680.909,8232.895c5.451-2.476,10.917,5.943,13.728,16.353s-6.389,45.712-19.03,51.518c-20.158,8.758-73.638,20.352-78.43,17.212s-2.124-7.482,0-8.427,51.372-13.289,65.335-25.213,20.639-32.266,18.161-39.04S8675.455,8235.372,8680.909,8232.895Z" transform="translate(-8280.55 -8164.89)" fill="#fff"/>
    </g>
    <g transform="matrix(1, 0, 0, 1, 900.89, 488.3)" filter="url(#Path_401)">
      <path id="Path_401-2" data-name="Path 401" d="M0,2.27S2.294,7.316,2.782,7.4s4.906-3.88,4.906-3.88L3.661,0H2.123Z" transform="matrix(1, -0.07, 0.07, 1, 371.72, 65.27)" fill="#fff"/>
    </g>
    <g transform="matrix(1, 0, 0, 1, 900.89, 488.3)" filter="url(#Path_399)">
      <path id="Path_399-2" data-name="Path 399" d="M9.081,0C8.388.069.146,5.293,0,5.859s4.93,7.1,5.784,7.1S15.7,5.354,15.964,4.321,9.775-.065,9.081,0Z" transform="matrix(1, -0.07, 0.07, 1, 374.68, 59.34)" fill="#fff"/>
    </g>
    <g transform="matrix(1, 0, 0, 1, 900.89, 488.3)" filter="url(#Path_400)">
      <path id="Path_400-2" data-name="Path 400" d="M6.164,0c.683.034,3.2,4.382,3,5.127s-5.631,6.833-6.15,6.808S-.216,5.56.014,4.686,5.481-.032,6.164,0Z" transform="matrix(1, -0.07, 0.07, 1, 364.79, 60.84)" fill="#fff"/>
    </g>
    <ellipse id="Ellipse_40" data-name="Ellipse 40" cx="1.865" cy="2.726" rx="1.865" ry="2.726" transform="matrix(0.998, -0.07, 0.07, 0.998, 1281.078, 592.301)" fill="#3b6173"/>
    <g id="Group_107" data-name="Group 107" transform="matrix(0.995, -0.105, 0.105, 0.995, 1242.686, 751.67)">
      <path id="Path_628" data-name="Path 628" d="M.3,6.175,4.734,3.823l.56-.647.912.295,1.2-1.176H8.852l.824-.177L9.911,1h.646l1.383.5L12.176.412,12.38,0H13.2l.882.412,4.441,2.264,5.352.5,1.235,4.235L24.909,9.94H3.795L.618,9.086,0,8.028Z" transform="translate(0.355 1.595)" fill="#fff"/>
      <g id="Sneaker_shoe_free_icon_5" data-name="Sneaker shoe free icon 5" transform="translate(0 0)">
        <path id="Path_627" data-name="Path 627" d="M26.221,4a.637.637,0,0,0-.715-.567,20.544,20.544,0,0,1-2.539.165,13.209,13.209,0,0,1-3.939-.544c-.154-.048-.305-.1-.455-.153l.281-.343a1.017,1.017,0,0,0,.214-.867,1,1,0,0,0-.555-.7L16.667.1a1.019,1.019,0,0,0-1,.066l-1.82,1.175c-.02.007-.04.012-.059.02l-.024,0-.011-.008a1.108,1.108,0,0,0-.666-.222,1.18,1.18,0,0,0-.933.477,1.161,1.161,0,0,0-.23.584l-.218.111c-.066.033-.127.066-.193.095l-.066.037-.066-.049a1.122,1.122,0,0,0-.666-.218,1.183,1.183,0,0,0-.937.473,1.146,1.146,0,0,0-.23.67,1.7,1.7,0,0,0-.165.066c-.074.033-.148.062-.222.095l-.058.02-.1-.074a1.127,1.127,0,0,0-.661-.218,1.184,1.184,0,0,0-.937.473,1.258,1.258,0,0,0-.218.505c-.045.016-.095.029-.14.045,0,0-.255.074-.53.156a1.1,1.1,0,0,0-.547-.148,1.194,1.194,0,0,0-.941.481c-.02.029-.041.062-.062.095-.707.181-1.475.349-2.309.509A7.462,7.462,0,0,0,.9,5.853a1.427,1.427,0,0,0-.8,1.438.051.051,0,0,0,0,.025,9.322,9.322,0,0,0,.078,3.135c.37.961,2.872,1.586,8.387,1.586H24.7a1.157,1.157,0,0,0,.826-.349,1.091,1.091,0,0,0,.312-.8V9.231l.049-.185c.025-.111.053-.222.078-.333A15.131,15.131,0,0,0,26.221,4ZM5.63,5.142a.419.419,0,0,1,.345-.177.385.385,0,0,1,.222.07l.768.571.3.222a.371.371,0,0,1,.152.263.411.411,0,0,1-.086.312.425.425,0,0,1-.571.107l-.793-.6-.271-.2a.38.38,0,0,1-.148-.259A.438.438,0,0,1,5.63,5.142ZM10.717,2.9a.4.4,0,0,1,.226.074l.016.016.892.658.156.119a.373.373,0,0,1,.148.263.44.44,0,0,1-.086.312.423.423,0,0,1-.567.1l-.518-.386-.547-.407a.358.358,0,0,1-.148-.259.184.184,0,0,1,0-.095.444.444,0,0,1,.082-.222A.436.436,0,0,1,10.717,2.9Zm5.6-2.274A.386.386,0,0,1,16.4.651l1.849.9a.4.4,0,0,1,.136.625l-.423.505c-.555-.23-1.023-.477-1.446-.694A8.474,8.474,0,0,0,15.226,1.4c-.074-.025-.149-.053-.222-.072l1-.65A.423.423,0,0,1,16.29.618ZM14.53,2.993a.47.47,0,0,1-.086.316.429.429,0,0,1-.571.1l-.621-.46-.444-.333a.372.372,0,0,1-.148-.259.422.422,0,0,1,.029-.226.637.637,0,0,1,.054-.09.436.436,0,0,1,.345-.177.324.324,0,0,1,.107.016.342.342,0,0,1,.119.053l.793.592.271.205A.384.384,0,0,1,14.53,2.993ZM.752,9.58a8.176,8.176,0,0,0,2.967.826c1.044.131,1.915.152,1.935.152a.307.307,0,0,0,.3-.308.3.3,0,0,0-.3-.3c-1.426,0-4.434-.4-4.866-1.142A.232.232,0,0,0,.74,8.742c.011-.114.023-.226.04-.331,0-.012,0-.025.007-.037a1.568,1.568,0,0,0,.367.155,27.615,27.615,0,0,0,6.8.826H25.025V10.9a.309.309,0,0,1-.082.218.343.343,0,0,1-.243.1H8.564c-5.65,0-7.446-.809-7.664-1.175A1.212,1.212,0,0,1,.752,9.58ZM7.931,4.242A.567.567,0,0,1,8,4.111a.423.423,0,0,1,.345-.181A.4.4,0,0,1,8.572,4L9.5,4.7l.136.1a.424.424,0,0,1-.505.678l-.563-.419-.5-.37A.4.4,0,0,1,7.931,4.242Z" fill="#fff"/>
      </g>
    </g>
    <g id="Group_108" data-name="Group 108" transform="matrix(0.995, -0.105, 0.105, 0.995, 1223.969, 745.095)">
      <path id="Path_628-2" data-name="Path 628" d="M.274,5.733,4.4,3.549l.519-.6.846.273L6.879,2.129H8.217l.765-.164L9.2.928h.6l1.284.464L11.3.382,11.493,0h.764l.819.382,4.123,2.1,4.968.464L23.314,6.88l-.192,2.348H3.523L.573,8.435,0,7.452Z" transform="translate(0.33 1.481)" fill="#fff"/>
      <g id="Sneaker_shoe_free_icon_5-2" data-name="Sneaker shoe free icon 5" transform="translate(-0.995 -0.105)">
        <path id="Path_627-2" data-name="Path 627" d="M24.341,3.717a.591.591,0,0,0-.664-.527,19.071,19.071,0,0,1-2.357.153,12.261,12.261,0,0,1-3.657-.5c-.143-.045-.284-.092-.423-.142l.261-.318a.944.944,0,0,0,.2-.8.925.925,0,0,0-.515-.649L15.472.093a.946.946,0,0,0-.927.061l-1.69,1.091-.055.018-.023,0-.01-.008a1.029,1.029,0,0,0-.618-.206,1.1,1.1,0,0,0-.866.442,1.078,1.078,0,0,0-.214.542l-.2.1c-.061.03-.118.061-.179.088l-.061.034-.061-.046a1.041,1.041,0,0,0-.618-.2,1.1,1.1,0,0,0-.87.439,1.064,1.064,0,0,0-.214.622,1.581,1.581,0,0,0-.153.061c-.069.031-.137.057-.206.088l-.053.019-.092-.069a1.047,1.047,0,0,0-.614-.2,1.1,1.1,0,0,0-.87.439,1.168,1.168,0,0,0-.2.469c-.042.015-.088.027-.13.042,0,0-.237.069-.492.145a1.021,1.021,0,0,0-.507-.137,1.108,1.108,0,0,0-.874.446c-.019.027-.038.057-.057.088-.656.168-1.369.324-2.144.473a6.927,6.927,0,0,0-1.64.5A1.324,1.324,0,0,0,.088,6.768a.048.048,0,0,0,0,.023A8.654,8.654,0,0,0,.164,9.7c.343.893,2.666,1.472,7.786,1.472H22.93a1.074,1.074,0,0,0,.767-.324,1.013,1.013,0,0,0,.29-.74V8.569l.046-.172c.023-.1.05-.206.072-.309A14.046,14.046,0,0,0,24.341,3.717ZM5.226,4.774a.389.389,0,0,1,.32-.164.357.357,0,0,1,.206.065l.713.53.275.206a.344.344,0,0,1,.141.244.382.382,0,0,1-.08.29.394.394,0,0,1-.53.1l-.736-.553-.252-.183a.353.353,0,0,1-.137-.24A.406.406,0,0,1,5.226,4.774ZM9.949,2.691a.372.372,0,0,1,.21.069l.015.015.828.61.145.111a.346.346,0,0,1,.137.244.408.408,0,0,1-.08.29.393.393,0,0,1-.526.1L10.2,3.767l-.507-.378a.332.332,0,0,1-.137-.24.171.171,0,0,1,0-.088.412.412,0,0,1,.076-.206A.4.4,0,0,1,9.949,2.691ZM15.149.58A.358.358,0,0,1,15.224.6l1.717.832a.374.374,0,0,1,.126.58l-.393.469c-.515-.214-.95-.443-1.343-.645a7.866,7.866,0,0,0-1.2-.543c-.069-.023-.138-.049-.206-.067l.926-.6a.393.393,0,0,1,.268-.054Zm-1.661,2.2a.436.436,0,0,1-.08.294.4.4,0,0,1-.53.1L12.3,2.74l-.412-.309a.345.345,0,0,1-.137-.24.392.392,0,0,1,.027-.21.591.591,0,0,1,.05-.084.4.4,0,0,1,.32-.164.3.3,0,0,1,.1.015.318.318,0,0,1,.111.05l.736.549.252.191A.356.356,0,0,1,13.488,2.779ZM.7,8.893a7.59,7.59,0,0,0,2.754.767c.969.122,1.777.141,1.8.141a.285.285,0,0,0,.282-.286.282.282,0,0,0-.282-.282c-1.324,0-4.116-.374-4.517-1.061a.215.215,0,0,0-.046-.057c.01-.106.022-.21.037-.308,0-.011,0-.023.007-.034a1.456,1.456,0,0,0,.341.144,25.635,25.635,0,0,0,6.309.767h15.85v1.438a.287.287,0,0,1-.076.2.318.318,0,0,1-.225.1H7.95c-5.245,0-6.912-.751-7.114-1.091A1.125,1.125,0,0,1,.7,8.893ZM7.362,3.938a.526.526,0,0,1,.065-.122.393.393,0,0,1,.32-.168.372.372,0,0,1,.21.069l.862.645.126.091a.394.394,0,0,1-.469.63l-.523-.389L7.488,4.35A.376.376,0,0,1,7.362,3.938Z" fill="#fff" stroke="#fff" stroke-width="1"/>
      </g>
    </g>
    <path id="Path_653" data-name="Path 653" d="M-4172.6-9545.231h9.621s2.108-4.5,4.745-3.174a11.5,11.5,0,0,1,3.953,3.174h5.36l3.295,3.085,2.635-30.854,1.23,44.871,2.724-17.1h6.59s3.6-5.95,6.37-4.629a15.9,15.9,0,0,1,5.052,4.629h6.59" transform="translate(5487.293 10277.094)" fill="none" stroke="#fff" stroke-linecap="round" stroke-linejoin="round" stroke-width="2"/>
    <path id="Path_652" data-name="Path 652" d="M-4131.5-9795.756V-9805h11.494v9.244Z" transform="translate(5470.813 10410.414)" fill="none" stroke="#00295d" stroke-linecap="round" stroke-linejoin="round" stroke-width="4"/>
    <rect id="Rectangle_98" data-name="Rectangle 98" width="58.224" height="39.731" rx="6" transform="translate(1316.148 609.962)" fill="#00295d"/>
    <rect id="Rectangle_99" data-name="Rectangle 99" width="6.28" height="14.236" rx="1" transform="translate(1341.918 617.246)" fill="#fff"/>
    <rect id="Rectangle_100" data-name="Rectangle 100" width="15.492" height="5.862" rx="1" transform="translate(1337.316 621.434)" fill="#fff"/>
    <text id="MOBIDOC" transform="translate(1323.156 641.925)" fill="#fff" font-size="7" font-family="Montserrat-ExtraBold, Montserrat" font-weight="800" letter-spacing="0.1em"><tspan x="0" y="0">MOBIDOC</tspan></text>
    <circle id="Ellipse_85" data-name="Ellipse 85" cx="6.5" cy="6.5" r="6.5" transform="translate(1208 631)" fill="#f8bd95"/>
    <path id="Path_950" data-name="Path 950" d="M1055.9-7168.9l12.521-.917,1.431,12.352s-4.1,2.858-5.962,2.714-6.9-2.714-6.9-2.714Z" transform="translate(-15.012 7958.971)" fill="#e9f1f3"/>
    <g id="Group_116" data-name="Group 116" transform="translate(-15770.598 10590.661)">
      <path id="Path_631" data-name="Path 631" d="M0,3.138v9.411l3.136,5.489,9.41-6.744V0Z" transform="matrix(0.998, -0.07, 0.07, 0.998, 17041.928, -10053.867)" fill="#f5be95"/>
      <path id="Path_632" data-name="Path 632" d="M0,4.818S.316,8.9,5.5,8.4s7.25-1.534,7.25-1.534L12.882,0,.252,1.214Z" transform="matrix(0.998, -0.07, 0.07, 0.998, 17041.721, -10053.81)" fill="#f8a982"/>
      <path id="Path_630" data-name="Path 630" d="M1.51,5.64S-2.768,29.71,3.077,39.865c2.71,4.437,4.987,6.853,12.229,5.986s10.937-3.9,12.934-6.858S35,15.454,28.24,5.64s-9.485-3.632-17-4.573S1.51,5.64,1.51,5.64Z" transform="matrix(0.998, -0.07, 0.07, 0.998, 17029.711, -10093.641)" fill="#f8bd95"/>
      <path id="Path_633" data-name="Path 633" d="M1.526,3.126c-.542,1.625-.275,1.351,0,6.373S.321,19.519.887,22.672,3.08,18.958,3.15,21.8a68.594,68.594,0,0,1-.675,8.162s7.587-2.7,7.6-17.788c0-1.341-.308-15.848-9.187-11.29C-2.066-.836,3.465,1.5,1.526,3.126Z" transform="matrix(0.998, -0.07, 0.07, 0.998, 17057.08, -10089.598)" fill="#b67f56"/>
      <path id="Path_639" data-name="Path 639" d="M9.724.387c3.1-.386,4.657-.841,11.809.591S35.378,13.359,35.8,17.6c.125,1.235-3.1-4.987-4.278-2.625-4.093,6.56-28.386,2.742-30.258-2.116S.049,7.8.427,6.688A2.749,2.749,0,0,1,3.574,5.106C4.05,3.881,6.626.773,9.724.387Z" transform="matrix(0.998, -0.07, 0.07, 0.998, 17029.658, -10099.864)" fill="#b67f56"/>
      <g id="Group_112" data-name="Group 112" transform="matrix(0.998, -0.07, 0.07, 0.998, 17032.559, -10075.442)">
        <ellipse id="Ellipse_37" data-name="Ellipse 37" cx="3.143" cy="2.043" rx="3.143" ry="2.043" transform="translate(15.233 9.049) rotate(-30)" fill="url(#linear-gradient-2)"/>
        <ellipse id="Ellipse_38" data-name="Ellipse 38" cx="3.143" cy="2.143" rx="3.143" ry="2.143" transform="translate(2 7.236)" fill="url(#linear-gradient-2)"/>
        <path id="Path_390" data-name="Path 390" d="M.857.272A16.741,16.741,0,0,1,3.731,0,22.031,22.031,0,0,1,6.856.272a.857.857,0,1,1,0,1.714,25.576,25.576,0,0,0-3.384-.3,10.987,10.987,0,0,0-2.616.3.857.857,0,0,1,0-1.714Z" transform="translate(13.999 0.108)" fill="#b67f56"/>
        <path id="Path_391" data-name="Path 391" d="M.857.38A13.244,13.244,0,0,1,3.805,0,14.809,14.809,0,0,1,6.856.38a.857.857,0,1,1,0,1.714,30.119,30.119,0,0,0-3.483-.283,10.332,10.332,0,0,0-2.517.283A.857.857,0,0,1,.857.38Z" transform="translate(2 0)" fill="#b67f56"/>
        <g id="Group_16" data-name="Group 16" transform="translate(0 0.951)">
          <g id="Ellipse_33" data-name="Ellipse 33" transform="translate(0 0)" fill="none" stroke="#000" stroke-width="0.4">
            <ellipse cx="5.285" cy="5.285" rx="5.285" ry="5.285" stroke="none"/>
            <ellipse cx="5.285" cy="5.285" rx="5.085" ry="5.085" fill="none"/>
          </g>
          <g id="Ellipse_34" data-name="Ellipse 34" transform="translate(12.284 0)" fill="none" stroke="#000" stroke-width="0.4">
            <ellipse cx="5.285" cy="5.285" rx="5.285" ry="5.285" stroke="none"/>
            <ellipse cx="5.285" cy="5.285" rx="5.085" ry="5.085" fill="none"/>
          </g>
          <path id="Path_388" data-name="Path 388" d="M0,0H2.061" transform="translate(10.381 5.345)" fill="none" stroke="#000" stroke-linecap="round" stroke-width="0.4"/>
          <path id="Path_389" data-name="Path 389" d="M0,0,5.391,1.208" transform="translate(22.535 5.78)" fill="none" stroke="#000" stroke-width="0.4"/>
        </g>
        <ellipse id="Ellipse_35" data-name="Ellipse 35" cx="1" cy="1" rx="1" ry="1" transform="translate(4.571 3.808)"/>
        <ellipse id="Ellipse_36" data-name="Ellipse 36" cx="1" cy="1" rx="1" ry="1" transform="translate(16.284 3.808)"/>
      </g>
      <path id="Path_634" data-name="Path 634" d="M.011,7.957C-.066,7.22.177-.057,3.389,0S7,2.539,6.212,4.849,2.783,9.583.011,7.957Z" transform="translate(17057.111 -10071.097) rotate(-7)" fill="#ffaa70"/>
      <path id="Path_636" data-name="Path 636" d="M.1.031C.607-.25,1.482,1.5,3.887.479S3.669,2.52,2.43,2.594-.413.312.1.031Z" transform="matrix(0.998, -0.07, 0.07, 0.998, 17042.537, -10064.891)" fill="#f1a87b"/>
      <path id="Path_635" data-name="Path 635" d="M.011,7.957C-.066,7.22.177-.057,3.389,0S7,2.539,6.212,4.849,2.783,9.583.011,7.957Z" transform="translate(17057.521 -10071.553) rotate(-7)" fill="#f7bd96"/>
      <path id="Path_637" data-name="Path 637" d="M3.291.493C4.189.572,5.5-.351,6.553.15s1.123,1.268.264,1.941A14.533,14.533,0,0,0,4.849,3.954a1.447,1.447,0,0,1-2.351,0C1.772,2.87,1.257,2.395.636,2.21A1.094,1.094,0,0,1,.108.744C.346.387.663-.128,1.8.15S2.393.414,3.291.493Z" transform="matrix(0.998, -0.07, 0.07, 0.998, 17041.967, -10056.847)" fill="#f8bd95"/>
      <path id="Path_638" data-name="Path 638" d="M0,0A5.252,5.252,0,0,0,5.384,0" transform="matrix(0.998, -0.07, 0.07, 0.998, 17042.938, -10055.865)" fill="none" stroke="#fd9578" stroke-linecap="round" stroke-width="1.3"/>
    </g>
    <rect id="Rectangle_293" data-name="Rectangle 293" width="52.708" height="4.303" rx="2.151" transform="translate(1419.268 692.505)" opacity="0.4" fill="url(#linear-gradient-4)"/>
    <rect id="Rectangle_294" data-name="Rectangle 294" width="20.438" height="4.303" rx="2.151" transform="translate(1482.375 692.505)" opacity="0.4" fill="url(#linear-gradient-4)"/>
    <rect id="Rectangle_295" data-name="Rectangle 295" width="51.632" height="4.303" rx="2.151" transform="translate(1390.629 677.369)" opacity="0.4" fill="url(#linear-gradient-4)"/>
    <rect id="Rectangle_296" data-name="Rectangle 296" width="19.003" height="4.303" rx="2.151" transform="translate(1453.375 677.369)" opacity="0.4" fill="url(#linear-gradient-4)"/>
    <rect id="Rectangle_297" data-name="Rectangle 297" width="44.819" height="4.303" rx="2.151" transform="translate(1454.387 710.17)" opacity="0.4" fill="url(#linear-gradient-4)"/>
    <rect id="Rectangle_298" data-name="Rectangle 298" width="16.494" height="4.303" rx="2.151" transform="translate(1431.078 710.17)" opacity="0.4" fill="url(#linear-gradient-4)"/>
    <rect id="Rectangle_299" data-name="Rectangle 299" width="39.441" height="4.303" rx="2.151" transform="translate(1426.723 725.326)" opacity="0.4" fill="url(#linear-gradient-4)"/>
    <rect id="Rectangle_300" data-name="Rectangle 300" width="21.513" height="4.303" rx="2.151" transform="translate(1434.686 740.482)" opacity="0.4" fill="url(#linear-gradient-4)"/>
  </g>
</svg>
